solid OpenSCAD_Model
  facet normal 0.959493 0 -0.281733
    outer loop
      vertex 9.30791 -8.4001 6.7301
      vertex 8.7999 -6 5
      vertex 9.30791 -6 6.7301
    endloop
  endfacet
  facet normal 0.959493 0 -0.281733
    outer loop
      vertex 8.7999 -6 5
      vertex 9.30791 -8.4001 6.7301
      vertex 8.7999 -8.4001 5
    endloop
  endfacet
  facet normal 0 1 0
    outer loop
      vertex 10.6707 -8.4001 7.91082
      vertex 12.1918 -8.4001 8.12963
      vertex 12.1918 -8.4001 8.12953
    endloop
  endfacet
  facet normal 0 1 0
    outer loop
      vertex 12.1918 -8.4001 8.12963
      vertex 10.6707 -8.4001 7.91082
      vertex 10.6706 -8.4001 7.91091
    endloop
  endfacet
  facet normal 0 1 0
    outer loop
      vertex 10.6707 -8.4001 7.91082
      vertex 9.30791 -8.4001 6.7301
      vertex 10.6706 -8.4001 7.91091
    endloop
  endfacet
  facet normal 0 1 -0
    outer loop
      vertex 9.30799 -8.4001 6.73005
      vertex 9.30791 -8.4001 6.7301
      vertex 10.6707 -8.4001 7.91082
    endloop
  endfacet
  facet normal 0 1 0
    outer loop
      vertex 8.8 -8.4001 5
      vertex 9.30791 -8.4001 6.7301
      vertex 9.30799 -8.4001 6.73005
    endloop
  endfacet
  facet normal 0 1 -0
    outer loop
      vertex 8.8 -8.4001 5
      vertex 8.7999 -8.4001 5
      vertex 9.30791 -8.4001 6.7301
    endloop
  endfacet
  facet normal 0 1 0
    outer loop
      vertex 9.30799 -8.4001 3.26995
      vertex 8.7999 -8.4001 5
      vertex 8.8 -8.4001 5
    endloop
  endfacet
  facet normal 0 1 0
    outer loop
      vertex 9.30799 -8.4001 3.26995
      vertex 9.30791 -8.4001 3.2699
      vertex 8.7999 -8.4001 5
    endloop
  endfacet
  facet normal 0 1 0
    outer loop
      vertex 10.6707 -8.4001 2.08918
      vertex 9.30791 -8.4001 3.2699
      vertex 9.30799 -8.4001 3.26995
    endloop
  endfacet
  facet normal 0 1 0
    outer loop
      vertex 10.6707 -8.4001 2.08918
      vertex 10.6706 -8.4001 2.08909
      vertex 9.30791 -8.4001 3.2699
    endloop
  endfacet
  facet normal 0 1 -0
    outer loop
      vertex 12.1918 -8.4001 1.87037
      vertex 10.6707 -8.4001 2.08918
      vertex 12.1918 -8.4001 1.87047
    endloop
  endfacet
  facet normal 0 1 0
    outer loop
      vertex 10.6707 -8.4001 2.08918
      vertex 12.1918 -8.4001 1.87037
      vertex 10.6706 -8.4001 2.08909
    endloop
  endfacet
  facet normal -0.415415 -0 -0.909632
    outer loop
      vertex 12.4554 -6 8.16753
      vertex 14.0956 -6.6579 7.41847
      vertex 12.4554 -8.15889 8.16753
    endloop
  endfacet
  facet normal -0.415415 0 -0.909632
    outer loop
      vertex 14.0956 -6.6579 7.41847
      vertex 12.4554 -6 8.16753
      vertex 14.0956 -6 7.41847
    endloop
  endfacet
  facet normal 0 -1 0
    outer loop
      vertex 10.6706 -6 7.91091
      vertex 12.4554 -6 8.16743
      vertex 12.4554 -6 8.16753
    endloop
  endfacet
  facet normal 0 -1 0
    outer loop
      vertex 10.6706 -6 7.91091
      vertex 10.6707 -6 7.91082
      vertex 12.4554 -6 8.16743
    endloop
  endfacet
  facet normal 0 -1 0
    outer loop
      vertex 9.30791 -6 6.7301
      vertex 10.6707 -6 7.91082
      vertex 10.6706 -6 7.91091
    endloop
  endfacet
  facet normal 0 -1 0
    outer loop
      vertex 9.30791 -6 6.7301
      vertex 9.30799 -6 6.73005
      vertex 10.6707 -6 7.91082
    endloop
  endfacet
  facet normal 0 -1 0
    outer loop
      vertex 8.7999 -6 5
      vertex 9.30799 -6 6.73005
      vertex 9.30791 -6 6.7301
    endloop
  endfacet
  facet normal 0 -1 0
    outer loop
      vertex 8.7999 -6 5
      vertex 8.8 -6 5
      vertex 9.30799 -6 6.73005
    endloop
  endfacet
  facet normal 0 -1 0
    outer loop
      vertex 8.7999 -6 5
      vertex 9.30799 -6 3.26995
      vertex 8.8 -6 5
    endloop
  endfacet
  facet normal 0 -1 0
    outer loop
      vertex 9.30791 -6 3.2699
      vertex 9.30799 -6 3.26995
      vertex 8.7999 -6 5
    endloop
  endfacet
  facet normal 0 -1 0
    outer loop
      vertex 9.30791 -6 3.2699
      vertex 10.6707 -6 2.08918
      vertex 9.30799 -6 3.26995
    endloop
  endfacet
  facet normal 0 -1 0
    outer loop
      vertex 10.6706 -6 2.08909
      vertex 10.6707 -6 2.08918
      vertex 9.30791 -6 3.2699
    endloop
  endfacet
  facet normal 0 -1 0
    outer loop
      vertex 10.6706 -6 2.08909
      vertex 12.4554 -6 1.83257
      vertex 10.6707 -6 2.08918
    endloop
  endfacet
  facet normal -0 -1 -0
    outer loop
      vertex 12.4554 -6 1.83257
      vertex 10.6706 -6 2.08909
      vertex 12.4554 -6 1.83247
    endloop
  endfacet
  facet normal 0 -1 0
    outer loop
      vertex 12.4554 -6 8.16743
      vertex 14.0956 -6 7.41847
      vertex 12.4554 -6 8.16753
    endloop
  endfacet
  facet normal 0 -1 0
    outer loop
      vertex 14.0956 -6 7.4184
      vertex 14.0956 -6 7.41847
      vertex 12.4554 -6 8.16743
    endloop
  endfacet
  facet normal 0 -1 0
    outer loop
      vertex 14.0956 -6 7.4184
      vertex 14.8145 -6 6.29983
      vertex 14.0956 -6 7.41847
    endloop
  endfacet
  facet normal -0 -1 -0
    outer loop
      vertex 14.8145 -6 6.29983
      vertex 14.0956 -6 7.4184
      vertex 14.8145 -6 6.29966
    endloop
  endfacet
  facet normal 0 -1 0
    outer loop
      vertex 14.0956 -6 2.5816
      vertex 14.8145 -6 3.70017
      vertex 14.8145 -6 3.70034
    endloop
  endfacet
  facet normal 0 -1 0
    outer loop
      vertex 14.0956 -6 2.5816
      vertex 14.0956 -6 2.58153
      vertex 14.8145 -6 3.70017
    endloop
  endfacet
  facet normal 0 -1 0
    outer loop
      vertex 12.4554 -6 1.83257
      vertex 14.0956 -6 2.58153
      vertex 14.0956 -6 2.5816
    endloop
  endfacet
  facet normal 0 -1 0
    outer loop
      vertex 14.0956 -6 2.58153
      vertex 12.4554 -6 1.83257
      vertex 12.4554 -6 1.83247
    endloop
  endfacet
  facet normal -0.841254 -0 -0.540641
    outer loop
      vertex 14.0956 -6 7.41847
      vertex 14.8145 -6 6.29983
      vertex 14.0956 -6.6579 7.41847
    endloop
  endfacet
  facet normal 0.142315 0 0.989821
    outer loop
      vertex 10.6706 -6 2.08909
      vertex 12.4554 -8.15889 1.83247
      vertex 12.4554 -6 1.83247
    endloop
  endfacet
  facet normal 0.142315 -0 0.989821
    outer loop
      vertex 10.6706 -8.4001 2.08909
      vertex 12.4554 -8.15889 1.83247
      vertex 10.6706 -6 2.08909
    endloop
  endfacet
  facet normal 0.142315 8.34797e-08 0.989821
    outer loop
      vertex 12.4554 -8.15889 1.83247
      vertex 10.6706 -8.4001 2.08909
      vertex 12.1918 -8.4001 1.87037
    endloop
  endfacet
  facet normal 0.654861 0 0.75575
    outer loop
      vertex 9.30791 -6 3.2699
      vertex 10.6706 -8.4001 2.08909
      vertex 10.6706 -6 2.08909
    endloop
  endfacet
  facet normal 0.654861 0 0.75575
    outer loop
      vertex 10.6706 -8.4001 2.08909
      vertex 9.30791 -6 3.2699
      vertex 9.30791 -8.4001 3.2699
    endloop
  endfacet
  facet normal 0.142315 -1.06443e-06 -0.989821
    outer loop
      vertex 10.6706 -8.4001 7.91091
      vertex 12.4554 -8.15889 8.16753
      vertex 12.1918 -8.4001 8.12963
    endloop
  endfacet
  facet normal 0.142315 0 -0.989821
    outer loop
      vertex 12.4554 -8.15889 8.16753
      vertex 10.6706 -8.4001 7.91091
      vertex 10.6706 -6 7.91091
    endloop
  endfacet
  facet normal 0.142315 0 -0.989821
    outer loop
      vertex 12.4554 -8.15889 8.16753
      vertex 10.6706 -6 7.91091
      vertex 12.4554 -6 8.16753
    endloop
  endfacet
  facet normal 0.654861 0 -0.75575
    outer loop
      vertex 9.30791 -8.4001 6.7301
      vertex 10.6706 -6 7.91091
      vertex 10.6706 -8.4001 7.91091
    endloop
  endfacet
  facet normal 0.654861 0 -0.75575
    outer loop
      vertex 10.6706 -6 7.91091
      vertex 9.30791 -8.4001 6.7301
      vertex 9.30791 -6 6.7301
    endloop
  endfacet
  facet normal 0.959493 -0 0.281733
    outer loop
      vertex 8.7999 -8.4001 5
      vertex 9.30791 -6 3.2699
      vertex 8.7999 -6 5
    endloop
  endfacet
  facet normal 0.959493 0 0.281733
    outer loop
      vertex 9.30791 -6 3.2699
      vertex 8.7999 -8.4001 5
      vertex 9.30791 -8.4001 3.2699
    endloop
  endfacet
  facet normal -0.415415 0 0.909632
    outer loop
      vertex 12.4554 -6 1.83247
      vertex 14.0956 -6.6579 2.58153
      vertex 14.0956 -6 2.58153
    endloop
  endfacet
  facet normal -0.415415 0 0.909632
    outer loop
      vertex 14.0956 -6.6579 2.58153
      vertex 12.4554 -6 1.83247
      vertex 12.4554 -8.15889 1.83247
    endloop
  endfacet
  facet normal -0.841254 0 0.540641
    outer loop
      vertex 14.8145 -6 3.70017
      vertex 14.0956 -6 2.58153
      vertex 14.0956 -6.6579 2.58153
    endloop
  endfacet
  facet normal 0.809017 0 -0.587786
    outer loop
      vertex 11.5395 0 6.41717
      vertex 10.5099 -4 5
      vertex 10.5099 0 5
    endloop
  endfacet
  facet normal 0.809017 0 -0.587786
    outer loop
      vertex 10.5099 -4 5
      vertex 11.5395 0 6.41717
      vertex 11.5395 -4 6.41717
    endloop
  endfacet
  facet normal -1 0 0
    outer loop
      vertex 13.2055 -4 4.38721
      vertex 13.2055 0 4.12414
      vertex 13.2055 -4 4.12414
    endloop
  endfacet
  facet normal -1 0 0
    outer loop
      vertex 13.2055 0 4.12414
      vertex 13.2055 -4 4.38721
      vertex 13.2055 0 5.87586
    endloop
  endfacet
  facet normal -1 -0 0
    outer loop
      vertex 13.2055 0 5.87586
      vertex 13.2055 -4 4.38721
      vertex 13.2055 -4 5.87586
    endloop
  endfacet
  facet normal -0.309017 0 -0.951056
    outer loop
      vertex 12.4554 -4 6.11958
      vertex 13.2055 0 5.87586
      vertex 13.2055 -4 5.87586
    endloop
  endfacet
  facet normal -0.309017 -0 -0.951057
    outer loop
      vertex 11.5395 0 6.41717
      vertex 12.4554 -4 6.11958
      vertex 11.5395 -4 6.41717
    endloop
  endfacet
  facet normal -0.309017 -2.94953e-08 -0.951056
    outer loop
      vertex 12.4554 -4 6.11958
      vertex 11.5395 0 6.41717
      vertex 13.2055 0 5.87586
    endloop
  endfacet
  facet normal 0.809017 -0 0.587786
    outer loop
      vertex 10.5099 -4 5
      vertex 11.5395 0 3.58283
      vertex 10.5099 0 5
    endloop
  endfacet
  facet normal 0.809017 0 0.587786
    outer loop
      vertex 11.5395 0 3.58283
      vertex 10.5099 -4 5
      vertex 11.5395 -4 3.58283
    endloop
  endfacet
  facet normal -0.309015 0 0.951057
    outer loop
      vertex 13.2055 0 4.12414
      vertex 13.1201 -4 4.0964
      vertex 13.2055 -4 4.12414
    endloop
  endfacet
  facet normal -0.309017 3.97902e-08 0.951056
    outer loop
      vertex 13.2055 0 4.12414
      vertex 12.4554 -4 3.88042
      vertex 13.1201 -4 4.0964
    endloop
  endfacet
  facet normal -0.309017 2.7192e-08 0.951056
    outer loop
      vertex 11.5395 0 3.58283
      vertex 12.4554 -4 3.88042
      vertex 13.2055 0 4.12414
    endloop
  endfacet
  facet normal -0.309017 0 0.951056
    outer loop
      vertex 12.4554 -4 3.88042
      vertex 11.5395 0 3.58283
      vertex 11.5395 -4 3.58283
    endloop
  endfacet
  facet normal 0.959493 0 -0.281733
    outer loop
      vertex 9.30791 -8.4001 16.7301
      vertex 8.7999 -6 15
      vertex 9.30791 -6 16.7301
    endloop
  endfacet
  facet normal 0.959493 0 -0.281733
    outer loop
      vertex 8.7999 -6 15
      vertex 9.30791 -8.4001 16.7301
      vertex 8.7999 -8.4001 15
    endloop
  endfacet
  facet normal 0 1 0
    outer loop
      vertex 10.6707 -8.4001 17.9108
      vertex 12.1918 -8.4001 18.1296
      vertex 12.1918 -8.4001 18.1295
    endloop
  endfacet
  facet normal 0 1 0
    outer loop
      vertex 12.1918 -8.4001 18.1296
      vertex 10.6707 -8.4001 17.9108
      vertex 10.6706 -8.4001 17.9109
    endloop
  endfacet
  facet normal 0 1 0
    outer loop
      vertex 10.6707 -8.4001 17.9108
      vertex 9.30791 -8.4001 16.7301
      vertex 10.6706 -8.4001 17.9109
    endloop
  endfacet
  facet normal 0 1 -0
    outer loop
      vertex 9.30799 -8.4001 16.73
      vertex 9.30791 -8.4001 16.7301
      vertex 10.6707 -8.4001 17.9108
    endloop
  endfacet
  facet normal 0 1 0
    outer loop
      vertex 8.7999 -8.4001 15
      vertex 9.30799 -8.4001 16.73
      vertex 8.8 -8.4001 15
    endloop
  endfacet
  facet normal 0 1 0
    outer loop
      vertex 9.30799 -8.4001 16.73
      vertex 8.7999 -8.4001 15
      vertex 9.30791 -8.4001 16.7301
    endloop
  endfacet
  facet normal 0 1 0
    outer loop
      vertex 9.30799 -8.4001 13.2699
      vertex 8.7999 -8.4001 15
      vertex 8.8 -8.4001 15
    endloop
  endfacet
  facet normal 0 1 0
    outer loop
      vertex 9.30799 -8.4001 13.2699
      vertex 9.30791 -8.4001 13.2699
      vertex 8.7999 -8.4001 15
    endloop
  endfacet
  facet normal 0 1 0
    outer loop
      vertex 10.6707 -8.4001 12.0892
      vertex 9.30791 -8.4001 13.2699
      vertex 9.30799 -8.4001 13.2699
    endloop
  endfacet
  facet normal 0 1 0
    outer loop
      vertex 10.6707 -8.4001 12.0892
      vertex 10.6706 -8.4001 12.0891
      vertex 9.30791 -8.4001 13.2699
    endloop
  endfacet
  facet normal 0 1 -0
    outer loop
      vertex 12.1918 -8.4001 11.8704
      vertex 10.6707 -8.4001 12.0892
      vertex 12.1918 -8.4001 11.8705
    endloop
  endfacet
  facet normal 0 1 0
    outer loop
      vertex 10.6707 -8.4001 12.0892
      vertex 12.1918 -8.4001 11.8704
      vertex 10.6706 -8.4001 12.0891
    endloop
  endfacet
  facet normal -0.415414 -0 -0.909632
    outer loop
      vertex 12.4554 -6 18.1675
      vertex 14.0956 -6.6579 17.4185
      vertex 12.4554 -8.15889 18.1675
    endloop
  endfacet
  facet normal -0.415414 0 -0.909632
    outer loop
      vertex 14.0956 -6.6579 17.4185
      vertex 12.4554 -6 18.1675
      vertex 14.0956 -6 17.4185
    endloop
  endfacet
  facet normal 0 -1 0
    outer loop
      vertex 10.6706 -6 17.9109
      vertex 12.4554 -6 18.1674
      vertex 12.4554 -6 18.1675
    endloop
  endfacet
  facet normal 0 -1 0
    outer loop
      vertex 10.6706 -6 17.9109
      vertex 10.6707 -6 17.9108
      vertex 12.4554 -6 18.1674
    endloop
  endfacet
  facet normal 0 -1 0
    outer loop
      vertex 9.30791 -6 16.7301
      vertex 10.6707 -6 17.9108
      vertex 10.6706 -6 17.9109
    endloop
  endfacet
  facet normal 0 -1 0
    outer loop
      vertex 9.30791 -6 16.7301
      vertex 9.30799 -6 16.73
      vertex 10.6707 -6 17.9108
    endloop
  endfacet
  facet normal 0 -1 0
    outer loop
      vertex 8.7999 -6 15
      vertex 9.30799 -6 16.73
      vertex 9.30791 -6 16.7301
    endloop
  endfacet
  facet normal 0 -1 0
    outer loop
      vertex 8.7999 -6 15
      vertex 8.8 -6 15
      vertex 9.30799 -6 16.73
    endloop
  endfacet
  facet normal 0 -1 0
    outer loop
      vertex 8.7999 -6 15
      vertex 9.30799 -6 13.2699
      vertex 8.8 -6 15
    endloop
  endfacet
  facet normal 0 -1 0
    outer loop
      vertex 9.30791 -6 13.2699
      vertex 9.30799 -6 13.2699
      vertex 8.7999 -6 15
    endloop
  endfacet
  facet normal 0 -1 0
    outer loop
      vertex 9.30791 -6 13.2699
      vertex 10.6707 -6 12.0892
      vertex 9.30799 -6 13.2699
    endloop
  endfacet
  facet normal 0 -1 0
    outer loop
      vertex 10.6706 -6 12.0891
      vertex 10.6707 -6 12.0892
      vertex 9.30791 -6 13.2699
    endloop
  endfacet
  facet normal 0 -1 0
    outer loop
      vertex 10.6706 -6 12.0891
      vertex 12.4554 -6 11.8326
      vertex 10.6707 -6 12.0892
    endloop
  endfacet
  facet normal -0 -1 -0
    outer loop
      vertex 12.4554 -6 11.8326
      vertex 10.6706 -6 12.0891
      vertex 12.4554 -6 11.8325
    endloop
  endfacet
  facet normal 0 -1 0
    outer loop
      vertex 12.4554 -6 18.1674
      vertex 14.0956 -6 17.4185
      vertex 12.4554 -6 18.1675
    endloop
  endfacet
  facet normal 0 -1 0
    outer loop
      vertex 14.0956 -6 17.4184
      vertex 14.0956 -6 17.4185
      vertex 12.4554 -6 18.1674
    endloop
  endfacet
  facet normal 0 -1 0
    outer loop
      vertex 14.0956 -6 17.4184
      vertex 14.8145 -6 16.2998
      vertex 14.0956 -6 17.4185
    endloop
  endfacet
  facet normal -0 -1 -0
    outer loop
      vertex 14.8145 -6 16.2998
      vertex 14.0956 -6 17.4184
      vertex 14.8145 -6 16.2997
    endloop
  endfacet
  facet normal 0 -1 0
    outer loop
      vertex 14.0956 -6 12.5816
      vertex 14.8145 -6 13.7002
      vertex 14.8145 -6 13.7003
    endloop
  endfacet
  facet normal 0 -1 0
    outer loop
      vertex 14.0956 -6 12.5816
      vertex 14.0956 -6 12.5815
      vertex 14.8145 -6 13.7002
    endloop
  endfacet
  facet normal 0 -1 0
    outer loop
      vertex 12.4554 -6 11.8326
      vertex 14.0956 -6 12.5815
      vertex 14.0956 -6 12.5816
    endloop
  endfacet
  facet normal 0 -1 0
    outer loop
      vertex 14.0956 -6 12.5815
      vertex 12.4554 -6 11.8326
      vertex 12.4554 -6 11.8325
    endloop
  endfacet
  facet normal -0.841254 -0 -0.540641
    outer loop
      vertex 14.0956 -6 17.4185
      vertex 14.8145 -6 16.2998
      vertex 14.0956 -6.6579 17.4185
    endloop
  endfacet
  facet normal 0.142315 0 0.989821
    outer loop
      vertex 10.6706 -6 12.0891
      vertex 12.4554 -8.15889 11.8325
      vertex 12.4554 -6 11.8325
    endloop
  endfacet
  facet normal 0.142315 -0 0.989821
    outer loop
      vertex 10.6706 -8.4001 12.0891
      vertex 12.4554 -8.15889 11.8325
      vertex 10.6706 -6 12.0891
    endloop
  endfacet
  facet normal 0.142315 -1.06443e-06 0.989821
    outer loop
      vertex 12.4554 -8.15889 11.8325
      vertex 10.6706 -8.4001 12.0891
      vertex 12.1918 -8.4001 11.8704
    endloop
  endfacet
  facet normal 0.654861 0 0.75575
    outer loop
      vertex 9.30791 -6 13.2699
      vertex 10.6706 -8.4001 12.0891
      vertex 10.6706 -6 12.0891
    endloop
  endfacet
  facet normal 0.654861 0 0.75575
    outer loop
      vertex 10.6706 -8.4001 12.0891
      vertex 9.30791 -6 13.2699
      vertex 9.30791 -8.4001 13.2699
    endloop
  endfacet
  facet normal 0.142316 -5.65605e-06 -0.989821
    outer loop
      vertex 10.6706 -8.4001 17.9109
      vertex 12.4554 -8.15889 18.1675
      vertex 12.1918 -8.4001 18.1296
    endloop
  endfacet
  facet normal 0.142315 0 -0.989821
    outer loop
      vertex 12.4554 -8.15889 18.1675
      vertex 10.6706 -8.4001 17.9109
      vertex 10.6706 -6 17.9109
    endloop
  endfacet
  facet normal 0.142315 0 -0.989821
    outer loop
      vertex 12.4554 -8.15889 18.1675
      vertex 10.6706 -6 17.9109
      vertex 12.4554 -6 18.1675
    endloop
  endfacet
  facet normal 0.65486 0 -0.75575
    outer loop
      vertex 9.30791 -8.4001 16.7301
      vertex 10.6706 -6 17.9109
      vertex 10.6706 -8.4001 17.9109
    endloop
  endfacet
  facet normal 0.65486 0 -0.75575
    outer loop
      vertex 10.6706 -6 17.9109
      vertex 9.30791 -8.4001 16.7301
      vertex 9.30791 -6 16.7301
    endloop
  endfacet
  facet normal 0.959493 -0 0.281733
    outer loop
      vertex 8.7999 -8.4001 15
      vertex 9.30791 -6 13.2699
      vertex 8.7999 -6 15
    endloop
  endfacet
  facet normal 0.959493 0 0.281733
    outer loop
      vertex 9.30791 -6 13.2699
      vertex 8.7999 -8.4001 15
      vertex 9.30791 -8.4001 13.2699
    endloop
  endfacet
  facet normal -0.415415 0 0.909632
    outer loop
      vertex 12.4554 -6 11.8325
      vertex 14.0956 -6.6579 12.5815
      vertex 14.0956 -6 12.5815
    endloop
  endfacet
  facet normal -0.415415 0 0.909632
    outer loop
      vertex 14.0956 -6.6579 12.5815
      vertex 12.4554 -6 11.8325
      vertex 12.4554 -8.15889 11.8325
    endloop
  endfacet
  facet normal -0.841253 0 0.540641
    outer loop
      vertex 14.8145 -6 13.7002
      vertex 14.0956 -6 12.5815
      vertex 14.0956 -6.6579 12.5815
    endloop
  endfacet
  facet normal 0.809016 0 -0.587786
    outer loop
      vertex 11.5395 0 16.4172
      vertex 10.5099 -4 15
      vertex 10.5099 0 15
    endloop
  endfacet
  facet normal 0.809016 0 -0.587786
    outer loop
      vertex 10.5099 -4 15
      vertex 11.5395 0 16.4172
      vertex 11.5395 -4 16.4172
    endloop
  endfacet
  facet normal -1 0 0
    outer loop
      vertex 13.2055 -4 14.3872
      vertex 13.2055 0 14.1241
      vertex 13.2055 -4 14.1241
    endloop
  endfacet
  facet normal -1 0 0
    outer loop
      vertex 13.2055 0 14.1241
      vertex 13.2055 -4 14.3872
      vertex 13.2055 0 15.8759
    endloop
  endfacet
  facet normal -1 -0 0
    outer loop
      vertex 13.2055 0 15.8759
      vertex 13.2055 -4 14.3872
      vertex 13.2055 -4 15.8759
    endloop
  endfacet
  facet normal -0.309017 0 -0.951057
    outer loop
      vertex 12.4554 -4 16.1196
      vertex 13.2055 0 15.8759
      vertex 13.2055 -4 15.8759
    endloop
  endfacet
  facet normal -0.309017 -0 -0.951057
    outer loop
      vertex 11.5395 0 16.4172
      vertex 12.4554 -4 16.1196
      vertex 11.5395 -4 16.4172
    endloop
  endfacet
  facet normal -0.309017 -1.82146e-08 -0.951057
    outer loop
      vertex 12.4554 -4 16.1196
      vertex 11.5395 0 16.4172
      vertex 13.2055 0 15.8759
    endloop
  endfacet
  facet normal 0.809017 -0 0.587786
    outer loop
      vertex 10.5099 -4 15
      vertex 11.5395 0 13.5828
      vertex 10.5099 0 15
    endloop
  endfacet
  facet normal 0.809017 0 0.587786
    outer loop
      vertex 11.5395 0 13.5828
      vertex 10.5099 -4 15
      vertex 11.5395 -4 13.5828
    endloop
  endfacet
  facet normal -0.30902 0 0.951055
    outer loop
      vertex 13.2055 0 14.1241
      vertex 13.1201 -4 14.0964
      vertex 13.2055 -4 14.1241
    endloop
  endfacet
  facet normal -0.309016 -9.54309e-08 0.951057
    outer loop
      vertex 13.2055 0 14.1241
      vertex 12.4554 -4 13.8804
      vertex 13.1201 -4 14.0964
    endloop
  endfacet
  facet normal -0.309017 8.38794e-08 0.951056
    outer loop
      vertex 11.5395 0 13.5828
      vertex 12.4554 -4 13.8804
      vertex 13.2055 0 14.1241
    endloop
  endfacet
  facet normal -0.309017 0 0.951056
    outer loop
      vertex 12.4554 -4 13.8804
      vertex 11.5395 0 13.5828
      vertex 11.5395 -4 13.5828
    endloop
  endfacet
  facet normal -0.986361 0.164595 0
    outer loop
      vertex 6.6749 -1.9482 0
      vertex 7 0 20
      vertex 7 0 0
    endloop
  endfacet
  facet normal -0.986361 0.164595 0
    outer loop
      vertex 7 0 20
      vertex 6.6749 -1.9482 0
      vertex 6.6749 -1.9482 20
    endloop
  endfacet
  facet normal -0.401695 0.915773 0
    outer loop
      vertex 4.28169 -5.023 0
      vertex 2.47291 -5.8164 20
      vertex 4.28169 -5.023 20
    endloop
  endfacet
  facet normal -0.401695 0.915773 0
    outer loop
      vertex 2.47291 -5.8164 20
      vertex 4.28169 -5.023 0
      vertex 2.47291 -5.8164 0
    endloop
  endfacet
  facet normal 0.546948 0.837166 -0
    outer loop
      vertex -1.41017 -5.49464 0
      vertex -2.72533 -4.6354 20
      vertex -1.41017 -5.49464 20
    endloop
  endfacet
  facet normal 0.546948 0.837166 0
    outer loop
      vertex -2.72533 -4.6354 20
      vertex -1.41017 -5.49464 0
      vertex -2.72533 -4.6354 0
    endloop
  endfacet
  facet normal -0.0825791 0.996585 0
    outer loop
      vertex 2.47291 -5.8164 0
      vertex 0.504523 -5.97951 20
      vertex 2.47291 -5.8164 20
    endloop
  endfacet
  facet normal -0.0825791 0.996585 0
    outer loop
      vertex 0.504523 -5.97951 20
      vertex 2.47291 -5.8164 0
      vertex 0.504523 -5.97951 0
    endloop
  endfacet
  facet normal -0.677282 0.735724 0
    outer loop
      vertex 5.73484 -3.68528 0
      vertex 4.28169 -5.023 20
      vertex 5.73484 -3.68528 20
    endloop
  endfacet
  facet normal -0.677282 0.735724 0
    outer loop
      vertex 4.28169 -5.023 20
      vertex 5.73484 -3.68528 0
      vertex 4.28169 -5.023 0
    endloop
  endfacet
  facet normal 0.245486 0.9694 -0
    outer loop
      vertex 0.504523 -5.97951 0
      vertex -1.41017 -5.49464 20
      vertex 0.504523 -5.97951 20
    endloop
  endfacet
  facet normal 0.245486 0.9694 0
    outer loop
      vertex -1.41017 -5.49464 20
      vertex 0.504523 -5.97951 0
      vertex -1.41017 -5.49464 0
    endloop
  endfacet
  facet normal -0.879474 0.475947 0
    outer loop
      vertex 5.73484 -3.68528 0
      vertex 6.6749 -1.9482 20
      vertex 6.6749 -1.9482 0
    endloop
  endfacet
  facet normal -0.879474 0.475947 0
    outer loop
      vertex 6.6749 -1.9482 20
      vertex 5.73484 -3.68528 0
      vertex 5.73484 -3.68528 20
    endloop
  endfacet
  facet normal 0.959493 0 -0.281733
    outer loop
      vertex 9.30799 -10 6.73005
      vertex 8.8 -8.4001 5
      vertex 9.30799 -8.4001 6.73005
    endloop
  endfacet
  facet normal 0.959493 0 -0.281733
    outer loop
      vertex 8.8 -8.4001 5
      vertex 9.30799 -10 6.73005
      vertex 8.8 -10 5
    endloop
  endfacet
  facet normal 0.959493 0 -0.281733
    outer loop
      vertex 9.30799 -6 6.73005
      vertex 8.8 -4 5
      vertex 9.30799 -4 6.73005
    endloop
  endfacet
  facet normal 0.959493 0 -0.281733
    outer loop
      vertex 8.8 -4 5
      vertex 9.30799 -6 6.73005
      vertex 8.8 -6 5
    endloop
  endfacet
  facet normal -1 0 0
    outer loop
      vertex 15.0704 -5.76586 4.09846
      vertex 15.0704 -4 5.90154
      vertex 15.0704 -4 4.09846
    endloop
  endfacet
  facet normal -1 -0 0
    outer loop
      vertex 15.0704 -4 5.90154
      vertex 15.0704 -5.76586 4.09846
      vertex 15.0704 -5.76586 5.90154
    endloop
  endfacet
  facet normal 0.142315 0 -0.989821
    outer loop
      vertex 10.6707 -6 7.91082
      vertex 12.4554 -4 8.16743
      vertex 12.4554 -6 8.16743
    endloop
  endfacet
  facet normal 0.142315 0 -0.989821
    outer loop
      vertex 12.4554 -4 8.16743
      vertex 10.6707 -6 7.91082
      vertex 10.6707 -4 7.91082
    endloop
  endfacet
  facet normal 0.142315 0 -0.989821
    outer loop
      vertex 10.6707 -8.4001 7.91082
      vertex 12.1918 -8.4001 8.12953
      vertex 10.6707 -9.79218 7.91082
    endloop
  endfacet
  facet normal 0 -1 0
    outer loop
      vertex 10.6707 -4 2.08918
      vertex 12.4554 -4 1.83257
      vertex 9.30799 -4 3.26995
    endloop
  endfacet
  facet normal 0.654861 2.31361e-07 -0.755749
    outer loop
      vertex 9.30799 -8.4001 6.73005
      vertex 10.6707 -9.79218 7.91082
      vertex 10.4436 -10 7.71404
    endloop
  endfacet
  facet normal 0.654861 0 -0.75575
    outer loop
      vertex 9.30799 -8.4001 6.73005
      vertex 10.4436 -10 7.71404
      vertex 9.30799 -10 6.73005
    endloop
  endfacet
  facet normal 0.654861 0 -0.75575
    outer loop
      vertex 10.6707 -9.79218 7.91082
      vertex 9.30799 -8.4001 6.73005
      vertex 10.6707 -8.4001 7.91082
    endloop
  endfacet
  facet normal 0.654861 0 -0.75575
    outer loop
      vertex 9.30799 -6 6.73005
      vertex 10.6707 -4 7.91082
      vertex 10.6707 -6 7.91082
    endloop
  endfacet
  facet normal 0.654861 0 -0.75575
    outer loop
      vertex 10.6707 -4 7.91082
      vertex 9.30799 -6 6.73005
      vertex 9.30799 -4 6.73005
    endloop
  endfacet
  facet normal -8.23003e-07 -1 5.28913e-07
    outer loop
      vertex 14.0956 -4 2.5816
      vertex 15.0704 -4 4.09846
      vertex 12.4554 -4 1.83257
    endloop
  endfacet
  facet normal 0.142315 0 0.989821
    outer loop
      vertex 10.6707 -4 2.08918
      vertex 12.4554 -6 1.83257
      vertex 12.4554 -4 1.83257
    endloop
  endfacet
  facet normal 0.142315 0 0.989821
    outer loop
      vertex 12.4554 -6 1.83257
      vertex 10.6707 -4 2.08918
      vertex 10.6707 -6 2.08918
    endloop
  endfacet
  facet normal 0.142315 0 0.989821
    outer loop
      vertex 12.1918 -8.4001 1.87047
      vertex 10.6707 -8.4001 2.08918
      vertex 10.6707 -9.79218 2.08918
    endloop
  endfacet
  facet normal 0 1 0
    outer loop
      vertex 10.4436 -10 7.71404
      vertex 8.8 -10 5
      vertex 9.30799 -10 6.73005
    endloop
  endfacet
  facet normal 0 1 -0
    outer loop
      vertex 10.4436 -10 2.28596
      vertex 8.8 -10 5
      vertex 10.4436 -10 7.71404
    endloop
  endfacet
  facet normal 0 1 0
    outer loop
      vertex 8.8 -10 5
      vertex 10.4436 -10 2.28596
      vertex 9.30799 -10 3.26995
    endloop
  endfacet
  facet normal 0.654861 0 0.75575
    outer loop
      vertex 9.30799 -4 3.26995
      vertex 10.6707 -6 2.08918
      vertex 10.6707 -4 2.08918
    endloop
  endfacet
  facet normal 0.654861 0 0.75575
    outer loop
      vertex 10.6707 -6 2.08918
      vertex 9.30799 -4 3.26995
      vertex 9.30799 -6 3.26995
    endloop
  endfacet
  facet normal 0.654861 0 0.75575
    outer loop
      vertex 9.30799 -8.4001 3.26995
      vertex 10.6707 -9.79218 2.08918
      vertex 10.6707 -8.4001 2.08918
    endloop
  endfacet
  facet normal 0.654861 2.31361e-07 0.755749
    outer loop
      vertex 10.6707 -9.79218 2.08918
      vertex 9.30799 -8.4001 3.26995
      vertex 10.4436 -10 2.28596
    endloop
  endfacet
  facet normal 0.654861 0 0.75575
    outer loop
      vertex 10.4436 -10 2.28596
      vertex 9.30799 -8.4001 3.26995
      vertex 9.30799 -10 3.26995
    endloop
  endfacet
  facet normal -9.8518e-07 -1 3.79304e-07
    outer loop
      vertex 12.4554 -4 8.16743
      vertex 10.5099 -4 5
      vertex 11.5395 -4 6.41717
    endloop
  endfacet
  facet normal -9.69627e-08 -1 -7.04476e-08
    outer loop
      vertex 10.5099 -4 5
      vertex 9.30799 -4 3.26995
      vertex 11.5395 -4 3.58283
    endloop
  endfacet
  facet normal 1.09319e-06 -1 -8.97281e-07
    outer loop
      vertex 9.30799 -4 3.26995
      vertex 10.5099 -4 5
      vertex 12.4554 -4 8.16743
    endloop
  endfacet
  facet normal -3.78285e-08 -1 -1.16424e-07
    outer loop
      vertex 12.4554 -4 8.16743
      vertex 11.5395 -4 6.41717
      vertex 12.4554 -4 6.11958
    endloop
  endfacet
  facet normal 3.78285e-08 -1 -1.16424e-07
    outer loop
      vertex 11.5395 -4 3.58283
      vertex 12.4554 -4 1.83257
      vertex 12.4554 -4 3.88042
    endloop
  endfacet
  facet normal -8.17436e-08 -1 -1.78994e-07
    outer loop
      vertex 12.4554 -4 1.83257
      vertex 11.5395 -4 3.58283
      vertex 9.30799 -4 3.26995
    endloop
  endfacet
  facet normal 2.38826e-07 -1 -2.7562e-07
    outer loop
      vertex 9.30799 -4 3.26995
      vertex 10.6707 -4 7.91082
      vertex 9.30799 -4 6.73005
    endloop
  endfacet
  facet normal 3.0848e-08 -1 -2.14552e-07
    outer loop
      vertex 12.4554 -4 8.16743
      vertex 10.6707 -4 7.91082
      vertex 9.30799 -4 3.26995
    endloop
  endfacet
  facet normal -0.841253 0 -0.540641
    outer loop
      vertex 15.0704 -5.76586 5.90154
      vertex 14.0956 -4 7.4184
      vertex 15.0704 -4 5.90154
    endloop
  endfacet
  facet normal -0.841253 -4.01699e-08 -0.540641
    outer loop
      vertex 14.8145 -6 6.29966
      vertex 14.0956 -4 7.4184
      vertex 15.0704 -5.76586 5.90154
    endloop
  endfacet
  facet normal -0.841253 -0 -0.540641
    outer loop
      vertex 14.0956 -4 7.4184
      vertex 14.8145 -6 6.29966
      vertex 14.0956 -6 7.4184
    endloop
  endfacet
  facet normal -0.415415 0 -0.909632
    outer loop
      vertex 12.4554 -6 8.16743
      vertex 14.0956 -4 7.4184
      vertex 14.0956 -6 7.4184
    endloop
  endfacet
  facet normal -0.415415 0 -0.909632
    outer loop
      vertex 14.0956 -4 7.4184
      vertex 12.4554 -6 8.16743
      vertex 12.4554 -4 8.16743
    endloop
  endfacet
  facet normal 0.959493 -0 0.281733
    outer loop
      vertex 8.8 -6 5
      vertex 9.30799 -4 3.26995
      vertex 8.8 -4 5
    endloop
  endfacet
  facet normal 0.959493 0 0.281733
    outer loop
      vertex 9.30799 -4 3.26995
      vertex 8.8 -6 5
      vertex 9.30799 -6 3.26995
    endloop
  endfacet
  facet normal 0.959493 -0 0.281733
    outer loop
      vertex 8.8 -10 5
      vertex 9.30799 -8.4001 3.26995
      vertex 8.8 -8.4001 5
    endloop
  endfacet
  facet normal 0.959493 0 0.281733
    outer loop
      vertex 9.30799 -8.4001 3.26995
      vertex 8.8 -10 5
      vertex 9.30799 -10 3.26995
    endloop
  endfacet
  facet normal 9.38676e-07 -1 -2.7562e-07
    outer loop
      vertex 9.30799 -4 3.26995
      vertex 9.30799 -4 6.73005
      vertex 8.8 -4 5
    endloop
  endfacet
  facet normal -3.64698e-07 -1 0
    outer loop
      vertex 15.0704 -4 4.09846
      vertex 15.0704 -4 5.90154
      vertex 12.4554 -4 1.83257
    endloop
  endfacet
  facet normal -0.415415 0 0.909632
    outer loop
      vertex 12.4554 -4 1.83257
      vertex 14.0956 -6 2.5816
      vertex 14.0956 -4 2.5816
    endloop
  endfacet
  facet normal -0.415415 0 0.909632
    outer loop
      vertex 14.0956 -6 2.5816
      vertex 12.4554 -4 1.83257
      vertex 12.4554 -6 1.83257
    endloop
  endfacet
  facet normal -0.841253 0 0.540641
    outer loop
      vertex 14.0956 -4 2.5816
      vertex 15.0704 -5.76586 4.09846
      vertex 15.0704 -4 4.09846
    endloop
  endfacet
  facet normal -0.841253 0 0.540641
    outer loop
      vertex 14.8145 -6 3.70034
      vertex 14.0956 -4 2.5816
      vertex 14.0956 -6 2.5816
    endloop
  endfacet
  facet normal -0.841253 -4.01699e-08 0.540641
    outer loop
      vertex 14.0956 -4 2.5816
      vertex 14.8145 -6 3.70034
      vertex 15.0704 -5.76586 4.09846
    endloop
  endfacet
  facet normal -1.68015e-07 -1 -1.07977e-07
    outer loop
      vertex 13.2055 -4 4.38721
      vertex 15.0704 -4 5.90154
      vertex 14.0956 -4 7.4184
    endloop
  endfacet
  facet normal -2.55696e-07 -1 0
    outer loop
      vertex 13.2055 -4 4.12414
      vertex 15.0704 -4 5.90154
      vertex 13.2055 -4 4.38721
    endloop
  endfacet
  facet normal -8.33866e-08 -1 -1.80788e-07
    outer loop
      vertex 13.2055 -4 4.12414
      vertex 12.4554 -4 1.83257
      vertex 15.0704 -4 5.90154
    endloop
  endfacet
  facet normal 7.56565e-08 -1 -2.32848e-07
    outer loop
      vertex 12.4554 -4 1.83257
      vertex 13.2055 -4 4.12414
      vertex 13.1201 -4 4.0964
    endloop
  endfacet
  facet normal -5.31692e-08 -1 -1.16424e-07
    outer loop
      vertex 12.4554 -4 6.11958
      vertex 14.0956 -4 7.4184
      vertex 12.4554 -4 8.16743
    endloop
  endfacet
  facet normal -4.22917e-08 -1 -1.3016e-07
    outer loop
      vertex 13.2055 -4 5.87586
      vertex 14.0956 -4 7.4184
      vertex 12.4554 -4 6.11958
    endloop
  endfacet
  facet normal 9.697e-09 -1 -1.60157e-07
    outer loop
      vertex 14.0956 -4 7.4184
      vertex 13.2055 -4 5.87586
      vertex 13.2055 -4 4.38721
    endloop
  endfacet
  facet normal -3.20847e-07 -1 -1.16424e-07
    outer loop
      vertex 12.4554 -4 1.83257
      vertex 13.1201 -4 4.0964
      vertex 12.4554 -4 3.88042
    endloop
  endfacet
  facet normal 0.959493 0 -0.281733
    outer loop
      vertex 9.30799 -10 16.73
      vertex 8.8 -8.4001 15
      vertex 9.30799 -8.4001 16.73
    endloop
  endfacet
  facet normal 0.959493 0 -0.281733
    outer loop
      vertex 8.8 -8.4001 15
      vertex 9.30799 -10 16.73
      vertex 8.8 -10 15
    endloop
  endfacet
  facet normal 0.959493 0 -0.281733
    outer loop
      vertex 9.30799 -6 16.73
      vertex 8.8 -4 15
      vertex 9.30799 -4 16.73
    endloop
  endfacet
  facet normal 0.959493 0 -0.281733
    outer loop
      vertex 8.8 -4 15
      vertex 9.30799 -6 16.73
      vertex 8.8 -6 15
    endloop
  endfacet
  facet normal -1 0 0
    outer loop
      vertex 15.0704 -5.76586 14.0985
      vertex 15.0704 -4 15.9015
      vertex 15.0704 -4 14.0985
    endloop
  endfacet
  facet normal -1 -0 0
    outer loop
      vertex 15.0704 -4 15.9015
      vertex 15.0704 -5.76586 14.0985
      vertex 15.0704 -5.76586 15.9015
    endloop
  endfacet
  facet normal 0.142314 0 -0.989822
    outer loop
      vertex 10.6707 -6 17.9108
      vertex 12.4554 -4 18.1674
      vertex 12.4554 -6 18.1674
    endloop
  endfacet
  facet normal 0.142314 0 -0.989822
    outer loop
      vertex 12.4554 -4 18.1674
      vertex 10.6707 -6 17.9108
      vertex 10.6707 -4 17.9108
    endloop
  endfacet
  facet normal 0.142315 0 -0.989821
    outer loop
      vertex 10.6707 -8.4001 17.9108
      vertex 12.1918 -8.4001 18.1295
      vertex 10.6707 -9.79218 17.9108
    endloop
  endfacet
  facet normal 0.654861 7.77628e-07 -0.755749
    outer loop
      vertex 9.30799 -8.4001 16.73
      vertex 10.6707 -9.79218 17.9108
      vertex 10.4436 -10 17.714
    endloop
  endfacet
  facet normal 0.654861 0 -0.755749
    outer loop
      vertex 9.30799 -8.4001 16.73
      vertex 10.4436 -10 17.714
      vertex 9.30799 -10 16.73
    endloop
  endfacet
  facet normal 0.654861 0 -0.755749
    outer loop
      vertex 10.6707 -9.79218 17.9108
      vertex 9.30799 -8.4001 16.73
      vertex 10.6707 -8.4001 17.9108
    endloop
  endfacet
  facet normal 0.654861 0 -0.755749
    outer loop
      vertex 9.30799 -6 16.73
      vertex 10.6707 -4 17.9108
      vertex 10.6707 -6 17.9108
    endloop
  endfacet
  facet normal 0.654861 0 -0.755749
    outer loop
      vertex 10.6707 -4 17.9108
      vertex 9.30799 -6 16.73
      vertex 9.30799 -4 16.73
    endloop
  endfacet
  facet normal -3.64698e-07 -1 0
    outer loop
      vertex 15.0704 -4 14.0985
      vertex 15.0704 -4 15.9015
      vertex 12.4554 -4 11.8326
    endloop
  endfacet
  facet normal 0.142315 0 0.989821
    outer loop
      vertex 10.6707 -4 12.0892
      vertex 12.4554 -6 11.8326
      vertex 12.4554 -4 11.8326
    endloop
  endfacet
  facet normal 0.142315 0 0.989821
    outer loop
      vertex 12.4554 -6 11.8326
      vertex 10.6707 -4 12.0892
      vertex 10.6707 -6 12.0892
    endloop
  endfacet
  facet normal 0.142315 0 0.989821
    outer loop
      vertex 12.1918 -8.4001 11.8705
      vertex 10.6707 -8.4001 12.0892
      vertex 10.6707 -9.79218 12.0892
    endloop
  endfacet
  facet normal -5.31691e-08 -1 -1.16424e-07
    outer loop
      vertex 12.4554 -4 16.1196
      vertex 14.0956 -4 17.4184
      vertex 12.4554 -4 18.1674
    endloop
  endfacet
  facet normal -4.22916e-08 -1 -1.3016e-07
    outer loop
      vertex 13.2055 -4 15.8759
      vertex 14.0956 -4 17.4184
      vertex 12.4554 -4 16.1196
    endloop
  endfacet
  facet normal 9.69691e-09 -1 -1.60157e-07
    outer loop
      vertex 14.0956 -4 17.4184
      vertex 13.2055 -4 15.8759
      vertex 13.2055 -4 14.3872
    endloop
  endfacet
  facet normal -3.20848e-07 -1 -1.16424e-07
    outer loop
      vertex 12.4554 -4 11.8326
      vertex 13.1201 -4 14.0964
      vertex 12.4554 -4 13.8804
    endloop
  endfacet
  facet normal 2.38827e-07 -1 -2.7562e-07
    outer loop
      vertex 9.30799 -4 13.2699
      vertex 10.6707 -4 17.9108
      vertex 9.30799 -4 16.73
    endloop
  endfacet
  facet normal 0 1 0
    outer loop
      vertex 10.4436 -10 17.714
      vertex 8.8 -10 15
      vertex 9.30799 -10 16.73
    endloop
  endfacet
  facet normal 0 1 -0
    outer loop
      vertex 10.4436 -10 12.286
      vertex 8.8 -10 15
      vertex 10.4436 -10 17.714
    endloop
  endfacet
  facet normal 0 1 0
    outer loop
      vertex 8.8 -10 15
      vertex 10.4436 -10 12.286
      vertex 9.30799 -10 13.2699
    endloop
  endfacet
  facet normal 0.654861 0 0.75575
    outer loop
      vertex 9.30799 -8.4001 13.2699
      vertex 10.6707 -9.79218 12.0892
      vertex 10.6707 -8.4001 12.0892
    endloop
  endfacet
  facet normal 0.654861 1.05073e-06 0.755749
    outer loop
      vertex 10.6707 -9.79218 12.0892
      vertex 9.30799 -8.4001 13.2699
      vertex 10.4436 -10 12.286
    endloop
  endfacet
  facet normal 0.654861 0 0.75575
    outer loop
      vertex 10.4436 -10 12.286
      vertex 9.30799 -8.4001 13.2699
      vertex 9.30799 -10 13.2699
    endloop
  endfacet
  facet normal 0.654861 0 0.75575
    outer loop
      vertex 9.30799 -4 13.2699
      vertex 10.6707 -6 12.0892
      vertex 10.6707 -4 12.0892
    endloop
  endfacet
  facet normal 0.654861 0 0.75575
    outer loop
      vertex 10.6707 -6 12.0892
      vertex 9.30799 -4 13.2699
      vertex 9.30799 -6 13.2699
    endloop
  endfacet
  facet normal 9.38676e-07 -1 -2.7562e-07
    outer loop
      vertex 9.30799 -4 13.2699
      vertex 9.30799 -4 16.73
      vertex 8.8 -4 15
    endloop
  endfacet
  facet normal -0.841253 0 0.540641
    outer loop
      vertex 14.0956 -4 12.5816
      vertex 15.0704 -5.76586 14.0985
      vertex 15.0704 -4 14.0985
    endloop
  endfacet
  facet normal -0.841253 0 0.540641
    outer loop
      vertex 14.8145 -6 13.7003
      vertex 14.0956 -4 12.5816
      vertex 14.0956 -6 12.5816
    endloop
  endfacet
  facet normal -0.841254 -4.09716e-07 0.540641
    outer loop
      vertex 14.0956 -4 12.5816
      vertex 14.8145 -6 13.7003
      vertex 15.0704 -5.76586 14.0985
    endloop
  endfacet
  facet normal 0 -1 0
    outer loop
      vertex 10.6707 -4 12.0892
      vertex 12.4554 -4 11.8326
      vertex 9.30799 -4 13.2699
    endloop
  endfacet
  facet normal -8.23003e-07 -1 5.28913e-07
    outer loop
      vertex 14.0956 -4 12.5816
      vertex 15.0704 -4 14.0985
      vertex 12.4554 -4 11.8326
    endloop
  endfacet
  facet normal -0.415415 0 -0.909632
    outer loop
      vertex 12.4554 -6 18.1674
      vertex 14.0956 -4 17.4184
      vertex 14.0956 -6 17.4184
    endloop
  endfacet
  facet normal -0.415415 0 -0.909632
    outer loop
      vertex 14.0956 -4 17.4184
      vertex 12.4554 -6 18.1674
      vertex 12.4554 -4 18.1674
    endloop
  endfacet
  facet normal 0.959493 -0 0.281733
    outer loop
      vertex 8.8 -6 15
      vertex 9.30799 -4 13.2699
      vertex 8.8 -4 15
    endloop
  endfacet
  facet normal 0.959493 0 0.281733
    outer loop
      vertex 9.30799 -4 13.2699
      vertex 8.8 -6 15
      vertex 9.30799 -6 13.2699
    endloop
  endfacet
  facet normal 0.959493 -0 0.281733
    outer loop
      vertex 8.8 -10 15
      vertex 9.30799 -8.4001 13.2699
      vertex 8.8 -8.4001 15
    endloop
  endfacet
  facet normal 0.959493 0 0.281733
    outer loop
      vertex 9.30799 -8.4001 13.2699
      vertex 8.8 -10 15
      vertex 9.30799 -10 13.2699
    endloop
  endfacet
  facet normal 3.08478e-08 -1 -2.14552e-07
    outer loop
      vertex 12.4554 -4 18.1674
      vertex 10.6707 -4 17.9108
      vertex 9.30799 -4 13.2699
    endloop
  endfacet
  facet normal -9.85178e-07 -1 3.79303e-07
    outer loop
      vertex 12.4554 -4 18.1674
      vertex 10.5099 -4 15
      vertex 11.5395 -4 16.4172
    endloop
  endfacet
  facet normal -9.69627e-08 -1 -7.04476e-08
    outer loop
      vertex 10.5099 -4 15
      vertex 9.30799 -4 13.2699
      vertex 11.5395 -4 13.5828
    endloop
  endfacet
  facet normal 1.0932e-06 -1 -8.97284e-07
    outer loop
      vertex 9.30799 -4 13.2699
      vertex 10.5099 -4 15
      vertex 12.4554 -4 18.1674
    endloop
  endfacet
  facet normal -3.78284e-08 -1 -1.16424e-07
    outer loop
      vertex 12.4554 -4 18.1674
      vertex 11.5395 -4 16.4172
      vertex 12.4554 -4 16.1196
    endloop
  endfacet
  facet normal 3.78285e-08 -1 -1.16424e-07
    outer loop
      vertex 11.5395 -4 13.5828
      vertex 12.4554 -4 11.8326
      vertex 12.4554 -4 13.8804
    endloop
  endfacet
  facet normal -8.17436e-08 -1 -1.78994e-07
    outer loop
      vertex 12.4554 -4 11.8326
      vertex 11.5395 -4 13.5828
      vertex 9.30799 -4 13.2699
    endloop
  endfacet
  facet normal -1.68015e-07 -1 -1.07977e-07
    outer loop
      vertex 13.2055 -4 14.3872
      vertex 15.0704 -4 15.9015
      vertex 14.0956 -4 17.4184
    endloop
  endfacet
  facet normal -2.55696e-07 -1 0
    outer loop
      vertex 13.2055 -4 14.1241
      vertex 15.0704 -4 15.9015
      vertex 13.2055 -4 14.3872
    endloop
  endfacet
  facet normal -8.33866e-08 -1 -1.80788e-07
    outer loop
      vertex 13.2055 -4 14.1241
      vertex 12.4554 -4 11.8326
      vertex 15.0704 -4 15.9015
    endloop
  endfacet
  facet normal 7.5658e-08 -1 -2.32849e-07
    outer loop
      vertex 12.4554 -4 11.8326
      vertex 13.2055 -4 14.1241
      vertex 13.1201 -4 14.0964
    endloop
  endfacet
  facet normal -0.415415 0 0.909632
    outer loop
      vertex 12.4554 -4 11.8326
      vertex 14.0956 -6 12.5816
      vertex 14.0956 -4 12.5816
    endloop
  endfacet
  facet normal -0.415415 0 0.909632
    outer loop
      vertex 14.0956 -6 12.5816
      vertex 12.4554 -4 11.8326
      vertex 12.4554 -6 11.8326
    endloop
  endfacet
  facet normal -0.841253 0 -0.540641
    outer loop
      vertex 15.0704 -5.76586 15.9015
      vertex 14.0956 -4 17.4184
      vertex 15.0704 -4 15.9015
    endloop
  endfacet
  facet normal -0.841253 3.29377e-07 -0.540641
    outer loop
      vertex 14.8145 -6 16.2997
      vertex 14.0956 -4 17.4184
      vertex 15.0704 -5.76586 15.9015
    endloop
  endfacet
  facet normal -0.841253 -0 -0.540641
    outer loop
      vertex 14.0956 -4 17.4184
      vertex 14.8145 -6 16.2997
      vertex 14.0956 -6 17.4184
    endloop
  endfacet
  facet normal 0 0 -1
    outer loop
      vertex 5.73484 -3.68528 0
      vertex 17 -4 0
      vertex 8.00739 -12.2294 0
    endloop
  endfacet
  facet normal 0 0 -1
    outer loop
      vertex 17 -4 0
      vertex 6.6749 -1.9482 0
      vertex 17 0 0
    endloop
  endfacet
  facet normal -0 0 -1
    outer loop
      vertex 17 0 0
      vertex 6.6749 -1.9482 0
      vertex 7 0 0
    endloop
  endfacet
  facet normal 0 0 -1
    outer loop
      vertex 4.5 -12.5981 0
      vertex 8.00739 -12.2294 0
      vertex 6.31359 -12.9836 0
    endloop
  endfacet
  facet normal 0 0 -1
    outer loop
      vertex 17 -4 0
      vertex 5.73484 -3.68528 0
      vertex 6.6749 -1.9482 0
    endloop
  endfacet
  facet normal -0 0 -1
    outer loop
      vertex 8.00739 -12.2294 0
      vertex 4.5 -12.5981 0
      vertex 4.28169 -5.023 0
    endloop
  endfacet
  facet normal 0 0 -1
    outer loop
      vertex 8.00739 -12.2294 0
      vertex 4.28169 -5.023 0
      vertex 5.73484 -3.68528 0
    endloop
  endfacet
  facet normal 0 0 -1
    outer loop
      vertex 4.5 -12.5981 0
      vertex 2.47291 -5.8164 0
      vertex 4.28169 -5.023 0
    endloop
  endfacet
  facet normal 0 0 -1
    outer loop
      vertex 4.5 -12.5981 0
      vertex 0.504523 -5.97951 0
      vertex 2.47291 -5.8164 0
    endloop
  endfacet
  facet normal 0 0 -1
    outer loop
      vertex -3.03109 -8.9 0
      vertex 0.504523 -5.97951 0
      vertex 4.5 -12.5981 0
    endloop
  endfacet
  facet normal -0 0 -1
    outer loop
      vertex 0.504523 -5.97951 0
      vertex -3.03109 -8.9 0
      vertex -1.41017 -5.49464 0
    endloop
  endfacet
  facet normal 0 0 -1
    outer loop
      vertex -4.78109 -5.86891 0
      vertex -1.41017 -5.49464 0
      vertex -3.03109 -8.9 0
    endloop
  endfacet
  facet normal -0 0 -1
    outer loop
      vertex -1.41017 -5.49464 0
      vertex -4.78109 -5.86891 0
      vertex -2.72533 -4.6354 0
    endloop
  endfacet
  facet normal -0.866025 -0.5 0
    outer loop
      vertex -3.03109 -8.9 0
      vertex -4.78109 -5.86891 20
      vertex -4.78109 -5.86891 0
    endloop
  endfacet
  facet normal -0.866025 -0.5 0
    outer loop
      vertex -4.78109 -5.86891 20
      vertex -3.03109 -8.9 0
      vertex -3.03109 -8.9 20
    endloop
  endfacet
  facet normal 0 1 0
    outer loop
      vertex 17 0 20
      vertex 11.5395 0 16.4172
      vertex 7 0 20
    endloop
  endfacet
  facet normal 0 1 0
    outer loop
      vertex 17 0 20
      vertex 13.2055 0 15.8759
      vertex 11.5395 0 16.4172
    endloop
  endfacet
  facet normal 0 1 0
    outer loop
      vertex 17 0 20
      vertex 13.2055 0 14.1241
      vertex 13.2055 0 15.8759
    endloop
  endfacet
  facet normal 0 1 0
    outer loop
      vertex 13.2055 0 14.1241
      vertex 11.5395 0 6.41717
      vertex 11.5395 0 13.5828
    endloop
  endfacet
  facet normal 0 1 0
    outer loop
      vertex 13.2055 0 5.87586
      vertex 13.2055 0 14.1241
      vertex 17 0 20
    endloop
  endfacet
  facet normal 0 1 0
    outer loop
      vertex 13.2055 0 14.1241
      vertex 13.2055 0 5.87586
      vertex 11.5395 0 6.41717
    endloop
  endfacet
  facet normal 0 1 -0
    outer loop
      vertex 17 0 0
      vertex 13.2055 0 5.87586
      vertex 17 0 20
    endloop
  endfacet
  facet normal 0 1 0
    outer loop
      vertex 13.2055 0 4.12414
      vertex 17 0 0
      vertex 11.5395 0 3.58283
    endloop
  endfacet
  facet normal 0 1 0
    outer loop
      vertex 13.2055 0 5.87586
      vertex 17 0 0
      vertex 13.2055 0 4.12414
    endloop
  endfacet
  facet normal 0 1 -0
    outer loop
      vertex 10.5099 0 15
      vertex 7 0 20
      vertex 11.5395 0 16.4172
    endloop
  endfacet
  facet normal 0 1 -0
    outer loop
      vertex 11.5395 0 6.41717
      vertex 10.5099 0 15
      vertex 11.5395 0 13.5828
    endloop
  endfacet
  facet normal 0 1 0
    outer loop
      vertex 10.5099 0 5
      vertex 10.5099 0 15
      vertex 11.5395 0 6.41717
    endloop
  endfacet
  facet normal 0 1 0
    outer loop
      vertex 10.5099 0 15
      vertex 10.5099 0 5
      vertex 7 0 20
    endloop
  endfacet
  facet normal 0 1 0
    outer loop
      vertex 10.5099 0 5
      vertex 7 0 0
      vertex 7 0 20
    endloop
  endfacet
  facet normal 0 1 0
    outer loop
      vertex 11.5395 0 3.58283
      vertex 7 0 0
      vertex 10.5099 0 5
    endloop
  endfacet
  facet normal 0 1 0
    outer loop
      vertex 7 0 0
      vertex 11.5395 0 3.58283
      vertex 17 0 0
    endloop
  endfacet
  facet normal -0.514512 0.857483 0
    outer loop
      vertex -2.72533 -4.6354 0
      vertex -4.78109 -5.86891 20
      vertex -2.72533 -4.6354 20
    endloop
  endfacet
  facet normal -0.514512 0.857483 0
    outer loop
      vertex -4.78109 -5.86891 20
      vertex -2.72533 -4.6354 0
      vertex -4.78109 -5.86891 0
    endloop
  endfacet
  facet normal 1 -0 0
    outer loop
      vertex 17 -4 20
      vertex 17 0 0
      vertex 17 0 20
    endloop
  endfacet
  facet normal 1 0 0
    outer loop
      vertex 17 0 0
      vertex 17 -4 20
      vertex 17 -4 0
    endloop
  endfacet
  facet normal -0.440769 -0.897621 0
    outer loop
      vertex -3.03109 -8.9 0
      vertex 4.5 -12.5981 20
      vertex -3.03109 -8.9 20
    endloop
  endfacet
  facet normal -0.440769 -0.897621 -0
    outer loop
      vertex 4.5 -12.5981 20
      vertex -3.03109 -8.9 0
      vertex 4.5 -12.5981 0
    endloop
  endfacet
  facet normal -0 0 1
    outer loop
      vertex 6.6749 -1.9482 20
      vertex 17 -4 20
      vertex 17 0 20
    endloop
  endfacet
  facet normal 0 0 1
    outer loop
      vertex 6.6749 -1.9482 20
      vertex 17 0 20
      vertex 7 0 20
    endloop
  endfacet
  facet normal -0 0 1
    outer loop
      vertex 5.73484 -3.68528 20
      vertex 17 -4 20
      vertex 6.6749 -1.9482 20
    endloop
  endfacet
  facet normal 0 0 1
    outer loop
      vertex 17 -4 20
      vertex 5.73484 -3.68528 20
      vertex 8.00739 -12.2294 20
    endloop
  endfacet
  facet normal -0 0 1
    outer loop
      vertex 4.28169 -5.023 20
      vertex 8.00739 -12.2294 20
      vertex 5.73484 -3.68528 20
    endloop
  endfacet
  facet normal 0 -0 1
    outer loop
      vertex 4.5 -12.5981 20
      vertex 8.00739 -12.2294 20
      vertex 4.28169 -5.023 20
    endloop
  endfacet
  facet normal 0 0 1
    outer loop
      vertex 8.00739 -12.2294 20
      vertex 4.5 -12.5981 20
      vertex 6.31359 -12.9836 20
    endloop
  endfacet
  facet normal -0 0 1
    outer loop
      vertex 2.47291 -5.8164 20
      vertex 4.5 -12.5981 20
      vertex 4.28169 -5.023 20
    endloop
  endfacet
  facet normal -0 0 1
    outer loop
      vertex 0.504523 -5.97951 20
      vertex 4.5 -12.5981 20
      vertex 2.47291 -5.8164 20
    endloop
  endfacet
  facet normal 0 0 1
    outer loop
      vertex -3.03109 -8.9 20
      vertex 0.504523 -5.97951 20
      vertex -1.41017 -5.49464 20
    endloop
  endfacet
  facet normal 0 0 1
    outer loop
      vertex -4.78109 -5.86891 20
      vertex -1.41017 -5.49464 20
      vertex -2.72533 -4.6354 20
    endloop
  endfacet
  facet normal 0 0 1
    outer loop
      vertex 0.504523 -5.97951 20
      vertex -3.03109 -8.9 20
      vertex 4.5 -12.5981 20
    endloop
  endfacet
  facet normal 0 0 1
    outer loop
      vertex -1.41017 -5.49464 20
      vertex -4.78109 -5.86891 20
      vertex -3.03109 -8.9 20
    endloop
  endfacet
  facet normal -0.207912 -0.978148 0
    outer loop
      vertex 4.5 -12.5981 0
      vertex 6.31359 -12.9836 20
      vertex 4.5 -12.5981 20
    endloop
  endfacet
  facet normal -0.207912 -0.978148 -0
    outer loop
      vertex 6.31359 -12.9836 20
      vertex 4.5 -12.5981 0
      vertex 6.31359 -12.9836 0
    endloop
  endfacet
  facet normal 0.67511 -0.737717 1.45322e-07
    outer loop
      vertex 8.00739 -12.2294 20
      vertex 12.4554 -8.15889 18.1675
      vertex 17 -4 20
    endloop
  endfacet
  facet normal 0.675109 -0.737718 -3.01899e-06
    outer loop
      vertex 8.00739 -12.2294 20
      vertex 12.1918 -8.4001 18.1296
      vertex 12.4554 -8.15889 18.1675
    endloop
  endfacet
  facet normal 0.67511 -0.737717 3.17627e-07
    outer loop
      vertex 10.6707 -9.79218 17.9108
      vertex 12.1918 -8.4001 18.1296
      vertex 8.00739 -12.2294 20
    endloop
  endfacet
  facet normal 0.67511 -0.737717 0
    outer loop
      vertex 12.1918 -8.4001 18.1296
      vertex 10.6707 -9.79218 17.9108
      vertex 12.1918 -8.4001 18.1295
    endloop
  endfacet
  facet normal 0.67511 -0.737717 7.40725e-08
    outer loop
      vertex 8.00739 -12.2294 20
      vertex 10.4436 -10 17.714
      vertex 10.6707 -9.79218 17.9108
    endloop
  endfacet
  facet normal 0.67511 -0.737717 0
    outer loop
      vertex 8.00739 -12.2294 20
      vertex 10.4436 -10 12.286
      vertex 10.4436 -10 17.714
    endloop
  endfacet
  facet normal 0.67511 -0.737717 0
    outer loop
      vertex 10.6707 -9.79218 12.0892
      vertex 12.1918 -8.4001 11.8704
      vertex 12.1918 -8.4001 11.8705
    endloop
  endfacet
  facet normal 0.675109 -0.737718 0
    outer loop
      vertex 12.1918 -8.4001 11.8704
      vertex 12.4554 -8.15889 8.16753
      vertex 12.4554 -8.15889 11.8325
    endloop
  endfacet
  facet normal 0.67511 -0.737717 0
    outer loop
      vertex 12.1918 -8.4001 8.12963
      vertex 12.1918 -8.4001 11.8704
      vertex 10.6707 -9.79218 12.0892
    endloop
  endfacet
  facet normal 0.67511 -0.737717 0
    outer loop
      vertex 10.6707 -9.79218 7.91082
      vertex 10.6707 -9.79218 12.0892
      vertex 10.4436 -10 12.286
    endloop
  endfacet
  facet normal 0.675109 -0.737718 0
    outer loop
      vertex 12.1918 -8.4001 11.8704
      vertex 12.1918 -8.4001 8.12963
      vertex 12.4554 -8.15889 8.16753
    endloop
  endfacet
  facet normal 0.67511 -0.737717 0
    outer loop
      vertex 10.6707 -9.79218 12.0892
      vertex 10.6707 -9.79218 7.91082
      vertex 12.1918 -8.4001 8.12963
    endloop
  endfacet
  facet normal 0.67511 -0.737717 0
    outer loop
      vertex 12.1918 -8.4001 8.12963
      vertex 10.6707 -9.79218 7.91082
      vertex 12.1918 -8.4001 8.12953
    endloop
  endfacet
  facet normal 0.67511 -0.737717 0
    outer loop
      vertex 10.4436 -10 7.71404
      vertex 10.4436 -10 12.286
      vertex 8.00739 -12.2294 20
    endloop
  endfacet
  facet normal 0.67511 -0.737717 0
    outer loop
      vertex 10.4436 -10 12.286
      vertex 10.4436 -10 7.71404
      vertex 10.6707 -9.79218 7.91082
    endloop
  endfacet
  facet normal 0.67511 -0.737717 0
    outer loop
      vertex 8.00739 -12.2294 0
      vertex 10.4436 -10 7.71404
      vertex 8.00739 -12.2294 20
    endloop
  endfacet
  facet normal 0.67511 -0.737717 0
    outer loop
      vertex 10.6707 -9.79218 2.08918
      vertex 12.1918 -8.4001 1.87037
      vertex 12.1918 -8.4001 1.87047
    endloop
  endfacet
  facet normal 0.675109 -0.737718 3.01896e-06
    outer loop
      vertex 12.1918 -8.4001 1.87037
      vertex 8.00739 -12.2294 0
      vertex 12.4554 -8.15889 1.83247
    endloop
  endfacet
  facet normal 0.67511 -0.737717 -3.17627e-07
    outer loop
      vertex 10.6707 -9.79218 2.08918
      vertex 8.00739 -12.2294 0
      vertex 12.1918 -8.4001 1.87037
    endloop
  endfacet
  facet normal 0.67511 -0.737717 -7.40726e-08
    outer loop
      vertex 10.4436 -10 2.28596
      vertex 8.00739 -12.2294 0
      vertex 10.6707 -9.79218 2.08918
    endloop
  endfacet
  facet normal 0.67511 -0.737717 0
    outer loop
      vertex 10.4436 -10 7.71404
      vertex 8.00739 -12.2294 0
      vertex 10.4436 -10 2.28596
    endloop
  endfacet
  facet normal 0.67511 -0.737717 -4.93872e-08
    outer loop
      vertex 14.0956 -6.6579 17.4185
      vertex 17 -4 20
      vertex 12.4554 -8.15889 18.1675
    endloop
  endfacet
  facet normal 0.67511 -0.737717 -9.41753e-09
    outer loop
      vertex 14.8145 -6 16.2998
      vertex 17 -4 20
      vertex 14.0956 -6.6579 17.4185
    endloop
  endfacet
  facet normal 0.67511 -0.737717 0
    outer loop
      vertex 15.0704 -5.76586 15.9015
      vertex 14.8145 -6 16.2998
      vertex 14.8145 -6 16.2997
    endloop
  endfacet
  facet normal 0.67511 -0.737717 -7.35039e-08
    outer loop
      vertex 14.8145 -6 16.2998
      vertex 15.0704 -5.76586 15.9015
      vertex 17 -4 20
    endloop
  endfacet
  facet normal 0.67511 -0.737717 0
    outer loop
      vertex 15.0704 -5.76586 14.0985
      vertex 17 -4 20
      vertex 15.0704 -5.76586 15.9015
    endloop
  endfacet
  facet normal 0.67511 -0.737717 0
    outer loop
      vertex 14.8145 -6 13.7002
      vertex 15.0704 -5.76586 14.0985
      vertex 14.8145 -6 13.7003
    endloop
  endfacet
  facet normal 0.67511 -0.737717 0
    outer loop
      vertex 12.4554 -8.15889 8.16753
      vertex 14.0956 -6.6579 12.5815
      vertex 12.4554 -8.15889 11.8325
    endloop
  endfacet
  facet normal 0.67511 -0.737717 0
    outer loop
      vertex 14.0956 -6.6579 7.41847
      vertex 14.0956 -6.6579 12.5815
      vertex 12.4554 -8.15889 8.16753
    endloop
  endfacet
  facet normal 0.67511 -0.737717 0
    outer loop
      vertex 14.0956 -6.6579 12.5815
      vertex 14.0956 -6.6579 7.41847
      vertex 14.8145 -6 13.7002
    endloop
  endfacet
  facet normal 0.67511 -0.737717 0
    outer loop
      vertex 14.8145 -6 6.29983
      vertex 14.8145 -6 13.7002
      vertex 14.0956 -6.6579 7.41847
    endloop
  endfacet
  facet normal 0.67511 -0.737717 0
    outer loop
      vertex 14.8145 -6 13.7002
      vertex 14.8145 -6 6.29983
      vertex 15.0704 -5.76586 14.0985
    endloop
  endfacet
  facet normal 0.67511 -0.737717 0
    outer loop
      vertex 15.0704 -5.76586 5.90154
      vertex 15.0704 -5.76586 14.0985
      vertex 14.8145 -6 6.29983
    endloop
  endfacet
  facet normal 0.67511 -0.737717 0
    outer loop
      vertex 15.0704 -5.76586 5.90154
      vertex 14.8145 -6 6.29983
      vertex 14.8145 -6 6.29966
    endloop
  endfacet
  facet normal 0.67511 -0.737717 0
    outer loop
      vertex 15.0704 -5.76586 14.0985
      vertex 15.0704 -5.76586 5.90154
      vertex 17 -4 20
    endloop
  endfacet
  facet normal 0.67511 -0.737717 0
    outer loop
      vertex 17 -4 0
      vertex 15.0704 -5.76586 5.90154
      vertex 15.0704 -5.76586 4.09846
    endloop
  endfacet
  facet normal 0.67511 -0.737717 0
    outer loop
      vertex 14.8145 -6 3.70017
      vertex 15.0704 -5.76586 4.09846
      vertex 14.8145 -6 3.70034
    endloop
  endfacet
  facet normal 0.67511 -0.737717 0
    outer loop
      vertex 15.0704 -5.76586 5.90154
      vertex 17 -4 0
      vertex 17 -4 20
    endloop
  endfacet
  facet normal 0.67511 -0.737717 7.3504e-08
    outer loop
      vertex 14.8145 -6 3.70017
      vertex 17 -4 0
      vertex 15.0704 -5.76586 4.09846
    endloop
  endfacet
  facet normal 0.67511 -0.737717 9.41753e-09
    outer loop
      vertex 14.0956 -6.6579 2.58153
      vertex 17 -4 0
      vertex 14.8145 -6 3.70017
    endloop
  endfacet
  facet normal 0.67511 -0.737717 4.93872e-08
    outer loop
      vertex 12.4554 -8.15889 1.83247
      vertex 17 -4 0
      vertex 14.0956 -6.6579 2.58153
    endloop
  endfacet
  facet normal 0.67511 -0.737717 -1.45322e-07
    outer loop
      vertex 17 -4 0
      vertex 12.4554 -8.15889 1.83247
      vertex 8.00739 -12.2294 0
    endloop
  endfacet
  facet normal 0.406737 -0.913545 0
    outer loop
      vertex 6.31359 -12.9836 0
      vertex 8.00739 -12.2294 20
      vertex 6.31359 -12.9836 20
    endloop
  endfacet
  facet normal 0.406737 -0.913545 0
    outer loop
      vertex 8.00739 -12.2294 20
      vertex 6.31359 -12.9836 0
      vertex 8.00739 -12.2294 0
    endloop
  endfacet
endsolid OpenSCAD_Model
