  0
SECTION
  2
BLOCKS
  0
ENDSEC
  0
SECTION
  2
ENTITIES
  0
LINE
  8
0
 10
-10.6786
 20
-31.5421
 11
-10.358
 21
-31.5184
  0
LINE
  8
0
 10
-10.358
 20
-31.5184
 11
-10.0389
 21
-31.4791
  0
LINE
  8
0
 10
-10.0389
 20
-31.4791
 11
-9.72215
 21
-31.4241
  0
LINE
  8
0
 10
-9.72215
 20
-31.4241
 11
-9.40848
 21
-31.3537
  0
LINE
  8
0
 10
-9.40848
 20
-31.3537
 11
-9.09863
 21
-31.268
  0
LINE
  8
0
 10
-9.09863
 20
-31.268
 11
-8.79337
 21
-31.1671
  0
LINE
  8
0
 10
-8.79337
 20
-31.1671
 11
-8.49342
 21
-31.0514
  0
LINE
  8
0
 10
-8.49342
 20
-31.0514
 11
-8.19951
 21
-30.9211
  0
LINE
  8
0
 10
-8.19951
 20
-30.9211
 11
-7.91234
 21
-30.7766
  0
LINE
  8
0
 10
-7.91234
 20
-30.7766
 11
-7.63261
 21
-30.6181
  0
LINE
  8
0
 10
-7.63261
 20
-30.6181
 11
-7.36101
 21
-30.4461
  0
LINE
  8
0
 10
-7.36101
 20
-30.4461
 11
-7.09816
 21
-30.261
  0
LINE
  8
0
 10
-7.09816
 20
-30.261
 11
-6.84471
 21
-30.0632
  0
LINE
  8
0
 10
-6.84471
 20
-30.0632
 11
-6.60129
 21
-29.8532
  0
LINE
  8
0
 10
-6.60129
 20
-29.8532
 11
-6.36844
 21
-29.6315
  0
LINE
  8
0
 10
-6.36844
 20
-29.6315
 11
-6.14676
 21
-29.3987
  0
LINE
  8
0
 10
-6.14676
 20
-29.3987
 11
-5.93677
 21
-29.1553
  0
LINE
  8
0
 10
-5.93677
 20
-29.1553
 11
-5.73898
 21
-28.9018
  0
LINE
  8
0
 10
-5.73898
 20
-28.9018
 11
-5.55386
 21
-28.639
  0
LINE
  8
0
 10
-5.55386
 20
-28.639
 11
-5.38187
 21
-28.3674
  0
LINE
  8
0
 10
-5.38187
 20
-28.3674
 11
-5.2234
 21
-28.0876
  0
LINE
  8
0
 10
-5.2234
 20
-28.0876
 11
-5.07886
 21
-27.8005
  0
LINE
  8
0
 10
-5.07886
 20
-27.8005
 11
-4.94858
 21
-27.5066
  0
LINE
  8
0
 10
-4.94858
 20
-27.5066
 11
-4.83289
 21
-27.2066
  0
LINE
  8
0
 10
-4.83289
 20
-27.2066
 11
-4.73204
 21
-26.9014
  0
LINE
  8
0
 10
-4.73204
 20
-26.9014
 11
-4.64629
 21
-26.5915
  0
LINE
  8
0
 10
-4.64629
 20
-26.5915
 11
-4.57585
 21
-26.2778
  0
LINE
  8
0
 10
-4.57585
 20
-26.2778
 11
-4.52089
 21
-25.9611
  0
LINE
  8
0
 10
-4.52089
 20
-25.9611
 11
-4.48154
 21
-25.642
  0
LINE
  8
0
 10
-4.48154
 20
-25.642
 11
-4.45789
 21
-25.3214
  0
LINE
  8
0
 10
-4.45789
 20
-25.3214
 11
-4.45355
 21
-25.145
  0
LINE
  8
0
 10
-4.45355
 20
-25.145
 11
20.7862
 21
-25.145
  0
LINE
  8
0
 10
20.7862
 20
-25.145
 11
20.8179
 21
-25.1817
  0
LINE
  8
0
 10
20.8179
 20
-25.1817
 11
21.0717
 21
-25.4483
  0
LINE
  8
0
 10
21.0717
 20
-25.4483
 11
21.3383
 21
-25.7021
  0
LINE
  8
0
 10
21.3383
 20
-25.7021
 11
21.6171
 21
-25.9426
  0
LINE
  8
0
 10
21.6171
 20
-25.9426
 11
21.9072
 21
-26.1691
  0
LINE
  8
0
 10
21.9072
 20
-26.1691
 11
22.2082
 21
-26.381
  0
LINE
  8
0
 10
22.2082
 20
-26.381
 11
22.5192
 21
-26.578
  0
LINE
  8
0
 10
22.5192
 20
-26.578
 11
22.8395
 21
-26.7594
  0
LINE
  8
0
 10
22.8395
 20
-26.7594
 11
23.1683
 21
-26.9249
  0
LINE
  8
0
 10
23.1683
 20
-26.9249
 11
23.5049
 21
-27.0741
  0
LINE
  8
0
 10
23.5049
 20
-27.0741
 11
23.8483
 21
-27.2066
  0
LINE
  8
0
 10
23.8483
 20
-27.2066
 11
24.1979
 21
-27.3221
  0
LINE
  8
0
 10
24.1979
 20
-27.3221
 11
24.5526
 21
-27.4202
  0
LINE
  8
0
 10
24.5526
 20
-27.4202
 11
24.9118
 21
-27.5009
  0
LINE
  8
0
 10
24.9118
 20
-27.5009
 11
25.2745
 21
-27.5638
  0
LINE
  8
0
 10
25.2745
 20
-27.5638
 11
25.6399
 21
-27.6089
  0
LINE
  8
0
 10
25.6399
 20
-27.6089
 11
26.007
 21
-27.636
  0
LINE
  8
0
 10
26.007
 20
-27.636
 11
26.375
 21
-27.645
  0
LINE
  8
0
 10
26.375
 20
-27.645
 11
26.743
 21
-27.636
  0
LINE
  8
0
 10
26.743
 20
-27.636
 11
27.1101
 21
-27.6089
  0
LINE
  8
0
 10
27.1101
 20
-27.6089
 11
27.4755
 21
-27.5638
  0
LINE
  8
0
 10
27.4755
 20
-27.5638
 11
27.8382
 21
-27.5009
  0
LINE
  8
0
 10
27.8382
 20
-27.5009
 11
28.1973
 21
-27.4202
  0
LINE
  8
0
 10
28.1973
 20
-27.4202
 11
28.5521
 21
-27.3221
  0
LINE
  8
0
 10
28.5521
 20
-27.3221
 11
28.9017
 21
-27.2066
  0
LINE
  8
0
 10
28.9017
 20
-27.2066
 11
29.2451
 21
-27.0741
  0
LINE
  8
0
 10
29.2451
 20
-27.0741
 11
29.5816
 21
-26.9249
  0
LINE
  8
0
 10
29.5816
 20
-26.9249
 11
29.9105
 21
-26.7594
  0
LINE
  8
0
 10
29.9105
 20
-26.7594
 11
30.2308
 21
-26.578
  0
LINE
  8
0
 10
30.2308
 20
-26.578
 11
30.5418
 21
-26.381
  0
LINE
  8
0
 10
30.5418
 20
-26.381
 11
30.8427
 21
-26.1691
  0
LINE
  8
0
 10
30.8427
 20
-26.1691
 11
31.1329
 21
-25.9426
  0
LINE
  8
0
 10
31.1329
 20
-25.9426
 11
31.4117
 21
-25.7021
  0
LINE
  8
0
 10
31.4117
 20
-25.7021
 11
31.6783
 21
-25.4483
  0
LINE
  8
0
 10
31.6783
 20
-25.4483
 11
31.9321
 21
-25.1817
  0
LINE
  8
0
 10
31.9321
 20
-25.1817
 11
32.1726
 21
-24.9029
  0
LINE
  8
0
 10
32.1726
 20
-24.9029
 11
32.399
 21
-24.6127
  0
LINE
  8
0
 10
32.399
 20
-24.6127
 11
32.611
 21
-24.3118
  0
LINE
  8
0
 10
32.611
 20
-24.3118
 11
32.808
 21
-24.0008
  0
LINE
  8
0
 10
32.808
 20
-24.0008
 11
32.9894
 21
-23.6805
  0
LINE
  8
0
 10
32.9894
 20
-23.6805
 11
33.1549
 21
-23.3517
  0
LINE
  8
0
 10
33.1549
 20
-23.3517
 11
33.3041
 21
-23.0151
  0
LINE
  8
0
 10
33.3041
 20
-23.0151
 11
33.4366
 21
-22.6717
  0
LINE
  8
0
 10
33.4366
 20
-22.6717
 11
33.552
 21
-22.3221
  0
LINE
  8
0
 10
33.552
 20
-22.3221
 11
33.6502
 21
-21.9673
  0
LINE
  8
0
 10
33.6502
 20
-21.9673
 11
33.7309
 21
-21.6082
  0
LINE
  8
0
 10
33.7309
 20
-21.6082
 11
33.7938
 21
-21.2455
  0
LINE
  8
0
 10
33.7938
 20
-21.2455
 11
33.8389
 21
-20.8801
  0
LINE
  8
0
 10
33.8389
 20
-20.8801
 11
33.866
 21
-20.513
  0
LINE
  8
0
 10
33.866
 20
-20.513
 11
33.875
 21
-20.145
  0
LINE
  8
0
 10
33.875
 20
-20.145
 11
33.866
 21
-19.777
  0
LINE
  8
0
 10
33.866
 20
-19.777
 11
33.8389
 21
-19.4099
  0
LINE
  8
0
 10
33.8389
 20
-19.4099
 11
33.7938
 21
-19.0445
  0
LINE
  8
0
 10
33.7938
 20
-19.0445
 11
33.7309
 21
-18.6818
  0
LINE
  8
0
 10
33.7309
 20
-18.6818
 11
33.6502
 21
-18.3226
  0
LINE
  8
0
 10
33.6502
 20
-18.3226
 11
33.552
 21
-17.9679
  0
LINE
  8
0
 10
33.552
 20
-17.9679
 11
33.4366
 21
-17.6183
  0
LINE
  8
0
 10
33.4366
 20
-17.6183
 11
33.3041
 21
-17.2749
  0
LINE
  8
0
 10
33.3041
 20
-17.2749
 11
33.1549
 21
-16.9383
  0
LINE
  8
0
 10
33.1549
 20
-16.9383
 11
32.9894
 21
-16.6095
  0
LINE
  8
0
 10
32.9894
 20
-16.6095
 11
32.808
 21
-16.2892
  0
LINE
  8
0
 10
32.808
 20
-16.2892
 11
32.611
 21
-15.9782
  0
LINE
  8
0
 10
32.611
 20
-15.9782
 11
32.399
 21
-15.6772
  0
LINE
  8
0
 10
32.399
 20
-15.6772
 11
32.1726
 21
-15.387
  0
LINE
  8
0
 10
32.1726
 20
-15.387
 11
31.9321
 21
-15.1083
  0
LINE
  8
0
 10
31.9321
 20
-15.1083
 11
31.6783
 21
-14.8417
  0
LINE
  8
0
 10
31.6783
 20
-14.8417
 11
31.4117
 21
-14.5879
  0
LINE
  8
0
 10
31.4117
 20
-14.5879
 11
31.1329
 21
-14.3474
  0
LINE
  8
0
 10
31.1329
 20
-14.3474
 11
30.8427
 21
-14.1209
  0
LINE
  8
0
 10
30.8427
 20
-14.1209
 11
30.5418
 21
-13.909
  0
LINE
  8
0
 10
30.5418
 20
-13.909
 11
30.2308
 21
-13.712
  0
LINE
  8
0
 10
30.2308
 20
-13.712
 11
29.9105
 21
-13.5306
  0
LINE
  8
0
 10
29.9105
 20
-13.5306
 11
29.5816
 21
-13.3651
  0
LINE
  8
0
 10
29.5816
 20
-13.3651
 11
29.2451
 21
-13.2159
  0
LINE
  8
0
 10
29.2451
 20
-13.2159
 11
28.9017
 21
-13.0834
  0
LINE
  8
0
 10
28.9017
 20
-13.0834
 11
28.5521
 21
-12.9679
  0
LINE
  8
0
 10
28.5521
 20
-12.9679
 11
28.1973
 21
-12.8698
  0
LINE
  8
0
 10
28.1973
 20
-12.8698
 11
27.8382
 21
-12.7891
  0
LINE
  8
0
 10
27.8382
 20
-12.7891
 11
27.4755
 21
-12.7262
  0
LINE
  8
0
 10
27.4755
 20
-12.7262
 11
27.1101
 21
-12.6811
  0
LINE
  8
0
 10
27.1101
 20
-12.6811
 11
26.743
 21
-12.654
  0
LINE
  8
0
 10
26.743
 20
-12.654
 11
26.375
 21
-12.645
  0
LINE
  8
0
 10
26.375
 20
-12.645
 11
26.007
 21
-12.654
  0
LINE
  8
0
 10
26.007
 20
-12.654
 11
25.6399
 21
-12.6811
  0
LINE
  8
0
 10
25.6399
 20
-12.6811
 11
25.3084
 21
-12.722
  0
LINE
  8
0
 10
25.3084
 20
-12.722
 11
12.569
 21
14.5978
  0
LINE
  8
0
 10
12.569
 20
14.5978
 11
12.6479
 21
14.6892
  0
LINE
  8
0
 10
12.6479
 20
14.6892
 11
12.9076
 21
15.022
  0
LINE
  8
0
 10
12.9076
 20
15.022
 11
13.1506
 21
15.3671
  0
LINE
  8
0
 10
13.1506
 20
15.3671
 11
13.3765
 21
15.7237
  0
LINE
  8
0
 10
13.3765
 20
15.7237
 11
13.5845
 21
16.091
  0
LINE
  8
0
 10
13.5845
 20
16.091
 11
13.7743
 21
16.468
  0
LINE
  8
0
 10
13.7743
 20
16.468
 11
13.9454
 21
16.8539
  0
LINE
  8
0
 10
13.9454
 20
16.8539
 11
14.0973
 21
17.2477
  0
LINE
  8
0
 10
14.0973
 20
17.2477
 11
14.2297
 21
17.6485
  0
LINE
  8
0
 10
14.2297
 20
17.6485
 11
14.3423
 21
18.0554
  0
LINE
  8
0
 10
14.3423
 20
18.0554
 11
14.4347
 21
18.4672
  0
LINE
  8
0
 10
14.4347
 20
18.4672
 11
14.5069
 21
18.8831
  0
LINE
  8
0
 10
14.5069
 20
18.8831
 11
14.5586
 21
19.302
  0
LINE
  8
0
 10
14.5586
 20
19.302
 11
14.5896
 21
19.723
  0
LINE
  8
0
 10
14.5896
 20
19.723
 11
14.6
 21
20.145
  0
LINE
  8
0
 10
14.6
 20
20.145
 11
14.5896
 21
20.567
  0
LINE
  8
0
 10
14.5896
 20
20.567
 11
14.5586
 21
20.9879
  0
LINE
  8
0
 10
14.5586
 20
20.9879
 11
14.5069
 21
21.4069
  0
LINE
  8
0
 10
14.5069
 20
21.4069
 11
14.4347
 21
21.8228
  0
LINE
  8
0
 10
14.4347
 20
21.8228
 11
14.3423
 21
22.2346
  0
LINE
  8
0
 10
14.3423
 20
22.2346
 11
14.2297
 21
22.6414
  0
LINE
  8
0
 10
14.2297
 20
22.6414
 11
14.0973
 21
23.0423
  0
LINE
  8
0
 10
14.0973
 20
23.0423
 11
13.9454
 21
23.4361
  0
LINE
  8
0
 10
13.9454
 20
23.4361
 11
13.7743
 21
23.822
  0
LINE
  8
0
 10
13.7743
 20
23.822
 11
13.5845
 21
24.199
  0
LINE
  8
0
 10
13.5845
 20
24.199
 11
13.3765
 21
24.5663
  0
LINE
  8
0
 10
13.3765
 20
24.5663
 11
13.1506
 21
24.9229
  0
LINE
  8
0
 10
13.1506
 20
24.9229
 11
12.9076
 21
25.268
  0
LINE
  8
0
 10
12.9076
 20
25.268
 11
12.6479
 21
25.6008
  0
LINE
  8
0
 10
12.6479
 20
25.6008
 11
12.3722
 21
25.9204
  0
LINE
  8
0
 10
12.3722
 20
25.9204
 11
12.0811
 21
26.2261
  0
LINE
  8
0
 10
12.0811
 20
26.2261
 11
11.7754
 21
26.5172
  0
LINE
  8
0
 10
11.7754
 20
26.5172
 11
11.4558
 21
26.7929
  0
LINE
  8
0
 10
11.4558
 20
26.7929
 11
11.123
 21
27.0526
  0
LINE
  8
0
 10
11.123
 20
27.0526
 11
10.7779
 21
27.2956
  0
LINE
  8
0
 10
10.7779
 20
27.2956
 11
10.4213
 21
27.5215
  0
LINE
  8
0
 10
10.4213
 20
27.5215
 11
10.054
 21
27.7295
  0
LINE
  8
0
 10
10.054
 20
27.7295
 11
9.67697
 21
27.9193
  0
LINE
  8
0
 10
9.67697
 20
27.9193
 11
9.29108
 21
28.0904
  0
LINE
  8
0
 10
9.29108
 20
28.0904
 11
8.89725
 21
28.2423
  0
LINE
  8
0
 10
8.89725
 20
28.2423
 11
8.49644
 21
28.3747
  0
LINE
  8
0
 10
8.49644
 20
28.3747
 11
8.08961
 21
28.4873
  0
LINE
  8
0
 10
8.08961
 20
28.4873
 11
7.67776
 21
28.5797
  0
LINE
  8
0
 10
7.67776
 20
28.5797
 11
7.26187
 21
28.6519
  0
LINE
  8
0
 10
7.26187
 20
28.6519
 11
6.84294
 21
28.7036
  0
LINE
  8
0
 10
6.84294
 20
28.7036
 11
6.42198
 21
28.7346
  0
LINE
  8
0
 10
6.42198
 20
28.7346
 11
6
 21
28.745
  0
LINE
  8
0
 10
6
 20
28.745
 11
5.578
 21
28.7346
  0
LINE
  8
0
 10
5.578
 20
28.7346
 11
5.15704
 21
28.7036
  0
LINE
  8
0
 10
5.15704
 20
28.7036
 11
4.73811
 21
28.6519
  0
LINE
  8
0
 10
4.73811
 20
28.6519
 11
4.32222
 21
28.5797
  0
LINE
  8
0
 10
4.32222
 20
28.5797
 11
3.91037
 21
28.4873
  0
LINE
  8
0
 10
3.91037
 20
28.4873
 11
3.50354
 21
28.3747
  0
LINE
  8
0
 10
3.50354
 20
28.3747
 11
3.10274
 21
28.2423
  0
LINE
  8
0
 10
3.10274
 20
28.2423
 11
2.70891
 21
28.0904
  0
LINE
  8
0
 10
2.70891
 20
28.0904
 11
2.32301
 21
27.9193
  0
LINE
  8
0
 10
2.32301
 20
27.9193
 11
1.94598
 21
27.7295
  0
LINE
  8
0
 10
1.94598
 20
27.7295
 11
1.5787
 21
27.5215
  0
LINE
  8
0
 10
1.5787
 20
27.5215
 11
1.22209
 21
27.2956
  0
LINE
  8
0
 10
1.22209
 20
27.2956
 11
0.876984
 21
27.0526
  0
LINE
  8
0
 10
0.876984
 20
27.0526
 11
0.544205
 21
26.7929
  0
LINE
  8
0
 10
0.544205
 20
26.7929
 11
0.452667
 21
26.7139
  0
LINE
  8
0
 10
0.452667
 20
26.7139
 11
-5.81058
 21
28.9936
  0
LINE
  8
0
 10
-5.81058
 20
28.9936
 11
-5.93677
 21
29.1553
  0
LINE
  8
0
 10
-5.93677
 20
29.1553
 11
-6
 21
29.2286
  0
LINE
  8
0
 10
-6
 20
29.2286
 11
-6
 21
30
  0
LINE
  8
0
 10
-6
 20
30
 11
-6.77142
 21
30
  0
LINE
  8
0
 10
-6.77142
 20
30
 11
-6.84471
 21
30.0632
  0
LINE
  8
0
 10
-6.84471
 20
30.0632
 11
-7.09816
 21
30.261
  0
LINE
  8
0
 10
-7.09816
 20
30.261
 11
-7.36101
 21
30.4461
  0
LINE
  8
0
 10
-7.36101
 20
30.4461
 11
-7.63261
 21
30.6181
  0
LINE
  8
0
 10
-7.63261
 20
30.6181
 11
-7.91234
 21
30.7766
  0
LINE
  8
0
 10
-7.91234
 20
30.7766
 11
-8.19951
 21
30.9211
  0
LINE
  8
0
 10
-8.19951
 20
30.9211
 11
-8.49342
 21
31.0514
  0
LINE
  8
0
 10
-8.49342
 20
31.0514
 11
-8.79337
 21
31.1671
  0
LINE
  8
0
 10
-8.79337
 20
31.1671
 11
-9.09863
 21
31.268
  0
LINE
  8
0
 10
-9.09863
 20
31.268
 11
-9.40848
 21
31.3537
  0
LINE
  8
0
 10
-9.40848
 20
31.3537
 11
-9.72215
 21
31.4241
  0
LINE
  8
0
 10
-9.72215
 20
31.4241
 11
-10.0389
 21
31.4791
  0
LINE
  8
0
 10
-10.0389
 20
31.4791
 11
-10.358
 21
31.5184
  0
LINE
  8
0
 10
-10.358
 20
31.5184
 11
-10.6786
 21
31.5421
  0
LINE
  8
0
 10
-10.6786
 20
31.5421
 11
-11
 21
31.55
  0
LINE
  8
0
 10
-11
 20
31.55
 11
-11.3214
 21
31.5421
  0
LINE
  8
0
 10
-11.3214
 20
31.5421
 11
-11.642
 21
31.5184
  0
LINE
  8
0
 10
-11.642
 20
31.5184
 11
-11.9611
 21
31.4791
  0
LINE
  8
0
 10
-11.9611
 20
31.4791
 11
-12.2778
 21
31.4241
  0
LINE
  8
0
 10
-12.2778
 20
31.4241
 11
-12.5915
 21
31.3537
  0
LINE
  8
0
 10
-12.5915
 20
31.3537
 11
-12.9014
 21
31.268
  0
LINE
  8
0
 10
-12.9014
 20
31.268
 11
-13.2066
 21
31.1671
  0
LINE
  8
0
 10
-13.2066
 20
31.1671
 11
-13.5066
 21
31.0514
  0
LINE
  8
0
 10
-13.5066
 20
31.0514
 11
-13.8005
 21
30.9211
  0
LINE
  8
0
 10
-13.8005
 20
30.9211
 11
-14.0876
 21
30.7766
  0
LINE
  8
0
 10
-14.0876
 20
30.7766
 11
-14.3674
 21
30.6181
  0
LINE
  8
0
 10
-14.3674
 20
30.6181
 11
-14.639
 21
30.4461
  0
LINE
  8
0
 10
-14.639
 20
30.4461
 11
-14.9018
 21
30.261
  0
LINE
  8
0
 10
-14.9018
 20
30.261
 11
-15.1553
 21
30.0632
  0
LINE
  8
0
 10
-15.1553
 20
30.0632
 11
-15.2286
 21
30
  0
LINE
  8
0
 10
-15.2286
 20
30
 11
-16
 21
30
  0
LINE
  8
0
 10
-16
 20
30
 11
-16
 21
29.2286
  0
LINE
  8
0
 10
-16
 20
29.2286
 11
-16.0632
 21
29.1553
  0
LINE
  8
0
 10
-16.0632
 20
29.1553
 11
-16.261
 21
28.9018
  0
LINE
  8
0
 10
-16.261
 20
28.9018
 11
-16.4461
 21
28.639
  0
LINE
  8
0
 10
-16.4461
 20
28.639
 11
-16.6181
 21
28.3674
  0
LINE
  8
0
 10
-16.6181
 20
28.3674
 11
-16.7766
 21
28.0876
  0
LINE
  8
0
 10
-16.7766
 20
28.0876
 11
-16.9211
 21
27.8005
  0
LINE
  8
0
 10
-16.9211
 20
27.8005
 11
-17.0514
 21
27.5066
  0
LINE
  8
0
 10
-17.0514
 20
27.5066
 11
-17.1671
 21
27.2066
  0
LINE
  8
0
 10
-17.1671
 20
27.2066
 11
-17.268
 21
26.9014
  0
LINE
  8
0
 10
-17.268
 20
26.9014
 11
-17.3537
 21
26.5915
  0
LINE
  8
0
 10
-17.3537
 20
26.5915
 11
-17.4241
 21
26.2778
  0
LINE
  8
0
 10
-17.4241
 20
26.2778
 11
-17.4791
 21
25.9611
  0
LINE
  8
0
 10
-17.4791
 20
25.9611
 11
-17.5184
 21
25.642
  0
LINE
  8
0
 10
-17.5184
 20
25.642
 11
-17.5421
 21
25.3214
  0
LINE
  8
0
 10
-17.5421
 20
25.3214
 11
-17.55
 21
25
  0
LINE
  8
0
 10
-17.55
 20
25
 11
-17.5421
 21
24.6786
  0
LINE
  8
0
 10
-17.5421
 20
24.6786
 11
-17.5184
 21
24.358
  0
LINE
  8
0
 10
-17.5184
 20
24.358
 11
-17.4791
 21
24.0389
  0
LINE
  8
0
 10
-17.4791
 20
24.0389
 11
-17.4241
 21
23.7222
  0
LINE
  8
0
 10
-17.4241
 20
23.7222
 11
-17.3537
 21
23.4085
  0
LINE
  8
0
 10
-17.3537
 20
23.4085
 11
-17.268
 21
23.0986
  0
LINE
  8
0
 10
-17.268
 20
23.0986
 11
-17.1671
 21
22.7934
  0
LINE
  8
0
 10
-17.1671
 20
22.7934
 11
-17.0514
 21
22.4934
  0
LINE
  8
0
 10
-17.0514
 20
22.4934
 11
-16.9211
 21
22.1995
  0
LINE
  8
0
 10
-16.9211
 20
22.1995
 11
-16.7766
 21
21.9123
  0
LINE
  8
0
 10
-16.7766
 20
21.9123
 11
-16.6181
 21
21.6326
  0
LINE
  8
0
 10
-16.6181
 20
21.6326
 11
-16.4461
 21
21.361
  0
LINE
  8
0
 10
-16.4461
 20
21.361
 11
-16.261
 21
21.0982
  0
LINE
  8
0
 10
-16.261
 20
21.0982
 11
-16.0632
 21
20.8447
  0
LINE
  8
0
 10
-16.0632
 20
20.8447
 11
-16
 21
20.7714
  0
LINE
  8
0
 10
-16
 20
20.7714
 11
-16
 21
14.2286
  0
LINE
  8
0
 10
-16
 20
14.2286
 11
-16.0632
 21
14.1553
  0
LINE
  8
0
 10
-16.0632
 20
14.1553
 11
-16.261
 21
13.9018
  0
LINE
  8
0
 10
-16.261
 20
13.9018
 11
-16.4461
 21
13.639
  0
LINE
  8
0
 10
-16.4461
 20
13.639
 11
-16.6181
 21
13.3674
  0
LINE
  8
0
 10
-16.6181
 20
13.3674
 11
-16.7766
 21
13.0876
  0
LINE
  8
0
 10
-16.7766
 20
13.0876
 11
-16.9211
 21
12.8005
  0
LINE
  8
0
 10
-16.9211
 20
12.8005
 11
-17.0514
 21
12.5066
  0
LINE
  8
0
 10
-17.0514
 20
12.5066
 11
-17.1671
 21
12.2066
  0
LINE
  8
0
 10
-17.1671
 20
12.2066
 11
-17.268
 21
11.9014
  0
LINE
  8
0
 10
-17.268
 20
11.9014
 11
-17.3537
 21
11.5915
  0
LINE
  8
0
 10
-17.3537
 20
11.5915
 11
-17.4241
 21
11.2778
  0
LINE
  8
0
 10
-17.4241
 20
11.2778
 11
-17.4791
 21
10.9611
  0
LINE
  8
0
 10
-17.4791
 20
10.9611
 11
-17.5184
 21
10.642
  0
LINE
  8
0
 10
-17.5184
 20
10.642
 11
-17.5421
 21
10.3214
  0
LINE
  8
0
 10
-17.5421
 20
10.3214
 11
-17.55
 21
10
  0
LINE
  8
0
 10
-17.55
 20
10
 11
-17.5421
 21
9.6786
  0
LINE
  8
0
 10
-17.5421
 20
9.6786
 11
-17.5184
 21
9.35799
  0
LINE
  8
0
 10
-17.5184
 20
9.35799
 11
-17.4791
 21
9.03891
  0
LINE
  8
0
 10
-17.4791
 20
9.03891
 11
-17.4241
 21
8.72215
  0
LINE
  8
0
 10
-17.4241
 20
8.72215
 11
-17.3537
 21
8.40848
  0
LINE
  8
0
 10
-17.3537
 20
8.40848
 11
-17.268
 21
8.09863
  0
LINE
  8
0
 10
-17.268
 20
8.09863
 11
-17.1671
 21
7.79337
  0
LINE
  8
0
 10
-17.1671
 20
7.79337
 11
-17.0514
 21
7.49342
  0
LINE
  8
0
 10
-17.0514
 20
7.49342
 11
-16.9211
 21
7.19951
  0
LINE
  8
0
 10
-16.9211
 20
7.19951
 11
-16.7766
 21
6.91234
  0
LINE
  8
0
 10
-16.7766
 20
6.91234
 11
-16.6181
 21
6.63261
  0
LINE
  8
0
 10
-16.6181
 20
6.63261
 11
-16.4461
 21
6.36101
  0
LINE
  8
0
 10
-16.4461
 20
6.36101
 11
-16.261
 21
6.09816
  0
LINE
  8
0
 10
-16.261
 20
6.09816
 11
-16.0632
 21
5.84471
  0
LINE
  8
0
 10
-16.0632
 20
5.84471
 11
-16
 21
5.77142
  0
LINE
  8
0
 10
-16
 20
5.77142
 11
-16
 21
5
  0
LINE
  8
0
 10
-16
 20
5
 11
-35.375
 21
5
  0
LINE
  8
0
 10
-35.375
 20
5
 11
-35.375
 21
-5
  0
LINE
  8
0
 10
-35.375
 20
-5
 11
-16
 21
-5
  0
LINE
  8
0
 10
-16
 20
-5
 11
-16
 21
-15.145
  0
LINE
  8
0
 10
-16
 20
-15.145
 11
-20.7862
 21
-15.145
  0
LINE
  8
0
 10
-20.7862
 20
-15.145
 11
-20.8179
 21
-15.1083
  0
LINE
  8
0
 10
-20.8179
 20
-15.1083
 11
-21.0717
 21
-14.8417
  0
LINE
  8
0
 10
-21.0717
 20
-14.8417
 11
-21.3383
 21
-14.5879
  0
LINE
  8
0
 10
-21.3383
 20
-14.5879
 11
-21.6171
 21
-14.3474
  0
LINE
  8
0
 10
-21.6171
 20
-14.3474
 11
-21.9072
 21
-14.1209
  0
LINE
  8
0
 10
-21.9072
 20
-14.1209
 11
-22.2082
 21
-13.909
  0
LINE
  8
0
 10
-22.2082
 20
-13.909
 11
-22.5192
 21
-13.712
  0
LINE
  8
0
 10
-22.5192
 20
-13.712
 11
-22.8395
 21
-13.5306
  0
LINE
  8
0
 10
-22.8395
 20
-13.5306
 11
-23.1683
 21
-13.3651
  0
LINE
  8
0
 10
-23.1683
 20
-13.3651
 11
-23.5049
 21
-13.2159
  0
LINE
  8
0
 10
-23.5049
 20
-13.2159
 11
-23.8483
 21
-13.0834
  0
LINE
  8
0
 10
-23.8483
 20
-13.0834
 11
-24.1979
 21
-12.9679
  0
LINE
  8
0
 10
-24.1979
 20
-12.9679
 11
-24.5526
 21
-12.8698
  0
LINE
  8
0
 10
-24.5526
 20
-12.8698
 11
-24.9118
 21
-12.7891
  0
LINE
  8
0
 10
-24.9118
 20
-12.7891
 11
-25.2745
 21
-12.7262
  0
LINE
  8
0
 10
-25.2745
 20
-12.7262
 11
-25.6399
 21
-12.6811
  0
LINE
  8
0
 10
-25.6399
 20
-12.6811
 11
-26.007
 21
-12.654
  0
LINE
  8
0
 10
-26.007
 20
-12.654
 11
-26.375
 21
-12.645
  0
LINE
  8
0
 10
-26.375
 20
-12.645
 11
-26.743
 21
-12.654
  0
LINE
  8
0
 10
-26.743
 20
-12.654
 11
-27.1101
 21
-12.6811
  0
LINE
  8
0
 10
-27.1101
 20
-12.6811
 11
-27.4755
 21
-12.7262
  0
LINE
  8
0
 10
-27.4755
 20
-12.7262
 11
-27.8382
 21
-12.7891
  0
LINE
  8
0
 10
-27.8382
 20
-12.7891
 11
-28.1973
 21
-12.8698
  0
LINE
  8
0
 10
-28.1973
 20
-12.8698
 11
-28.5521
 21
-12.9679
  0
LINE
  8
0
 10
-28.5521
 20
-12.9679
 11
-28.9017
 21
-13.0834
  0
LINE
  8
0
 10
-28.9017
 20
-13.0834
 11
-29.2451
 21
-13.2159
  0
LINE
  8
0
 10
-29.2451
 20
-13.2159
 11
-29.5816
 21
-13.3651
  0
LINE
  8
0
 10
-29.5816
 20
-13.3651
 11
-29.9105
 21
-13.5306
  0
LINE
  8
0
 10
-29.9105
 20
-13.5306
 11
-30.2308
 21
-13.712
  0
LINE
  8
0
 10
-30.2308
 20
-13.712
 11
-30.5418
 21
-13.909
  0
LINE
  8
0
 10
-30.5418
 20
-13.909
 11
-30.8427
 21
-14.1209
  0
LINE
  8
0
 10
-30.8427
 20
-14.1209
 11
-31.1329
 21
-14.3474
  0
LINE
  8
0
 10
-31.1329
 20
-14.3474
 11
-31.4117
 21
-14.5879
  0
LINE
  8
0
 10
-31.4117
 20
-14.5879
 11
-31.6783
 21
-14.8417
  0
LINE
  8
0
 10
-31.6783
 20
-14.8417
 11
-31.9321
 21
-15.1083
  0
LINE
  8
0
 10
-31.9321
 20
-15.1083
 11
-32.1726
 21
-15.387
  0
LINE
  8
0
 10
-32.1726
 20
-15.387
 11
-32.399
 21
-15.6772
  0
LINE
  8
0
 10
-32.399
 20
-15.6772
 11
-32.611
 21
-15.9782
  0
LINE
  8
0
 10
-32.611
 20
-15.9782
 11
-32.808
 21
-16.2892
  0
LINE
  8
0
 10
-32.808
 20
-16.2892
 11
-32.9894
 21
-16.6095
  0
LINE
  8
0
 10
-32.9894
 20
-16.6095
 11
-33.1549
 21
-16.9383
  0
LINE
  8
0
 10
-33.1549
 20
-16.9383
 11
-33.3041
 21
-17.2749
  0
LINE
  8
0
 10
-33.3041
 20
-17.2749
 11
-33.4366
 21
-17.6183
  0
LINE
  8
0
 10
-33.4366
 20
-17.6183
 11
-33.552
 21
-17.9679
  0
LINE
  8
0
 10
-33.552
 20
-17.9679
 11
-33.6502
 21
-18.3226
  0
LINE
  8
0
 10
-33.6502
 20
-18.3226
 11
-33.7309
 21
-18.6818
  0
LINE
  8
0
 10
-33.7309
 20
-18.6818
 11
-33.7938
 21
-19.0445
  0
LINE
  8
0
 10
-33.7938
 20
-19.0445
 11
-33.8389
 21
-19.4099
  0
LINE
  8
0
 10
-33.8389
 20
-19.4099
 11
-33.866
 21
-19.777
  0
LINE
  8
0
 10
-33.866
 20
-19.777
 11
-33.875
 21
-20.145
  0
LINE
  8
0
 10
-33.875
 20
-20.145
 11
-33.866
 21
-20.513
  0
LINE
  8
0
 10
-33.866
 20
-20.513
 11
-33.8389
 21
-20.8801
  0
LINE
  8
0
 10
-33.8389
 20
-20.8801
 11
-33.7938
 21
-21.2455
  0
LINE
  8
0
 10
-33.7938
 20
-21.2455
 11
-33.7309
 21
-21.6082
  0
LINE
  8
0
 10
-33.7309
 20
-21.6082
 11
-33.6502
 21
-21.9673
  0
LINE
  8
0
 10
-33.6502
 20
-21.9673
 11
-33.552
 21
-22.3221
  0
LINE
  8
0
 10
-33.552
 20
-22.3221
 11
-33.4366
 21
-22.6717
  0
LINE
  8
0
 10
-33.4366
 20
-22.6717
 11
-33.3041
 21
-23.0151
  0
LINE
  8
0
 10
-33.3041
 20
-23.0151
 11
-33.1549
 21
-23.3517
  0
LINE
  8
0
 10
-33.1549
 20
-23.3517
 11
-32.9894
 21
-23.6805
  0
LINE
  8
0
 10
-32.9894
 20
-23.6805
 11
-32.808
 21
-24.0008
  0
LINE
  8
0
 10
-32.808
 20
-24.0008
 11
-32.611
 21
-24.3118
  0
LINE
  8
0
 10
-32.611
 20
-24.3118
 11
-32.399
 21
-24.6127
  0
LINE
  8
0
 10
-32.399
 20
-24.6127
 11
-32.1726
 21
-24.9029
  0
LINE
  8
0
 10
-32.1726
 20
-24.9029
 11
-31.9321
 21
-25.1817
  0
LINE
  8
0
 10
-31.9321
 20
-25.1817
 11
-31.6783
 21
-25.4483
  0
LINE
  8
0
 10
-31.6783
 20
-25.4483
 11
-31.4117
 21
-25.7021
  0
LINE
  8
0
 10
-31.4117
 20
-25.7021
 11
-31.1329
 21
-25.9426
  0
LINE
  8
0
 10
-31.1329
 20
-25.9426
 11
-30.8427
 21
-26.1691
  0
LINE
  8
0
 10
-30.8427
 20
-26.1691
 11
-30.5418
 21
-26.381
  0
LINE
  8
0
 10
-30.5418
 20
-26.381
 11
-30.2308
 21
-26.578
  0
LINE
  8
0
 10
-30.2308
 20
-26.578
 11
-29.9105
 21
-26.7594
  0
LINE
  8
0
 10
-29.9105
 20
-26.7594
 11
-29.5816
 21
-26.9249
  0
LINE
  8
0
 10
-29.5816
 20
-26.9249
 11
-29.2451
 21
-27.0741
  0
LINE
  8
0
 10
-29.2451
 20
-27.0741
 11
-28.9017
 21
-27.2066
  0
LINE
  8
0
 10
-28.9017
 20
-27.2066
 11
-28.5521
 21
-27.3221
  0
LINE
  8
0
 10
-28.5521
 20
-27.3221
 11
-28.1973
 21
-27.4202
  0
LINE
  8
0
 10
-28.1973
 20
-27.4202
 11
-27.8382
 21
-27.5009
  0
LINE
  8
0
 10
-27.8382
 20
-27.5009
 11
-27.4755
 21
-27.5638
  0
LINE
  8
0
 10
-27.4755
 20
-27.5638
 11
-27.1101
 21
-27.6089
  0
LINE
  8
0
 10
-27.1101
 20
-27.6089
 11
-26.743
 21
-27.636
  0
LINE
  8
0
 10
-26.743
 20
-27.636
 11
-26.375
 21
-27.645
  0
LINE
  8
0
 10
-26.375
 20
-27.645
 11
-26.007
 21
-27.636
  0
LINE
  8
0
 10
-26.007
 20
-27.636
 11
-25.6399
 21
-27.6089
  0
LINE
  8
0
 10
-25.6399
 20
-27.6089
 11
-25.2745
 21
-27.5638
  0
LINE
  8
0
 10
-25.2745
 20
-27.5638
 11
-24.9118
 21
-27.5009
  0
LINE
  8
0
 10
-24.9118
 20
-27.5009
 11
-24.5526
 21
-27.4202
  0
LINE
  8
0
 10
-24.5526
 20
-27.4202
 11
-24.1979
 21
-27.3221
  0
LINE
  8
0
 10
-24.1979
 20
-27.3221
 11
-23.8483
 21
-27.2066
  0
LINE
  8
0
 10
-23.8483
 20
-27.2066
 11
-23.5049
 21
-27.0741
  0
LINE
  8
0
 10
-23.5049
 20
-27.0741
 11
-23.1683
 21
-26.9249
  0
LINE
  8
0
 10
-23.1683
 20
-26.9249
 11
-22.8395
 21
-26.7594
  0
LINE
  8
0
 10
-22.8395
 20
-26.7594
 11
-22.5192
 21
-26.578
  0
LINE
  8
0
 10
-22.5192
 20
-26.578
 11
-22.2082
 21
-26.381
  0
LINE
  8
0
 10
-22.2082
 20
-26.381
 11
-21.9072
 21
-26.1691
  0
LINE
  8
0
 10
-21.9072
 20
-26.1691
 11
-21.6171
 21
-25.9426
  0
LINE
  8
0
 10
-21.6171
 20
-25.9426
 11
-21.3383
 21
-25.7021
  0
LINE
  8
0
 10
-21.3383
 20
-25.7021
 11
-21.0717
 21
-25.4483
  0
LINE
  8
0
 10
-21.0717
 20
-25.4483
 11
-20.8179
 21
-25.1817
  0
LINE
  8
0
 10
-20.8179
 20
-25.1817
 11
-20.7862
 21
-25.145
  0
LINE
  8
0
 10
-20.7862
 20
-25.145
 11
-17.5464
 21
-25.145
  0
LINE
  8
0
 10
-17.5464
 20
-25.145
 11
-17.5421
 21
-25.3214
  0
LINE
  8
0
 10
-17.5421
 20
-25.3214
 11
-17.5184
 21
-25.642
  0
LINE
  8
0
 10
-17.5184
 20
-25.642
 11
-17.4791
 21
-25.9611
  0
LINE
  8
0
 10
-17.4791
 20
-25.9611
 11
-17.4241
 21
-26.2778
  0
LINE
  8
0
 10
-17.4241
 20
-26.2778
 11
-17.3537
 21
-26.5915
  0
LINE
  8
0
 10
-17.3537
 20
-26.5915
 11
-17.268
 21
-26.9014
  0
LINE
  8
0
 10
-17.268
 20
-26.9014
 11
-17.1671
 21
-27.2066
  0
LINE
  8
0
 10
-17.1671
 20
-27.2066
 11
-17.0514
 21
-27.5066
  0
LINE
  8
0
 10
-17.0514
 20
-27.5066
 11
-16.9211
 21
-27.8005
  0
LINE
  8
0
 10
-16.9211
 20
-27.8005
 11
-16.7766
 21
-28.0876
  0
LINE
  8
0
 10
-16.7766
 20
-28.0876
 11
-16.6181
 21
-28.3674
  0
LINE
  8
0
 10
-16.6181
 20
-28.3674
 11
-16.4461
 21
-28.639
  0
LINE
  8
0
 10
-16.4461
 20
-28.639
 11
-16.261
 21
-28.9018
  0
LINE
  8
0
 10
-16.261
 20
-28.9018
 11
-16.0632
 21
-29.1553
  0
LINE
  8
0
 10
-16.0632
 20
-29.1553
 11
-15.8532
 21
-29.3987
  0
LINE
  8
0
 10
-15.8532
 20
-29.3987
 11
-15.6315
 21
-29.6315
  0
LINE
  8
0
 10
-15.6315
 20
-29.6315
 11
-15.3987
 21
-29.8532
  0
LINE
  8
0
 10
-15.3987
 20
-29.8532
 11
-15.1553
 21
-30.0632
  0
LINE
  8
0
 10
-15.1553
 20
-30.0632
 11
-14.9018
 21
-30.261
  0
LINE
  8
0
 10
-14.9018
 20
-30.261
 11
-14.639
 21
-30.4461
  0
LINE
  8
0
 10
-14.639
 20
-30.4461
 11
-14.3674
 21
-30.6181
  0
LINE
  8
0
 10
-14.3674
 20
-30.6181
 11
-14.0876
 21
-30.7766
  0
LINE
  8
0
 10
-14.0876
 20
-30.7766
 11
-13.8005
 21
-30.9211
  0
LINE
  8
0
 10
-13.8005
 20
-30.9211
 11
-13.5066
 21
-31.0514
  0
LINE
  8
0
 10
-13.5066
 20
-31.0514
 11
-13.2066
 21
-31.1671
  0
LINE
  8
0
 10
-13.2066
 20
-31.1671
 11
-12.9014
 21
-31.268
  0
LINE
  8
0
 10
-12.9014
 20
-31.268
 11
-12.5915
 21
-31.3537
  0
LINE
  8
0
 10
-12.5915
 20
-31.3537
 11
-12.2778
 21
-31.4241
  0
LINE
  8
0
 10
-12.2778
 20
-31.4241
 11
-11.9611
 21
-31.4791
  0
LINE
  8
0
 10
-11.9611
 20
-31.4791
 11
-11.642
 21
-31.5184
  0
LINE
  8
0
 10
-11.642
 20
-31.5184
 11
-11.3214
 21
-31.5421
  0
LINE
  8
0
 10
-11.3214
 20
-31.5421
 11
-11
 21
-31.55
  0
LINE
  8
0
 10
-11
 20
-31.55
 11
-10.6786
 21
-31.5421
  0
LINE
  8
0
 10
-11.076
 20
23.4519
 11
-11.1519
 21
23.4575
  0
LINE
  8
0
 10
-11.1519
 20
23.4575
 11
-11.2274
 21
23.4668
  0
LINE
  8
0
 10
-11.2274
 20
23.4668
 11
-11.3024
 21
23.4798
  0
LINE
  8
0
 10
-11.3024
 20
23.4798
 11
-11.3766
 21
23.4964
  0
LINE
  8
0
 10
-11.3766
 20
23.4964
 11
-11.4499
 21
23.5167
  0
LINE
  8
0
 10
-11.4499
 20
23.5167
 11
-11.5222
 21
23.5406
  0
LINE
  8
0
 10
-11.5222
 20
23.5406
 11
-11.5932
 21
23.568
  0
LINE
  8
0
 10
-11.5932
 20
23.568
 11
-11.6627
 21
23.5988
  0
LINE
  8
0
 10
-11.6627
 20
23.5988
 11
-11.7307
 21
23.633
  0
LINE
  8
0
 10
-11.7307
 20
23.633
 11
-11.7968
 21
23.6705
  0
LINE
  8
0
 10
-11.7968
 20
23.6705
 11
-11.8611
 21
23.7112
  0
LINE
  8
0
 10
-11.8611
 20
23.7112
 11
-11.9233
 21
23.755
  0
LINE
  8
0
 10
-11.9233
 20
23.755
 11
-11.9833
 21
23.8018
  0
LINE
  8
0
 10
-11.9833
 20
23.8018
 11
-12.0409
 21
23.8515
  0
LINE
  8
0
 10
-12.0409
 20
23.8515
 11
-12.096
 21
23.904
  0
LINE
  8
0
 10
-12.096
 20
23.904
 11
-12.1485
 21
23.9591
  0
LINE
  8
0
 10
-12.1485
 20
23.9591
 11
-12.1982
 21
24.0167
  0
LINE
  8
0
 10
-12.1982
 20
24.0167
 11
-12.245
 21
24.0767
  0
LINE
  8
0
 10
-12.245
 20
24.0767
 11
-12.2888
 21
24.1389
  0
LINE
  8
0
 10
-12.2888
 20
24.1389
 11
-12.3295
 21
24.2031
  0
LINE
  8
0
 10
-12.3295
 20
24.2031
 11
-12.367
 21
24.2693
  0
LINE
  8
0
 10
-12.367
 20
24.2693
 11
-12.4012
 21
24.3373
  0
LINE
  8
0
 10
-12.4012
 20
24.3373
 11
-12.432
 21
24.4068
  0
LINE
  8
0
 10
-12.432
 20
24.4068
 11
-12.4594
 21
24.4778
  0
LINE
  8
0
 10
-12.4594
 20
24.4778
 11
-12.4832
 21
24.55
  0
LINE
  8
0
 10
-12.4832
 20
24.55
 11
-12.5035
 21
24.6234
  0
LINE
  8
0
 10
-12.5035
 20
24.6234
 11
-12.5202
 21
24.6976
  0
LINE
  8
0
 10
-12.5202
 20
24.6976
 11
-12.5332
 21
24.7726
  0
LINE
  8
0
 10
-12.5332
 20
24.7726
 11
-12.5425
 21
24.8481
  0
LINE
  8
0
 10
-12.5425
 20
24.8481
 11
-12.5481
 21
24.9239
  0
LINE
  8
0
 10
-12.5481
 20
24.9239
 11
-12.55
 21
25
  0
LINE
  8
0
 10
-12.55
 20
25
 11
-12.5481
 21
25.076
  0
LINE
  8
0
 10
-12.5481
 20
25.076
 11
-12.5425
 21
25.1519
  0
LINE
  8
0
 10
-12.5425
 20
25.1519
 11
-12.5332
 21
25.2274
  0
LINE
  8
0
 10
-12.5332
 20
25.2274
 11
-12.5202
 21
25.3024
  0
LINE
  8
0
 10
-12.5202
 20
25.3024
 11
-12.5035
 21
25.3766
  0
LINE
  8
0
 10
-12.5035
 20
25.3766
 11
-12.4832
 21
25.4499
  0
LINE
  8
0
 10
-12.4832
 20
25.4499
 11
-12.4594
 21
25.5222
  0
LINE
  8
0
 10
-12.4594
 20
25.5222
 11
-12.432
 21
25.5932
  0
LINE
  8
0
 10
-12.432
 20
25.5932
 11
-12.4012
 21
25.6627
  0
LINE
  8
0
 10
-12.4012
 20
25.6627
 11
-12.367
 21
25.7307
  0
LINE
  8
0
 10
-12.367
 20
25.7307
 11
-12.3295
 21
25.7969
  0
LINE
  8
0
 10
-12.3295
 20
25.7969
 11
-12.2888
 21
25.8611
  0
LINE
  8
0
 10
-12.2888
 20
25.8611
 11
-12.245
 21
25.9233
  0
LINE
  8
0
 10
-12.245
 20
25.9233
 11
-12.1982
 21
25.9833
  0
LINE
  8
0
 10
-12.1982
 20
25.9833
 11
-12.1485
 21
26.0409
  0
LINE
  8
0
 10
-12.1485
 20
26.0409
 11
-12.096
 21
26.096
  0
LINE
  8
0
 10
-12.096
 20
26.096
 11
-12.0409
 21
26.1485
  0
LINE
  8
0
 10
-12.0409
 20
26.1485
 11
-11.9833
 21
26.1982
  0
LINE
  8
0
 10
-11.9833
 20
26.1982
 11
-11.9233
 21
26.245
  0
LINE
  8
0
 10
-11.9233
 20
26.245
 11
-11.8611
 21
26.2888
  0
LINE
  8
0
 10
-11.8611
 20
26.2888
 11
-11.7968
 21
26.3295
  0
LINE
  8
0
 10
-11.7968
 20
26.3295
 11
-11.7307
 21
26.367
  0
LINE
  8
0
 10
-11.7307
 20
26.367
 11
-11.6627
 21
26.4012
  0
LINE
  8
0
 10
-11.6627
 20
26.4012
 11
-11.5932
 21
26.432
  0
LINE
  8
0
 10
-11.5932
 20
26.432
 11
-11.5222
 21
26.4594
  0
LINE
  8
0
 10
-11.5222
 20
26.4594
 11
-11.4499
 21
26.4832
  0
LINE
  8
0
 10
-11.4499
 20
26.4832
 11
-11.3766
 21
26.5035
  0
LINE
  8
0
 10
-11.3766
 20
26.5035
 11
-11.3024
 21
26.5202
  0
LINE
  8
0
 10
-11.3024
 20
26.5202
 11
-11.2274
 21
26.5332
  0
LINE
  8
0
 10
-11.2274
 20
26.5332
 11
-11.1519
 21
26.5425
  0
LINE
  8
0
 10
-11.1519
 20
26.5425
 11
-11.076
 21
26.5481
  0
LINE
  8
0
 10
-11.076
 20
26.5481
 11
-11
 21
26.55
  0
LINE
  8
0
 10
-11
 20
26.55
 11
-10.9239
 21
26.5481
  0
LINE
  8
0
 10
-10.9239
 20
26.5481
 11
-10.8481
 21
26.5425
  0
LINE
  8
0
 10
-10.8481
 20
26.5425
 11
-10.7726
 21
26.5332
  0
LINE
  8
0
 10
-10.7726
 20
26.5332
 11
-10.6976
 21
26.5202
  0
LINE
  8
0
 10
-10.6976
 20
26.5202
 11
-10.6234
 21
26.5035
  0
LINE
  8
0
 10
-10.6234
 20
26.5035
 11
-10.55
 21
26.4832
  0
LINE
  8
0
 10
-10.55
 20
26.4832
 11
-10.4778
 21
26.4594
  0
LINE
  8
0
 10
-10.4778
 20
26.4594
 11
-10.4068
 21
26.432
  0
LINE
  8
0
 10
-10.4068
 20
26.432
 11
-10.3373
 21
26.4012
  0
LINE
  8
0
 10
-10.3373
 20
26.4012
 11
-10.2693
 21
26.367
  0
LINE
  8
0
 10
-10.2693
 20
26.367
 11
-10.2031
 21
26.3295
  0
LINE
  8
0
 10
-10.2031
 20
26.3295
 11
-10.1389
 21
26.2888
  0
LINE
  8
0
 10
-10.1389
 20
26.2888
 11
-10.0767
 21
26.245
  0
LINE
  8
0
 10
-10.0767
 20
26.245
 11
-10.0167
 21
26.1982
  0
LINE
  8
0
 10
-10.0167
 20
26.1982
 11
-9.95908
 21
26.1485
  0
LINE
  8
0
 10
-9.95908
 20
26.1485
 11
-9.90398
 21
26.096
  0
LINE
  8
0
 10
-9.90398
 20
26.096
 11
-9.85152
 21
26.0409
  0
LINE
  8
0
 10
-9.85152
 20
26.0409
 11
-9.80182
 21
25.9833
  0
LINE
  8
0
 10
-9.80182
 20
25.9833
 11
-9.75502
 21
25.9233
  0
LINE
  8
0
 10
-9.75502
 20
25.9233
 11
-9.71121
 21
25.8611
  0
LINE
  8
0
 10
-9.71121
 20
25.8611
 11
-9.67052
 21
25.7969
  0
LINE
  8
0
 10
-9.67052
 20
25.7969
 11
-9.63301
 21
25.7307
  0
LINE
  8
0
 10
-9.63301
 20
25.7307
 11
-9.59882
 21
25.6627
  0
LINE
  8
0
 10
-9.59882
 20
25.6627
 11
-9.56798
 21
25.5932
  0
LINE
  8
0
 10
-9.56798
 20
25.5932
 11
-9.5406
 21
25.5222
  0
LINE
  8
0
 10
-9.5406
 20
25.5222
 11
-9.51674
 21
25.4499
  0
LINE
  8
0
 10
-9.51674
 20
25.4499
 11
-9.49644
 21
25.3766
  0
LINE
  8
0
 10
-9.49644
 20
25.3766
 11
-9.47978
 21
25.3024
  0
LINE
  8
0
 10
-9.47978
 20
25.3024
 11
-9.46677
 21
25.2274
  0
LINE
  8
0
 10
-9.46677
 20
25.2274
 11
-9.45746
 21
25.1519
  0
LINE
  8
0
 10
-9.45746
 20
25.1519
 11
-9.45186
 21
25.076
  0
LINE
  8
0
 10
-9.45186
 20
25.076
 11
-9.45
 21
25
  0
LINE
  8
0
 10
-9.45
 20
25
 11
-9.45186
 21
24.9239
  0
LINE
  8
0
 10
-9.45186
 20
24.9239
 11
-9.45746
 21
24.8481
  0
LINE
  8
0
 10
-9.45746
 20
24.8481
 11
-9.46677
 21
24.7726
  0
LINE
  8
0
 10
-9.46677
 20
24.7726
 11
-9.47978
 21
24.6976
  0
LINE
  8
0
 10
-9.47978
 20
24.6976
 11
-9.49644
 21
24.6234
  0
LINE
  8
0
 10
-9.49644
 20
24.6234
 11
-9.51674
 21
24.55
  0
LINE
  8
0
 10
-9.51674
 20
24.55
 11
-9.5406
 21
24.4778
  0
LINE
  8
0
 10
-9.5406
 20
24.4778
 11
-9.56798
 21
24.4068
  0
LINE
  8
0
 10
-9.56798
 20
24.4068
 11
-9.59882
 21
24.3373
  0
LINE
  8
0
 10
-9.59882
 20
24.3373
 11
-9.63301
 21
24.2693
  0
LINE
  8
0
 10
-9.63301
 20
24.2693
 11
-9.67052
 21
24.2031
  0
LINE
  8
0
 10
-9.67052
 20
24.2031
 11
-9.71121
 21
24.1389
  0
LINE
  8
0
 10
-9.71121
 20
24.1389
 11
-9.75502
 21
24.0767
  0
LINE
  8
0
 10
-9.75502
 20
24.0767
 11
-9.80182
 21
24.0167
  0
LINE
  8
0
 10
-9.80182
 20
24.0167
 11
-9.85152
 21
23.9591
  0
LINE
  8
0
 10
-9.85152
 20
23.9591
 11
-9.90398
 21
23.904
  0
LINE
  8
0
 10
-9.90398
 20
23.904
 11
-9.95908
 21
23.8515
  0
LINE
  8
0
 10
-9.95908
 20
23.8515
 11
-10.0167
 21
23.8018
  0
LINE
  8
0
 10
-10.0167
 20
23.8018
 11
-10.0767
 21
23.755
  0
LINE
  8
0
 10
-10.0767
 20
23.755
 11
-10.1389
 21
23.7112
  0
LINE
  8
0
 10
-10.1389
 20
23.7112
 11
-10.2031
 21
23.6705
  0
LINE
  8
0
 10
-10.2031
 20
23.6705
 11
-10.2693
 21
23.633
  0
LINE
  8
0
 10
-10.2693
 20
23.633
 11
-10.3373
 21
23.5988
  0
LINE
  8
0
 10
-10.3373
 20
23.5988
 11
-10.4068
 21
23.568
  0
LINE
  8
0
 10
-10.4068
 20
23.568
 11
-10.4778
 21
23.5406
  0
LINE
  8
0
 10
-10.4778
 20
23.5406
 11
-10.55
 21
23.5167
  0
LINE
  8
0
 10
-10.55
 20
23.5167
 11
-10.6234
 21
23.4964
  0
LINE
  8
0
 10
-10.6234
 20
23.4964
 11
-10.6976
 21
23.4798
  0
LINE
  8
0
 10
-10.6976
 20
23.4798
 11
-10.7726
 21
23.4668
  0
LINE
  8
0
 10
-10.7726
 20
23.4668
 11
-10.8481
 21
23.4575
  0
LINE
  8
0
 10
-10.8481
 20
23.4575
 11
-10.9239
 21
23.4519
  0
LINE
  8
0
 10
-10.9239
 20
23.4519
 11
-11
 21
23.45
  0
LINE
  8
0
 10
-11
 20
23.45
 11
-11.076
 21
23.4519
  0
LINE
  8
0
 10
5.82335
 20
16.5493
 11
5.64713
 21
16.5623
  0
LINE
  8
0
 10
5.64713
 20
16.5623
 11
5.47176
 21
16.584
  0
LINE
  8
0
 10
5.47176
 20
16.584
 11
5.29767
 21
16.6142
  0
LINE
  8
0
 10
5.29767
 20
16.6142
 11
5.12526
 21
16.6529
  0
LINE
  8
0
 10
5.12526
 20
16.6529
 11
4.95497
 21
16.7
  0
LINE
  8
0
 10
4.95497
 20
16.7
 11
4.78719
 21
16.7554
  0
LINE
  8
0
 10
4.78719
 20
16.7554
 11
4.62233
 21
16.819
  0
LINE
  8
0
 10
4.62233
 20
16.819
 11
4.4608
 21
16.8906
  0
LINE
  8
0
 10
4.4608
 20
16.8906
 11
4.30296
 21
16.9701
  0
LINE
  8
0
 10
4.30296
 20
16.9701
 11
4.14922
 21
17.0572
  0
LINE
  8
0
 10
4.14922
 20
17.0572
 11
3.99994
 21
17.1517
  0
LINE
  8
0
 10
3.99994
 20
17.1517
 11
3.85547
 21
17.2534
  0
LINE
  8
0
 10
3.85547
 20
17.2534
 11
3.71617
 21
17.3622
  0
LINE
  8
0
 10
3.71617
 20
17.3622
 11
3.58238
 21
17.4776
  0
LINE
  8
0
 10
3.58238
 20
17.4776
 11
3.45441
 21
17.5994
  0
LINE
  8
0
 10
3.45441
 20
17.5994
 11
3.33257
 21
17.7274
  0
LINE
  8
0
 10
3.33257
 20
17.7274
 11
3.21715
 21
17.8612
  0
LINE
  8
0
 10
3.21715
 20
17.8612
 11
3.10844
 21
18.0005
  0
LINE
  8
0
 10
3.10844
 20
18.0005
 11
3.0067
 21
18.1449
  0
LINE
  8
0
 10
3.0067
 20
18.1449
 11
2.91217
 21
18.2942
  0
LINE
  8
0
 10
2.91217
 20
18.2942
 11
2.82507
 21
18.448
  0
LINE
  8
0
 10
2.82507
 20
18.448
 11
2.74564
 21
18.6058
  0
LINE
  8
0
 10
2.74564
 20
18.6058
 11
2.67403
 21
18.7673
  0
LINE
  8
0
 10
2.67403
 20
18.7673
 11
2.61043
 21
18.9322
  0
LINE
  8
0
 10
2.61043
 20
18.9322
 11
2.55501
 21
19.1
  0
LINE
  8
0
 10
2.55501
 20
19.1
 11
2.50787
 21
19.2703
  0
LINE
  8
0
 10
2.50787
 20
19.2703
 11
2.46916
 21
19.4427
  0
LINE
  8
0
 10
2.46916
 20
19.4427
 11
2.43895
 21
19.6168
  0
LINE
  8
0
 10
2.43895
 20
19.6168
 11
2.41733
 21
19.7921
  0
LINE
  8
0
 10
2.41733
 20
19.7921
 11
2.40433
 21
19.9684
  0
LINE
  8
0
 10
2.40433
 20
19.9684
 11
2.39999
 21
20.145
  0
LINE
  8
0
 10
2.39999
 20
20.145
 11
2.40433
 21
20.3216
  0
LINE
  8
0
 10
2.40433
 20
20.3216
 11
2.41733
 21
20.4978
  0
LINE
  8
0
 10
2.41733
 20
20.4978
 11
2.43895
 21
20.6732
  0
LINE
  8
0
 10
2.43895
 20
20.6732
 11
2.46916
 21
20.8473
  0
LINE
  8
0
 10
2.46916
 20
20.8473
 11
2.50787
 21
21.0197
  0
LINE
  8
0
 10
2.50787
 20
21.0197
 11
2.55501
 21
21.19
  0
LINE
  8
0
 10
2.55501
 20
21.19
 11
2.61043
 21
21.3578
  0
LINE
  8
0
 10
2.61043
 20
21.3578
 11
2.67403
 21
21.5227
  0
LINE
  8
0
 10
2.67403
 20
21.5227
 11
2.74564
 21
21.6842
  0
LINE
  8
0
 10
2.74564
 20
21.6842
 11
2.82507
 21
21.842
  0
LINE
  8
0
 10
2.82507
 20
21.842
 11
2.91217
 21
21.9958
  0
LINE
  8
0
 10
2.91217
 20
21.9958
 11
3.0067
 21
22.1451
  0
LINE
  8
0
 10
3.0067
 20
22.1451
 11
3.10844
 21
22.2895
  0
LINE
  8
0
 10
3.10844
 20
22.2895
 11
3.21715
 21
22.4288
  0
LINE
  8
0
 10
3.21715
 20
22.4288
 11
3.33257
 21
22.5626
  0
LINE
  8
0
 10
3.33257
 20
22.5626
 11
3.45441
 21
22.6906
  0
LINE
  8
0
 10
3.45441
 20
22.6906
 11
3.58238
 21
22.8124
  0
LINE
  8
0
 10
3.58238
 20
22.8124
 11
3.71617
 21
22.9278
  0
LINE
  8
0
 10
3.71617
 20
22.9278
 11
3.85547
 21
23.0365
  0
LINE
  8
0
 10
3.85547
 20
23.0365
 11
3.99994
 21
23.1383
  0
LINE
  8
0
 10
3.99994
 20
23.1383
 11
4.14922
 21
23.2328
  0
LINE
  8
0
 10
4.14922
 20
23.2328
 11
4.30296
 21
23.3199
  0
LINE
  8
0
 10
4.30296
 20
23.3199
 11
4.4608
 21
23.3994
  0
LINE
  8
0
 10
4.4608
 20
23.3994
 11
4.62233
 21
23.471
  0
LINE
  8
0
 10
4.62233
 20
23.471
 11
4.78719
 21
23.5345
  0
LINE
  8
0
 10
4.78719
 20
23.5345
 11
4.95497
 21
23.59
  0
LINE
  8
0
 10
4.95497
 20
23.59
 11
5.12526
 21
23.6371
  0
LINE
  8
0
 10
5.12526
 20
23.6371
 11
5.29767
 21
23.6758
  0
LINE
  8
0
 10
5.29767
 20
23.6758
 11
5.47176
 21
23.706
  0
LINE
  8
0
 10
5.47176
 20
23.706
 11
5.64713
 21
23.7277
  0
LINE
  8
0
 10
5.64713
 20
23.7277
 11
5.82335
 21
23.7407
  0
LINE
  8
0
 10
5.82335
 20
23.7407
 11
6
 21
23.745
  0
LINE
  8
0
 10
6
 20
23.745
 11
6.17664
 21
23.7407
  0
LINE
  8
0
 10
6.17664
 20
23.7407
 11
6.35286
 21
23.7277
  0
LINE
  8
0
 10
6.35286
 20
23.7277
 11
6.52823
 21
23.706
  0
LINE
  8
0
 10
6.52823
 20
23.706
 11
6.70232
 21
23.6758
  0
LINE
  8
0
 10
6.70232
 20
23.6758
 11
6.87473
 21
23.6371
  0
LINE
  8
0
 10
6.87473
 20
23.6371
 11
7.04501
 21
23.59
  0
LINE
  8
0
 10
7.04501
 20
23.59
 11
7.2128
 21
23.5345
  0
LINE
  8
0
 10
7.2128
 20
23.5345
 11
7.37766
 21
23.471
  0
LINE
  8
0
 10
7.37766
 20
23.471
 11
7.53918
 21
23.3994
  0
LINE
  8
0
 10
7.53918
 20
23.3994
 11
7.69702
 21
23.3199
  0
LINE
  8
0
 10
7.69702
 20
23.3199
 11
7.85077
 21
23.2328
  0
LINE
  8
0
 10
7.85077
 20
23.2328
 11
8.00005
 21
23.1383
  0
LINE
  8
0
 10
8.00005
 20
23.1383
 11
8.14452
 21
23.0365
  0
LINE
  8
0
 10
8.14452
 20
23.0365
 11
8.28381
 21
22.9278
  0
LINE
  8
0
 10
8.28381
 20
22.9278
 11
8.4176
 21
22.8124
  0
LINE
  8
0
 10
8.4176
 20
22.8124
 11
8.54558
 21
22.6906
  0
LINE
  8
0
 10
8.54558
 20
22.6906
 11
8.66742
 21
22.5626
  0
LINE
  8
0
 10
8.66742
 20
22.5626
 11
8.78284
 21
22.4288
  0
LINE
  8
0
 10
8.78284
 20
22.4288
 11
8.89154
 21
22.2895
  0
LINE
  8
0
 10
8.89154
 20
22.2895
 11
8.99329
 21
22.1451
  0
LINE
  8
0
 10
8.99329
 20
22.1451
 11
9.08781
 21
21.9958
  0
LINE
  8
0
 10
9.08781
 20
21.9958
 11
9.17491
 21
21.842
  0
LINE
  8
0
 10
9.17491
 20
21.842
 11
9.25435
 21
21.6842
  0
LINE
  8
0
 10
9.25435
 20
21.6842
 11
9.32596
 21
21.5227
  0
LINE
  8
0
 10
9.32596
 20
21.5227
 11
9.38956
 21
21.3578
  0
LINE
  8
0
 10
9.38956
 20
21.3578
 11
9.44498
 21
21.19
  0
LINE
  8
0
 10
9.44498
 20
21.19
 11
9.49211
 21
21.0197
  0
LINE
  8
0
 10
9.49211
 20
21.0197
 11
9.53082
 21
20.8473
  0
LINE
  8
0
 10
9.53082
 20
20.8473
 11
9.56104
 21
20.6732
  0
LINE
  8
0
 10
9.56104
 20
20.6732
 11
9.58266
 21
20.4978
  0
LINE
  8
0
 10
9.58266
 20
20.4978
 11
9.59566
 21
20.3216
  0
LINE
  8
0
 10
9.59566
 20
20.3216
 11
9.59999
 21
20.145
  0
LINE
  8
0
 10
9.59999
 20
20.145
 11
9.59566
 21
19.9684
  0
LINE
  8
0
 10
9.59566
 20
19.9684
 11
9.58266
 21
19.7921
  0
LINE
  8
0
 10
9.58266
 20
19.7921
 11
9.56104
 21
19.6168
  0
LINE
  8
0
 10
9.56104
 20
19.6168
 11
9.53082
 21
19.4427
  0
LINE
  8
0
 10
9.53082
 20
19.4427
 11
9.49211
 21
19.2703
  0
LINE
  8
0
 10
9.49211
 20
19.2703
 11
9.44498
 21
19.1
  0
LINE
  8
0
 10
9.44498
 20
19.1
 11
9.38956
 21
18.9322
  0
LINE
  8
0
 10
9.38956
 20
18.9322
 11
9.32596
 21
18.7673
  0
LINE
  8
0
 10
9.32596
 20
18.7673
 11
9.25435
 21
18.6058
  0
LINE
  8
0
 10
9.25435
 20
18.6058
 11
9.17491
 21
18.448
  0
LINE
  8
0
 10
9.17491
 20
18.448
 11
9.08781
 21
18.2942
  0
LINE
  8
0
 10
9.08781
 20
18.2942
 11
8.99329
 21
18.1449
  0
LINE
  8
0
 10
8.99329
 20
18.1449
 11
8.89154
 21
18.0005
  0
LINE
  8
0
 10
8.89154
 20
18.0005
 11
8.78284
 21
17.8612
  0
LINE
  8
0
 10
8.78284
 20
17.8612
 11
8.66742
 21
17.7274
  0
LINE
  8
0
 10
8.66742
 20
17.7274
 11
8.54558
 21
17.5994
  0
LINE
  8
0
 10
8.54558
 20
17.5994
 11
8.4176
 21
17.4776
  0
LINE
  8
0
 10
8.4176
 20
17.4776
 11
8.28381
 21
17.3622
  0
LINE
  8
0
 10
8.28381
 20
17.3622
 11
8.14452
 21
17.2534
  0
LINE
  8
0
 10
8.14452
 20
17.2534
 11
8.00005
 21
17.1517
  0
LINE
  8
0
 10
8.00005
 20
17.1517
 11
7.85077
 21
17.0572
  0
LINE
  8
0
 10
7.85077
 20
17.0572
 11
7.69702
 21
16.9701
  0
LINE
  8
0
 10
7.69702
 20
16.9701
 11
7.53918
 21
16.8906
  0
LINE
  8
0
 10
7.53918
 20
16.8906
 11
7.37766
 21
16.819
  0
LINE
  8
0
 10
7.37766
 20
16.819
 11
7.2128
 21
16.7554
  0
LINE
  8
0
 10
7.2128
 20
16.7554
 11
7.04501
 21
16.7
  0
LINE
  8
0
 10
7.04501
 20
16.7
 11
6.87473
 21
16.6529
  0
LINE
  8
0
 10
6.87473
 20
16.6529
 11
6.70232
 21
16.6142
  0
LINE
  8
0
 10
6.70232
 20
16.6142
 11
6.52823
 21
16.584
  0
LINE
  8
0
 10
6.52823
 20
16.584
 11
6.35286
 21
16.5623
  0
LINE
  8
0
 10
6.35286
 20
16.5623
 11
6.17664
 21
16.5493
  0
LINE
  8
0
 10
6.17664
 20
16.5493
 11
5.99998
 21
16.545
  0
LINE
  8
0
 10
5.99998
 20
16.545
 11
5.82335
 21
16.5493
  0
LINE
  8
0
 10
-6
 20
-15.145
 11
-6
 21
5.77142
  0
LINE
  8
0
 10
-6
 20
5.77142
 11
-5.93677
 21
5.84471
  0
LINE
  8
0
 10
-5.93677
 20
5.84471
 11
-5.73898
 21
6.09816
  0
LINE
  8
0
 10
-5.73898
 20
6.09816
 11
-5.55386
 21
6.36101
  0
LINE
  8
0
 10
-5.55386
 20
6.36101
 11
-5.38187
 21
6.63261
  0
LINE
  8
0
 10
-5.38187
 20
6.63261
 11
-5.2234
 21
6.91234
  0
LINE
  8
0
 10
-5.2234
 20
6.91234
 11
-5.07886
 21
7.19951
  0
LINE
  8
0
 10
-5.07886
 20
7.19951
 11
-4.94858
 21
7.49342
  0
LINE
  8
0
 10
-4.94858
 20
7.49342
 11
-4.83289
 21
7.79337
  0
LINE
  8
0
 10
-4.83289
 20
7.79337
 11
-4.73204
 21
8.09863
  0
LINE
  8
0
 10
-4.73204
 20
8.09863
 11
-4.64629
 21
8.40848
  0
LINE
  8
0
 10
-4.64629
 20
8.40848
 11
-4.57585
 21
8.72215
  0
LINE
  8
0
 10
-4.57585
 20
8.72215
 11
-4.52089
 21
9.03891
  0
LINE
  8
0
 10
-4.52089
 20
9.03891
 11
-4.48154
 21
9.35799
  0
LINE
  8
0
 10
-4.48154
 20
9.35799
 11
-4.45789
 21
9.6786
  0
LINE
  8
0
 10
-4.45789
 20
9.6786
 11
-4.45
 21
10
  0
LINE
  8
0
 10
-4.45
 20
10
 11
-4.45789
 21
10.3214
  0
LINE
  8
0
 10
-4.45789
 20
10.3214
 11
-4.48154
 21
10.642
  0
LINE
  8
0
 10
-4.48154
 20
10.642
 11
-4.52089
 21
10.9611
  0
LINE
  8
0
 10
-4.52089
 20
10.9611
 11
-4.57585
 21
11.2778
  0
LINE
  8
0
 10
-4.57585
 20
11.2778
 11
-4.64629
 21
11.5915
  0
LINE
  8
0
 10
-4.64629
 20
11.5915
 11
-4.73204
 21
11.9014
  0
LINE
  8
0
 10
-4.73204
 20
11.9014
 11
-4.83289
 21
12.2066
  0
LINE
  8
0
 10
-4.83289
 20
12.2066
 11
-4.94858
 21
12.5066
  0
LINE
  8
0
 10
-4.94858
 20
12.5066
 11
-5.07886
 21
12.8005
  0
LINE
  8
0
 10
-5.07886
 20
12.8005
 11
-5.2234
 21
13.0876
  0
LINE
  8
0
 10
-5.2234
 20
13.0876
 11
-5.38187
 21
13.3674
  0
LINE
  8
0
 10
-5.38187
 20
13.3674
 11
-5.55386
 21
13.639
  0
LINE
  8
0
 10
-5.55386
 20
13.639
 11
-5.73898
 21
13.9018
  0
LINE
  8
0
 10
-5.73898
 20
13.9018
 11
-5.93677
 21
14.1553
  0
LINE
  8
0
 10
-5.93677
 20
14.1553
 11
-6
 21
14.2286
  0
LINE
  8
0
 10
-6
 20
14.2286
 11
-6
 21
18.4207
  0
LINE
  8
0
 10
-6
 20
18.4207
 11
-1.98621
 21
16.9598
  0
LINE
  8
0
 10
-1.98621
 20
16.9598
 11
-1.94536
 21
16.8539
  0
LINE
  8
0
 10
-1.94536
 20
16.8539
 11
-1.77431
 21
16.468
  0
LINE
  8
0
 10
-1.77431
 20
16.468
 11
-1.58452
 21
16.091
  0
LINE
  8
0
 10
-1.58452
 20
16.091
 11
-1.37646
 21
15.7237
  0
LINE
  8
0
 10
-1.37646
 20
15.7237
 11
-1.15063
 21
15.3671
  0
LINE
  8
0
 10
-1.15063
 20
15.3671
 11
-0.907578
 21
15.022
  0
LINE
  8
0
 10
-0.907578
 20
15.022
 11
-0.647888
 21
14.6892
  0
LINE
  8
0
 10
-0.647888
 20
14.6892
 11
-0.372177
 21
14.3696
  0
LINE
  8
0
 10
-0.372177
 20
14.3696
 11
-0.0811157
 21
14.0639
  0
LINE
  8
0
 10
-0.0811157
 20
14.0639
 11
0.224579
 21
13.7728
  0
LINE
  8
0
 10
0.224579
 20
13.7728
 11
0.544205
 21
13.4971
  0
LINE
  8
0
 10
0.544205
 20
13.4971
 11
0.876984
 21
13.2374
  0
LINE
  8
0
 10
0.876984
 20
13.2374
 11
1.22209
 21
12.9944
  0
LINE
  8
0
 10
1.22209
 20
12.9944
 11
1.5787
 21
12.7685
  0
LINE
  8
0
 10
1.5787
 20
12.7685
 11
1.94598
 21
12.5605
  0
LINE
  8
0
 10
1.94598
 20
12.5605
 11
2.32301
 21
12.3707
  0
LINE
  8
0
 10
2.32301
 20
12.3707
 11
2.63908
 21
12.2306
  0
LINE
  8
0
 10
2.63908
 20
12.2306
 11
15.4045
 21
-15.145
  0
LINE
  8
0
 10
15.4045
 20
-15.145
 11
-6
 21
-15.145
  0
LINE
  8
0
 10
-11.076
 20
8.45186
 11
-11.1519
 21
8.45746
  0
LINE
  8
0
 10
-11.1519
 20
8.45746
 11
-11.2274
 21
8.46677
  0
LINE
  8
0
 10
-11.2274
 20
8.46677
 11
-11.3024
 21
8.47978
  0
LINE
  8
0
 10
-11.3024
 20
8.47978
 11
-11.3766
 21
8.49644
  0
LINE
  8
0
 10
-11.3766
 20
8.49644
 11
-11.4499
 21
8.51674
  0
LINE
  8
0
 10
-11.4499
 20
8.51674
 11
-11.5222
 21
8.5406
  0
LINE
  8
0
 10
-11.5222
 20
8.5406
 11
-11.5932
 21
8.56798
  0
LINE
  8
0
 10
-11.5932
 20
8.56798
 11
-11.6627
 21
8.59882
  0
LINE
  8
0
 10
-11.6627
 20
8.59882
 11
-11.7307
 21
8.63301
  0
LINE
  8
0
 10
-11.7307
 20
8.63301
 11
-11.7968
 21
8.67052
  0
LINE
  8
0
 10
-11.7968
 20
8.67052
 11
-11.8611
 21
8.71121
  0
LINE
  8
0
 10
-11.8611
 20
8.71121
 11
-11.9233
 21
8.75502
  0
LINE
  8
0
 10
-11.9233
 20
8.75502
 11
-11.9833
 21
8.80182
  0
LINE
  8
0
 10
-11.9833
 20
8.80182
 11
-12.0409
 21
8.85152
  0
LINE
  8
0
 10
-12.0409
 20
8.85152
 11
-12.096
 21
8.90398
  0
LINE
  8
0
 10
-12.096
 20
8.90398
 11
-12.1485
 21
8.95908
  0
LINE
  8
0
 10
-12.1485
 20
8.95908
 11
-12.1982
 21
9.01668
  0
LINE
  8
0
 10
-12.1982
 20
9.01668
 11
-12.245
 21
9.07666
  0
LINE
  8
0
 10
-12.245
 20
9.07666
 11
-12.2888
 21
9.13885
  0
LINE
  8
0
 10
-12.2888
 20
9.13885
 11
-12.3295
 21
9.20314
  0
LINE
  8
0
 10
-12.3295
 20
9.20314
 11
-12.367
 21
9.26933
  0
LINE
  8
0
 10
-12.367
 20
9.26933
 11
-12.4012
 21
9.33728
  0
LINE
  8
0
 10
-12.4012
 20
9.33728
 11
-12.432
 21
9.40683
  0
LINE
  8
0
 10
-12.432
 20
9.40683
 11
-12.4594
 21
9.47781
  0
LINE
  8
0
 10
-12.4594
 20
9.47781
 11
-12.4832
 21
9.55005
  0
LINE
  8
0
 10
-12.4832
 20
9.55005
 11
-12.5035
 21
9.62337
  0
LINE
  8
0
 10
-12.5035
 20
9.62337
 11
-12.5202
 21
9.6976
  0
LINE
  8
0
 10
-12.5202
 20
9.6976
 11
-12.5332
 21
9.77257
  0
LINE
  8
0
 10
-12.5332
 20
9.77257
 11
-12.5425
 21
9.84807
  0
LINE
  8
0
 10
-12.5425
 20
9.84807
 11
-12.5481
 21
9.92393
  0
LINE
  8
0
 10
-12.5481
 20
9.92393
 11
-12.55
 21
10
  0
LINE
  8
0
 10
-12.55
 20
10
 11
-12.5481
 21
10.076
  0
LINE
  8
0
 10
-12.5481
 20
10.076
 11
-12.5425
 21
10.1519
  0
LINE
  8
0
 10
-12.5425
 20
10.1519
 11
-12.5332
 21
10.2274
  0
LINE
  8
0
 10
-12.5332
 20
10.2274
 11
-12.5202
 21
10.3024
  0
LINE
  8
0
 10
-12.5202
 20
10.3024
 11
-12.5035
 21
10.3766
  0
LINE
  8
0
 10
-12.5035
 20
10.3766
 11
-12.4832
 21
10.4499
  0
LINE
  8
0
 10
-12.4832
 20
10.4499
 11
-12.4594
 21
10.5222
  0
LINE
  8
0
 10
-12.4594
 20
10.5222
 11
-12.432
 21
10.5932
  0
LINE
  8
0
 10
-12.432
 20
10.5932
 11
-12.4012
 21
10.6627
  0
LINE
  8
0
 10
-12.4012
 20
10.6627
 11
-12.367
 21
10.7307
  0
LINE
  8
0
 10
-12.367
 20
10.7307
 11
-12.3295
 21
10.7968
  0
LINE
  8
0
 10
-12.3295
 20
10.7968
 11
-12.2888
 21
10.8611
  0
LINE
  8
0
 10
-12.2888
 20
10.8611
 11
-12.245
 21
10.9233
  0
LINE
  8
0
 10
-12.245
 20
10.9233
 11
-12.1982
 21
10.9833
  0
LINE
  8
0
 10
-12.1982
 20
10.9833
 11
-12.1485
 21
11.0409
  0
LINE
  8
0
 10
-12.1485
 20
11.0409
 11
-12.096
 21
11.096
  0
LINE
  8
0
 10
-12.096
 20
11.096
 11
-12.0409
 21
11.1485
  0
LINE
  8
0
 10
-12.0409
 20
11.1485
 11
-11.9833
 21
11.1982
  0
LINE
  8
0
 10
-11.9833
 20
11.1982
 11
-11.9233
 21
11.245
  0
LINE
  8
0
 10
-11.9233
 20
11.245
 11
-11.8611
 21
11.2888
  0
LINE
  8
0
 10
-11.8611
 20
11.2888
 11
-11.7968
 21
11.3295
  0
LINE
  8
0
 10
-11.7968
 20
11.3295
 11
-11.7307
 21
11.367
  0
LINE
  8
0
 10
-11.7307
 20
11.367
 11
-11.6627
 21
11.4012
  0
LINE
  8
0
 10
-11.6627
 20
11.4012
 11
-11.5932
 21
11.432
  0
LINE
  8
0
 10
-11.5932
 20
11.432
 11
-11.5222
 21
11.4594
  0
LINE
  8
0
 10
-11.5222
 20
11.4594
 11
-11.4499
 21
11.4832
  0
LINE
  8
0
 10
-11.4499
 20
11.4832
 11
-11.3766
 21
11.5035
  0
LINE
  8
0
 10
-11.3766
 20
11.5035
 11
-11.3024
 21
11.5202
  0
LINE
  8
0
 10
-11.3024
 20
11.5202
 11
-11.2274
 21
11.5332
  0
LINE
  8
0
 10
-11.2274
 20
11.5332
 11
-11.1519
 21
11.5425
  0
LINE
  8
0
 10
-11.1519
 20
11.5425
 11
-11.076
 21
11.5481
  0
LINE
  8
0
 10
-11.076
 20
11.5481
 11
-11
 21
11.55
  0
LINE
  8
0
 10
-11
 20
11.55
 11
-10.9239
 21
11.5481
  0
LINE
  8
0
 10
-10.9239
 20
11.5481
 11
-10.8481
 21
11.5425
  0
LINE
  8
0
 10
-10.8481
 20
11.5425
 11
-10.7726
 21
11.5332
  0
LINE
  8
0
 10
-10.7726
 20
11.5332
 11
-10.6976
 21
11.5202
  0
LINE
  8
0
 10
-10.6976
 20
11.5202
 11
-10.6234
 21
11.5035
  0
LINE
  8
0
 10
-10.6234
 20
11.5035
 11
-10.55
 21
11.4832
  0
LINE
  8
0
 10
-10.55
 20
11.4832
 11
-10.4778
 21
11.4594
  0
LINE
  8
0
 10
-10.4778
 20
11.4594
 11
-10.4068
 21
11.432
  0
LINE
  8
0
 10
-10.4068
 20
11.432
 11
-10.3373
 21
11.4012
  0
LINE
  8
0
 10
-10.3373
 20
11.4012
 11
-10.2693
 21
11.367
  0
LINE
  8
0
 10
-10.2693
 20
11.367
 11
-10.2031
 21
11.3295
  0
LINE
  8
0
 10
-10.2031
 20
11.3295
 11
-10.1389
 21
11.2888
  0
LINE
  8
0
 10
-10.1389
 20
11.2888
 11
-10.0767
 21
11.245
  0
LINE
  8
0
 10
-10.0767
 20
11.245
 11
-10.0167
 21
11.1982
  0
LINE
  8
0
 10
-10.0167
 20
11.1982
 11
-9.95908
 21
11.1485
  0
LINE
  8
0
 10
-9.95908
 20
11.1485
 11
-9.90398
 21
11.096
  0
LINE
  8
0
 10
-9.90398
 20
11.096
 11
-9.85152
 21
11.0409
  0
LINE
  8
0
 10
-9.85152
 20
11.0409
 11
-9.80182
 21
10.9833
  0
LINE
  8
0
 10
-9.80182
 20
10.9833
 11
-9.75502
 21
10.9233
  0
LINE
  8
0
 10
-9.75502
 20
10.9233
 11
-9.71121
 21
10.8611
  0
LINE
  8
0
 10
-9.71121
 20
10.8611
 11
-9.67052
 21
10.7968
  0
LINE
  8
0
 10
-9.67052
 20
10.7968
 11
-9.63301
 21
10.7307
  0
LINE
  8
0
 10
-9.63301
 20
10.7307
 11
-9.59882
 21
10.6627
  0
LINE
  8
0
 10
-9.59882
 20
10.6627
 11
-9.56798
 21
10.5932
  0
LINE
  8
0
 10
-9.56798
 20
10.5932
 11
-9.5406
 21
10.5222
  0
LINE
  8
0
 10
-9.5406
 20
10.5222
 11
-9.51674
 21
10.4499
  0
LINE
  8
0
 10
-9.51674
 20
10.4499
 11
-9.49644
 21
10.3766
  0
LINE
  8
0
 10
-9.49644
 20
10.3766
 11
-9.47978
 21
10.3024
  0
LINE
  8
0
 10
-9.47978
 20
10.3024
 11
-9.46677
 21
10.2274
  0
LINE
  8
0
 10
-9.46677
 20
10.2274
 11
-9.45746
 21
10.1519
  0
LINE
  8
0
 10
-9.45746
 20
10.1519
 11
-9.45186
 21
10.076
  0
LINE
  8
0
 10
-9.45186
 20
10.076
 11
-9.45
 21
10
  0
LINE
  8
0
 10
-9.45
 20
10
 11
-9.45186
 21
9.92393
  0
LINE
  8
0
 10
-9.45186
 20
9.92393
 11
-9.45746
 21
9.84807
  0
LINE
  8
0
 10
-9.45746
 20
9.84807
 11
-9.46677
 21
9.77257
  0
LINE
  8
0
 10
-9.46677
 20
9.77257
 11
-9.47978
 21
9.6976
  0
LINE
  8
0
 10
-9.47978
 20
9.6976
 11
-9.49644
 21
9.62337
  0
LINE
  8
0
 10
-9.49644
 20
9.62337
 11
-9.51674
 21
9.55005
  0
LINE
  8
0
 10
-9.51674
 20
9.55005
 11
-9.5406
 21
9.47781
  0
LINE
  8
0
 10
-9.5406
 20
9.47781
 11
-9.56798
 21
9.40683
  0
LINE
  8
0
 10
-9.56798
 20
9.40683
 11
-9.59882
 21
9.33728
  0
LINE
  8
0
 10
-9.59882
 20
9.33728
 11
-9.63301
 21
9.26933
  0
LINE
  8
0
 10
-9.63301
 20
9.26933
 11
-9.67052
 21
9.20314
  0
LINE
  8
0
 10
-9.67052
 20
9.20314
 11
-9.71121
 21
9.13885
  0
LINE
  8
0
 10
-9.71121
 20
9.13885
 11
-9.75502
 21
9.07666
  0
LINE
  8
0
 10
-9.75502
 20
9.07666
 11
-9.80182
 21
9.01668
  0
LINE
  8
0
 10
-9.80182
 20
9.01668
 11
-9.85152
 21
8.95908
  0
LINE
  8
0
 10
-9.85152
 20
8.95908
 11
-9.90398
 21
8.90398
  0
LINE
  8
0
 10
-9.90398
 20
8.90398
 11
-9.95908
 21
8.85152
  0
LINE
  8
0
 10
-9.95908
 20
8.85152
 11
-10.0167
 21
8.80182
  0
LINE
  8
0
 10
-10.0167
 20
8.80182
 11
-10.0767
 21
8.75502
  0
LINE
  8
0
 10
-10.0767
 20
8.75502
 11
-10.1389
 21
8.71121
  0
LINE
  8
0
 10
-10.1389
 20
8.71121
 11
-10.2031
 21
8.67052
  0
LINE
  8
0
 10
-10.2031
 20
8.67052
 11
-10.2693
 21
8.63301
  0
LINE
  8
0
 10
-10.2693
 20
8.63301
 11
-10.3373
 21
8.59882
  0
LINE
  8
0
 10
-10.3373
 20
8.59882
 11
-10.4068
 21
8.56798
  0
LINE
  8
0
 10
-10.4068
 20
8.56798
 11
-10.4778
 21
8.5406
  0
LINE
  8
0
 10
-10.4778
 20
8.5406
 11
-10.55
 21
8.51674
  0
LINE
  8
0
 10
-10.55
 20
8.51674
 11
-10.6234
 21
8.49644
  0
LINE
  8
0
 10
-10.6234
 20
8.49644
 11
-10.6976
 21
8.47978
  0
LINE
  8
0
 10
-10.6976
 20
8.47978
 11
-10.7726
 21
8.46677
  0
LINE
  8
0
 10
-10.7726
 20
8.46677
 11
-10.8481
 21
8.45746
  0
LINE
  8
0
 10
-10.8481
 20
8.45746
 11
-10.9239
 21
8.45186
  0
LINE
  8
0
 10
-10.9239
 20
8.45186
 11
-11
 21
8.45
  0
LINE
  8
0
 10
-11
 20
8.45
 11
-11.076
 21
8.45186
  0
LINE
  8
0
 10
-30.451
 20
-1.54813
 11
-30.5269
 21
-1.54253
  0
LINE
  8
0
 10
-30.5269
 20
-1.54253
 11
-30.6024
 21
-1.53322
  0
LINE
  8
0
 10
-30.6024
 20
-1.53322
 11
-30.6774
 21
-1.5202
  0
LINE
  8
0
 10
-30.6774
 20
-1.5202
 11
-30.7516
 21
-1.50354
  0
LINE
  8
0
 10
-30.7516
 20
-1.50354
 11
-30.8249
 21
-1.48325
  0
LINE
  8
0
 10
-30.8249
 20
-1.48325
 11
-30.8972
 21
-1.45938
  0
LINE
  8
0
 10
-30.8972
 20
-1.45938
 11
-30.9682
 21
-1.43201
  0
LINE
  8
0
 10
-30.9682
 20
-1.43201
 11
-31.0377
 21
-1.40117
  0
LINE
  8
0
 10
-31.0377
 20
-1.40117
 11
-31.1057
 21
-1.36697
  0
LINE
  8
0
 10
-31.1057
 20
-1.36697
 11
-31.1719
 21
-1.32947
  0
LINE
  8
0
 10
-31.1719
 20
-1.32947
 11
-31.2361
 21
-1.28877
  0
LINE
  8
0
 10
-31.2361
 20
-1.28877
 11
-31.2983
 21
-1.24496
  0
LINE
  8
0
 10
-31.2983
 20
-1.24496
 11
-31.3583
 21
-1.19817
  0
LINE
  8
0
 10
-31.3583
 20
-1.19817
 11
-31.4159
 21
-1.14847
  0
LINE
  8
0
 10
-31.4159
 20
-1.14847
 11
-31.471
 21
-1.09601
  0
LINE
  8
0
 10
-31.471
 20
-1.09601
 11
-31.5235
 21
-1.04091
  0
LINE
  8
0
 10
-31.5235
 20
-1.04091
 11
-31.5732
 21
-0.983307
  0
LINE
  8
0
 10
-31.5732
 20
-0.983307
 11
-31.62
 21
-0.923325
  0
LINE
  8
0
 10
-31.62
 20
-0.923325
 11
-31.6638
 21
-0.86113
  0
LINE
  8
0
 10
-31.6638
 20
-0.86113
 11
-31.7045
 21
-0.796844
  0
LINE
  8
0
 10
-31.7045
 20
-0.796844
 11
-31.742
 21
-0.730652
  0
LINE
  8
0
 10
-31.742
 20
-0.730652
 11
-31.7762
 21
-0.662704
  0
LINE
  8
0
 10
-31.7762
 20
-0.662704
 11
-31.807
 21
-0.593155
  0
LINE
  8
0
 10
-31.807
 20
-0.593155
 11
-31.8344
 21
-0.522171
  0
LINE
  8
0
 10
-31.8344
 20
-0.522171
 11
-31.8582
 21
-0.449936
  0
LINE
  8
0
 10
-31.8582
 20
-0.449936
 11
-31.8785
 21
-0.376617
  0
LINE
  8
0
 10
-31.8785
 20
-0.376617
 11
-31.8952
 21
-0.302383
  0
LINE
  8
0
 10
-31.8952
 20
-0.302383
 11
-31.9082
 21
-0.227417
  0
LINE
  8
0
 10
-31.9082
 20
-0.227417
 11
-31.9175
 21
-0.151917
  0
LINE
  8
0
 10
-31.9175
 20
-0.151917
 11
-31.9231
 21
-0.0760498
  0
LINE
  8
0
 10
-31.9231
 20
-0.0760498
 11
-31.925
 21
0
  0
LINE
  8
0
 10
-31.925
 20
0
 11
-31.9231
 21
0.0760498
  0
LINE
  8
0
 10
-31.9231
 20
0.0760498
 11
-31.9175
 21
0.151917
  0
LINE
  8
0
 10
-31.9175
 20
0.151917
 11
-31.9082
 21
0.227417
  0
LINE
  8
0
 10
-31.9082
 20
0.227417
 11
-31.8952
 21
0.302383
  0
LINE
  8
0
 10
-31.8952
 20
0.302383
 11
-31.8785
 21
0.376617
  0
LINE
  8
0
 10
-31.8785
 20
0.376617
 11
-31.8582
 21
0.449936
  0
LINE
  8
0
 10
-31.8582
 20
0.449936
 11
-31.8344
 21
0.522171
  0
LINE
  8
0
 10
-31.8344
 20
0.522171
 11
-31.807
 21
0.593155
  0
LINE
  8
0
 10
-31.807
 20
0.593155
 11
-31.7762
 21
0.662704
  0
LINE
  8
0
 10
-31.7762
 20
0.662704
 11
-31.742
 21
0.730652
  0
LINE
  8
0
 10
-31.742
 20
0.730652
 11
-31.7045
 21
0.796844
  0
LINE
  8
0
 10
-31.7045
 20
0.796844
 11
-31.6638
 21
0.86113
  0
LINE
  8
0
 10
-31.6638
 20
0.86113
 11
-31.62
 21
0.923325
  0
LINE
  8
0
 10
-31.62
 20
0.923325
 11
-31.5732
 21
0.983307
  0
LINE
  8
0
 10
-31.5732
 20
0.983307
 11
-31.5235
 21
1.04091
  0
LINE
  8
0
 10
-31.5235
 20
1.04091
 11
-31.471
 21
1.09601
  0
LINE
  8
0
 10
-31.471
 20
1.09601
 11
-31.4159
 21
1.14847
  0
LINE
  8
0
 10
-31.4159
 20
1.14847
 11
-31.3583
 21
1.19817
  0
LINE
  8
0
 10
-31.3583
 20
1.19817
 11
-31.2983
 21
1.24496
  0
LINE
  8
0
 10
-31.2983
 20
1.24496
 11
-31.2361
 21
1.28877
  0
LINE
  8
0
 10
-31.2361
 20
1.28877
 11
-31.1719
 21
1.32947
  0
LINE
  8
0
 10
-31.1719
 20
1.32947
 11
-31.1057
 21
1.36697
  0
LINE
  8
0
 10
-31.1057
 20
1.36697
 11
-31.0377
 21
1.40117
  0
LINE
  8
0
 10
-31.0377
 20
1.40117
 11
-30.9682
 21
1.43201
  0
LINE
  8
0
 10
-30.9682
 20
1.43201
 11
-30.8972
 21
1.45938
  0
LINE
  8
0
 10
-30.8972
 20
1.45938
 11
-30.8249
 21
1.48325
  0
LINE
  8
0
 10
-30.8249
 20
1.48325
 11
-30.7516
 21
1.50354
  0
LINE
  8
0
 10
-30.7516
 20
1.50354
 11
-30.6774
 21
1.5202
  0
LINE
  8
0
 10
-30.6774
 20
1.5202
 11
-30.6024
 21
1.53322
  0
LINE
  8
0
 10
-30.6024
 20
1.53322
 11
-30.5269
 21
1.54253
  0
LINE
  8
0
 10
-30.5269
 20
1.54253
 11
-30.451
 21
1.54813
  0
LINE
  8
0
 10
-30.451
 20
1.54813
 11
-30.375
 21
1.54999
  0
LINE
  8
0
 10
-30.375
 20
1.54999
 11
-30.2989
 21
1.54813
  0
LINE
  8
0
 10
-30.2989
 20
1.54813
 11
-30.2231
 21
1.54253
  0
LINE
  8
0
 10
-30.2231
 20
1.54253
 11
-30.1476
 21
1.53322
  0
LINE
  8
0
 10
-30.1476
 20
1.53322
 11
-30.0726
 21
1.5202
  0
LINE
  8
0
 10
-30.0726
 20
1.5202
 11
-29.9984
 21
1.50354
  0
LINE
  8
0
 10
-29.9984
 20
1.50354
 11
-29.925
 21
1.48325
  0
LINE
  8
0
 10
-29.925
 20
1.48325
 11
-29.8528
 21
1.45938
  0
LINE
  8
0
 10
-29.8528
 20
1.45938
 11
-29.7818
 21
1.43201
  0
LINE
  8
0
 10
-29.7818
 20
1.43201
 11
-29.7123
 21
1.40117
  0
LINE
  8
0
 10
-29.7123
 20
1.40117
 11
-29.6443
 21
1.36697
  0
LINE
  8
0
 10
-29.6443
 20
1.36697
 11
-29.5781
 21
1.32947
  0
LINE
  8
0
 10
-29.5781
 20
1.32947
 11
-29.5139
 21
1.28877
  0
LINE
  8
0
 10
-29.5139
 20
1.28877
 11
-29.4517
 21
1.24496
  0
LINE
  8
0
 10
-29.4517
 20
1.24496
 11
-29.3917
 21
1.19817
  0
LINE
  8
0
 10
-29.3917
 20
1.19817
 11
-29.3341
 21
1.14847
  0
LINE
  8
0
 10
-29.3341
 20
1.14847
 11
-29.279
 21
1.09601
  0
LINE
  8
0
 10
-29.279
 20
1.09601
 11
-29.2265
 21
1.04091
  0
LINE
  8
0
 10
-29.2265
 20
1.04091
 11
-29.1768
 21
0.983307
  0
LINE
  8
0
 10
-29.1768
 20
0.983307
 11
-29.13
 21
0.923325
  0
LINE
  8
0
 10
-29.13
 20
0.923325
 11
-29.0862
 21
0.86113
  0
LINE
  8
0
 10
-29.0862
 20
0.86113
 11
-29.0455
 21
0.796844
  0
LINE
  8
0
 10
-29.0455
 20
0.796844
 11
-29.008
 21
0.730652
  0
LINE
  8
0
 10
-29.008
 20
0.730652
 11
-28.9738
 21
0.662704
  0
LINE
  8
0
 10
-28.9738
 20
0.662704
 11
-28.943
 21
0.593155
  0
LINE
  8
0
 10
-28.943
 20
0.593155
 11
-28.9156
 21
0.522171
  0
LINE
  8
0
 10
-28.9156
 20
0.522171
 11
-28.8917
 21
0.449936
  0
LINE
  8
0
 10
-28.8917
 20
0.449936
 11
-28.8714
 21
0.376617
  0
LINE
  8
0
 10
-28.8714
 20
0.376617
 11
-28.8548
 21
0.302383
  0
LINE
  8
0
 10
-28.8548
 20
0.302383
 11
-28.8418
 21
0.227417
  0
LINE
  8
0
 10
-28.8418
 20
0.227417
 11
-28.8325
 21
0.151917
  0
LINE
  8
0
 10
-28.8325
 20
0.151917
 11
-28.8269
 21
0.0760498
  0
LINE
  8
0
 10
-28.8269
 20
0.0760498
 11
-28.825
 21
0
  0
LINE
  8
0
 10
-28.825
 20
0
 11
-28.8269
 21
-0.0760498
  0
LINE
  8
0
 10
-28.8269
 20
-0.0760498
 11
-28.8325
 21
-0.151917
  0
LINE
  8
0
 10
-28.8325
 20
-0.151917
 11
-28.8418
 21
-0.227417
  0
LINE
  8
0
 10
-28.8418
 20
-0.227417
 11
-28.8548
 21
-0.302383
  0
LINE
  8
0
 10
-28.8548
 20
-0.302383
 11
-28.8714
 21
-0.376617
  0
LINE
  8
0
 10
-28.8714
 20
-0.376617
 11
-28.8917
 21
-0.449936
  0
LINE
  8
0
 10
-28.8917
 20
-0.449936
 11
-28.9156
 21
-0.522171
  0
LINE
  8
0
 10
-28.9156
 20
-0.522171
 11
-28.943
 21
-0.593155
  0
LINE
  8
0
 10
-28.943
 20
-0.593155
 11
-28.9738
 21
-0.662704
  0
LINE
  8
0
 10
-28.9738
 20
-0.662704
 11
-29.008
 21
-0.730652
  0
LINE
  8
0
 10
-29.008
 20
-0.730652
 11
-29.0455
 21
-0.796844
  0
LINE
  8
0
 10
-29.0455
 20
-0.796844
 11
-29.0862
 21
-0.86113
  0
LINE
  8
0
 10
-29.0862
 20
-0.86113
 11
-29.13
 21
-0.923325
  0
LINE
  8
0
 10
-29.13
 20
-0.923325
 11
-29.1768
 21
-0.983307
  0
LINE
  8
0
 10
-29.1768
 20
-0.983307
 11
-29.2265
 21
-1.04091
  0
LINE
  8
0
 10
-29.2265
 20
-1.04091
 11
-29.279
 21
-1.09601
  0
LINE
  8
0
 10
-29.279
 20
-1.09601
 11
-29.3341
 21
-1.14847
  0
LINE
  8
0
 10
-29.3341
 20
-1.14847
 11
-29.3917
 21
-1.19817
  0
LINE
  8
0
 10
-29.3917
 20
-1.19817
 11
-29.4517
 21
-1.24496
  0
LINE
  8
0
 10
-29.4517
 20
-1.24496
 11
-29.5139
 21
-1.28877
  0
LINE
  8
0
 10
-29.5139
 20
-1.28877
 11
-29.5781
 21
-1.32947
  0
LINE
  8
0
 10
-29.5781
 20
-1.32947
 11
-29.6443
 21
-1.36697
  0
LINE
  8
0
 10
-29.6443
 20
-1.36697
 11
-29.7123
 21
-1.40117
  0
LINE
  8
0
 10
-29.7123
 20
-1.40117
 11
-29.7818
 21
-1.43201
  0
LINE
  8
0
 10
-29.7818
 20
-1.43201
 11
-29.8528
 21
-1.45938
  0
LINE
  8
0
 10
-29.8528
 20
-1.45938
 11
-29.925
 21
-1.48325
  0
LINE
  8
0
 10
-29.925
 20
-1.48325
 11
-29.9984
 21
-1.50354
  0
LINE
  8
0
 10
-29.9984
 20
-1.50354
 11
-30.0726
 21
-1.5202
  0
LINE
  8
0
 10
-30.0726
 20
-1.5202
 11
-30.1476
 21
-1.53322
  0
LINE
  8
0
 10
-30.1476
 20
-1.53322
 11
-30.2231
 21
-1.54253
  0
LINE
  8
0
 10
-30.2231
 20
-1.54253
 11
-30.2989
 21
-1.54813
  0
LINE
  8
0
 10
-30.2989
 20
-1.54813
 11
-30.375
 21
-1.54999
  0
LINE
  8
0
 10
-30.375
 20
-1.54999
 11
-30.451
 21
-1.54813
  0
LINE
  8
0
 10
-26.4977
 20
-22.642
 11
-26.62
 21
-22.6329
  0
LINE
  8
0
 10
-26.62
 20
-22.6329
 11
-26.7418
 21
-22.6179
  0
LINE
  8
0
 10
-26.7418
 20
-22.6179
 11
-26.8627
 21
-22.597
  0
LINE
  8
0
 10
-26.8627
 20
-22.597
 11
-26.9824
 21
-22.5701
  0
LINE
  8
0
 10
-26.9824
 20
-22.5701
 11
-27.1007
 21
-22.5373
  0
LINE
  8
0
 10
-27.1007
 20
-22.5373
 11
-27.2172
 21
-22.4989
  0
LINE
  8
0
 10
-27.2172
 20
-22.4989
 11
-27.3317
 21
-22.4547
  0
LINE
  8
0
 10
-27.3317
 20
-22.4547
 11
-27.4439
 21
-22.405
  0
LINE
  8
0
 10
-27.4439
 20
-22.405
 11
-27.5535
 21
-22.3498
  0
LINE
  8
0
 10
-27.5535
 20
-22.3498
 11
-27.6602
 21
-22.2893
  0
LINE
  8
0
 10
-27.6602
 20
-22.2893
 11
-27.7639
 21
-22.2237
  0
LINE
  8
0
 10
-27.7639
 20
-22.2237
 11
-27.8642
 21
-22.153
  0
LINE
  8
0
 10
-27.8642
 20
-22.153
 11
-27.961
 21
-22.0775
  0
LINE
  8
0
 10
-27.961
 20
-22.0775
 11
-28.0539
 21
-21.9974
  0
LINE
  8
0
 10
-28.0539
 20
-21.9974
 11
-28.1428
 21
-21.9128
  0
LINE
  8
0
 10
-28.1428
 20
-21.9128
 11
-28.2274
 21
-21.8239
  0
LINE
  8
0
 10
-28.2274
 20
-21.8239
 11
-28.3075
 21
-21.731
  0
LINE
  8
0
 10
-28.3075
 20
-21.731
 11
-28.383
 21
-21.6342
  0
LINE
  8
0
 10
-28.383
 20
-21.6342
 11
-28.4537
 21
-21.5339
  0
LINE
  8
0
 10
-28.4537
 20
-21.5339
 11
-28.5193
 21
-21.4303
  0
LINE
  8
0
 10
-28.5193
 20
-21.4303
 11
-28.5798
 21
-21.3235
  0
LINE
  8
0
 10
-28.5798
 20
-21.3235
 11
-28.635
 21
-21.2139
  0
LINE
  8
0
 10
-28.635
 20
-21.2139
 11
-28.6847
 21
-21.1017
  0
LINE
  8
0
 10
-28.6847
 20
-21.1017
 11
-28.7289
 21
-20.9872
  0
LINE
  8
0
 10
-28.7289
 20
-20.9872
 11
-28.7673
 21
-20.8707
  0
LINE
  8
0
 10
-28.7673
 20
-20.8707
 11
-28.8001
 21
-20.7524
  0
LINE
  8
0
 10
-28.8001
 20
-20.7524
 11
-28.827
 21
-20.6327
  0
LINE
  8
0
 10
-28.827
 20
-20.6327
 11
-28.8479
 21
-20.5118
  0
LINE
  8
0
 10
-28.8479
 20
-20.5118
 11
-28.863
 21
-20.39
  0
LINE
  8
0
 10
-28.863
 20
-20.39
 11
-28.872
 21
-20.2677
  0
LINE
  8
0
 10
-28.872
 20
-20.2677
 11
-28.875
 21
-20.145
  0
LINE
  8
0
 10
-28.875
 20
-20.145
 11
-28.872
 21
-20.0223
  0
LINE
  8
0
 10
-28.872
 20
-20.0223
 11
-28.863
 21
-19.8999
  0
LINE
  8
0
 10
-28.863
 20
-19.8999
 11
-28.8479
 21
-19.7782
  0
LINE
  8
0
 10
-28.8479
 20
-19.7782
 11
-28.827
 21
-19.6573
  0
LINE
  8
0
 10
-28.827
 20
-19.6573
 11
-28.8001
 21
-19.5375
  0
LINE
  8
0
 10
-28.8001
 20
-19.5375
 11
-28.7673
 21
-19.4193
  0
LINE
  8
0
 10
-28.7673
 20
-19.4193
 11
-28.7289
 21
-19.3028
  0
LINE
  8
0
 10
-28.7289
 20
-19.3028
 11
-28.6847
 21
-19.1883
  0
LINE
  8
0
 10
-28.6847
 20
-19.1883
 11
-28.635
 21
-19.0761
  0
LINE
  8
0
 10
-28.635
 20
-19.0761
 11
-28.5798
 21
-18.9665
  0
LINE
  8
0
 10
-28.5798
 20
-18.9665
 11
-28.5193
 21
-18.8597
  0
LINE
  8
0
 10
-28.5193
 20
-18.8597
 11
-28.4537
 21
-18.7561
  0
LINE
  8
0
 10
-28.4537
 20
-18.7561
 11
-28.383
 21
-18.6557
  0
LINE
  8
0
 10
-28.383
 20
-18.6557
 11
-28.3075
 21
-18.559
  0
LINE
  8
0
 10
-28.3075
 20
-18.559
 11
-28.2274
 21
-18.4661
  0
LINE
  8
0
 10
-28.2274
 20
-18.4661
 11
-28.1428
 21
-18.3772
  0
LINE
  8
0
 10
-28.1428
 20
-18.3772
 11
-28.0539
 21
-18.2926
  0
LINE
  8
0
 10
-28.0539
 20
-18.2926
 11
-27.961
 21
-18.2125
  0
LINE
  8
0
 10
-27.961
 20
-18.2125
 11
-27.8642
 21
-18.137
  0
LINE
  8
0
 10
-27.8642
 20
-18.137
 11
-27.7639
 21
-18.0663
  0
LINE
  8
0
 10
-27.7639
 20
-18.0663
 11
-27.6602
 21
-18.0007
  0
LINE
  8
0
 10
-27.6602
 20
-18.0007
 11
-27.5535
 21
-17.9402
  0
LINE
  8
0
 10
-27.5535
 20
-17.9402
 11
-27.4439
 21
-17.885
  0
LINE
  8
0
 10
-27.4439
 20
-17.885
 11
-27.3317
 21
-17.8353
  0
LINE
  8
0
 10
-27.3317
 20
-17.8353
 11
-27.2172
 21
-17.7911
  0
LINE
  8
0
 10
-27.2172
 20
-17.7911
 11
-27.1007
 21
-17.7526
  0
LINE
  8
0
 10
-27.1007
 20
-17.7526
 11
-26.9824
 21
-17.7199
  0
LINE
  8
0
 10
-26.9824
 20
-17.7199
 11
-26.8627
 21
-17.693
  0
LINE
  8
0
 10
-26.8627
 20
-17.693
 11
-26.7418
 21
-17.6721
  0
LINE
  8
0
 10
-26.7418
 20
-17.6721
 11
-26.62
 21
-17.657
  0
LINE
  8
0
 10
-26.62
 20
-17.657
 11
-26.4977
 21
-17.648
  0
LINE
  8
0
 10
-26.4977
 20
-17.648
 11
-26.375
 21
-17.645
  0
LINE
  8
0
 10
-26.375
 20
-17.645
 11
-26.2523
 21
-17.648
  0
LINE
  8
0
 10
-26.2523
 20
-17.648
 11
-26.1299
 21
-17.657
  0
LINE
  8
0
 10
-26.1299
 20
-17.657
 11
-26.0082
 21
-17.6721
  0
LINE
  8
0
 10
-26.0082
 20
-17.6721
 11
-25.8873
 21
-17.693
  0
LINE
  8
0
 10
-25.8873
 20
-17.693
 11
-25.7675
 21
-17.7199
  0
LINE
  8
0
 10
-25.7675
 20
-17.7199
 11
-25.6493
 21
-17.7526
  0
LINE
  8
0
 10
-25.6493
 20
-17.7526
 11
-25.5328
 21
-17.7911
  0
LINE
  8
0
 10
-25.5328
 20
-17.7911
 11
-25.4183
 21
-17.8353
  0
LINE
  8
0
 10
-25.4183
 20
-17.8353
 11
-25.3061
 21
-17.885
  0
LINE
  8
0
 10
-25.3061
 20
-17.885
 11
-25.1965
 21
-17.9402
  0
LINE
  8
0
 10
-25.1965
 20
-17.9402
 11
-25.0897
 21
-18.0007
  0
LINE
  8
0
 10
-25.0897
 20
-18.0007
 11
-24.9861
 21
-18.0663
  0
LINE
  8
0
 10
-24.9861
 20
-18.0663
 11
-24.8857
 21
-18.137
  0
LINE
  8
0
 10
-24.8857
 20
-18.137
 11
-24.789
 21
-18.2125
  0
LINE
  8
0
 10
-24.789
 20
-18.2125
 11
-24.6961
 21
-18.2926
  0
LINE
  8
0
 10
-24.6961
 20
-18.2926
 11
-24.6072
 21
-18.3772
  0
LINE
  8
0
 10
-24.6072
 20
-18.3772
 11
-24.5226
 21
-18.4661
  0
LINE
  8
0
 10
-24.5226
 20
-18.4661
 11
-24.4425
 21
-18.559
  0
LINE
  8
0
 10
-24.4425
 20
-18.559
 11
-24.367
 21
-18.6557
  0
LINE
  8
0
 10
-24.367
 20
-18.6557
 11
-24.2963
 21
-18.7561
  0
LINE
  8
0
 10
-24.2963
 20
-18.7561
 11
-24.2307
 21
-18.8597
  0
LINE
  8
0
 10
-24.2307
 20
-18.8597
 11
-24.1702
 21
-18.9665
  0
LINE
  8
0
 10
-24.1702
 20
-18.9665
 11
-24.115
 21
-19.0761
  0
LINE
  8
0
 10
-24.115
 20
-19.0761
 11
-24.0653
 21
-19.1883
  0
LINE
  8
0
 10
-24.0653
 20
-19.1883
 11
-24.0211
 21
-19.3028
  0
LINE
  8
0
 10
-24.0211
 20
-19.3028
 11
-23.9826
 21
-19.4193
  0
LINE
  8
0
 10
-23.9826
 20
-19.4193
 11
-23.9499
 21
-19.5375
  0
LINE
  8
0
 10
-23.9499
 20
-19.5375
 11
-23.923
 21
-19.6573
  0
LINE
  8
0
 10
-23.923
 20
-19.6573
 11
-23.9021
 21
-19.7782
  0
LINE
  8
0
 10
-23.9021
 20
-19.7782
 11
-23.887
 21
-19.8999
  0
LINE
  8
0
 10
-23.887
 20
-19.8999
 11
-23.878
 21
-20.0223
  0
LINE
  8
0
 10
-23.878
 20
-20.0223
 11
-23.875
 21
-20.145
  0
LINE
  8
0
 10
-23.875
 20
-20.145
 11
-23.878
 21
-20.2677
  0
LINE
  8
0
 10
-23.878
 20
-20.2677
 11
-23.887
 21
-20.39
  0
LINE
  8
0
 10
-23.887
 20
-20.39
 11
-23.9021
 21
-20.5118
  0
LINE
  8
0
 10
-23.9021
 20
-20.5118
 11
-23.923
 21
-20.6327
  0
LINE
  8
0
 10
-23.923
 20
-20.6327
 11
-23.9499
 21
-20.7524
  0
LINE
  8
0
 10
-23.9499
 20
-20.7524
 11
-23.9826
 21
-20.8707
  0
LINE
  8
0
 10
-23.9826
 20
-20.8707
 11
-24.0211
 21
-20.9872
  0
LINE
  8
0
 10
-24.0211
 20
-20.9872
 11
-24.0653
 21
-21.1017
  0
LINE
  8
0
 10
-24.0653
 20
-21.1017
 11
-24.115
 21
-21.2139
  0
LINE
  8
0
 10
-24.115
 20
-21.2139
 11
-24.1702
 21
-21.3235
  0
LINE
  8
0
 10
-24.1702
 20
-21.3235
 11
-24.2307
 21
-21.4303
  0
LINE
  8
0
 10
-24.2307
 20
-21.4303
 11
-24.2963
 21
-21.5339
  0
LINE
  8
0
 10
-24.2963
 20
-21.5339
 11
-24.367
 21
-21.6342
  0
LINE
  8
0
 10
-24.367
 20
-21.6342
 11
-24.4425
 21
-21.731
  0
LINE
  8
0
 10
-24.4425
 20
-21.731
 11
-24.5226
 21
-21.8239
  0
LINE
  8
0
 10
-24.5226
 20
-21.8239
 11
-24.6072
 21
-21.9128
  0
LINE
  8
0
 10
-24.6072
 20
-21.9128
 11
-24.6961
 21
-21.9974
  0
LINE
  8
0
 10
-24.6961
 20
-21.9974
 11
-24.789
 21
-22.0775
  0
LINE
  8
0
 10
-24.789
 20
-22.0775
 11
-24.8857
 21
-22.153
  0
LINE
  8
0
 10
-24.8857
 20
-22.153
 11
-24.9861
 21
-22.2237
  0
LINE
  8
0
 10
-24.9861
 20
-22.2237
 11
-25.0897
 21
-22.2893
  0
LINE
  8
0
 10
-25.0897
 20
-22.2893
 11
-25.1965
 21
-22.3498
  0
LINE
  8
0
 10
-25.1965
 20
-22.3498
 11
-25.3061
 21
-22.405
  0
LINE
  8
0
 10
-25.3061
 20
-22.405
 11
-25.4183
 21
-22.4547
  0
LINE
  8
0
 10
-25.4183
 20
-22.4547
 11
-25.5328
 21
-22.4989
  0
LINE
  8
0
 10
-25.5328
 20
-22.4989
 11
-25.6493
 21
-22.5373
  0
LINE
  8
0
 10
-25.6493
 20
-22.5373
 11
-25.7675
 21
-22.5701
  0
LINE
  8
0
 10
-25.7675
 20
-22.5701
 11
-25.8873
 21
-22.597
  0
LINE
  8
0
 10
-25.8873
 20
-22.597
 11
-26.0082
 21
-22.6179
  0
LINE
  8
0
 10
-26.0082
 20
-22.6179
 11
-26.1299
 21
-22.6329
  0
LINE
  8
0
 10
-26.1299
 20
-22.6329
 11
-26.2523
 21
-22.642
  0
LINE
  8
0
 10
-26.2523
 20
-22.642
 11
-26.375
 21
-22.645
  0
LINE
  8
0
 10
-26.375
 20
-22.645
 11
-26.4977
 21
-22.642
  0
LINE
  8
0
 10
26.2523
 20
-22.642
 11
26.1299
 21
-22.6329
  0
LINE
  8
0
 10
26.1299
 20
-22.6329
 11
26.0082
 21
-22.6179
  0
LINE
  8
0
 10
26.0082
 20
-22.6179
 11
25.8873
 21
-22.597
  0
LINE
  8
0
 10
25.8873
 20
-22.597
 11
25.7675
 21
-22.5701
  0
LINE
  8
0
 10
25.7675
 20
-22.5701
 11
25.6493
 21
-22.5373
  0
LINE
  8
0
 10
25.6493
 20
-22.5373
 11
25.5328
 21
-22.4989
  0
LINE
  8
0
 10
25.5328
 20
-22.4989
 11
25.4183
 21
-22.4547
  0
LINE
  8
0
 10
25.4183
 20
-22.4547
 11
25.3061
 21
-22.405
  0
LINE
  8
0
 10
25.3061
 20
-22.405
 11
25.1965
 21
-22.3498
  0
LINE
  8
0
 10
25.1965
 20
-22.3498
 11
25.0897
 21
-22.2893
  0
LINE
  8
0
 10
25.0897
 20
-22.2893
 11
24.9861
 21
-22.2237
  0
LINE
  8
0
 10
24.9861
 20
-22.2237
 11
24.8857
 21
-22.153
  0
LINE
  8
0
 10
24.8857
 20
-22.153
 11
24.789
 21
-22.0775
  0
LINE
  8
0
 10
24.789
 20
-22.0775
 11
24.6961
 21
-21.9974
  0
LINE
  8
0
 10
24.6961
 20
-21.9974
 11
24.6072
 21
-21.9128
  0
LINE
  8
0
 10
24.6072
 20
-21.9128
 11
24.5226
 21
-21.8239
  0
LINE
  8
0
 10
24.5226
 20
-21.8239
 11
24.4425
 21
-21.731
  0
LINE
  8
0
 10
24.4425
 20
-21.731
 11
24.367
 21
-21.6342
  0
LINE
  8
0
 10
24.367
 20
-21.6342
 11
24.2963
 21
-21.5339
  0
LINE
  8
0
 10
24.2963
 20
-21.5339
 11
24.2307
 21
-21.4303
  0
LINE
  8
0
 10
24.2307
 20
-21.4303
 11
24.1702
 21
-21.3235
  0
LINE
  8
0
 10
24.1702
 20
-21.3235
 11
24.115
 21
-21.2139
  0
LINE
  8
0
 10
24.115
 20
-21.2139
 11
24.0653
 21
-21.1017
  0
LINE
  8
0
 10
24.0653
 20
-21.1017
 11
24.0211
 21
-20.9872
  0
LINE
  8
0
 10
24.0211
 20
-20.9872
 11
23.9826
 21
-20.8707
  0
LINE
  8
0
 10
23.9826
 20
-20.8707
 11
23.9499
 21
-20.7524
  0
LINE
  8
0
 10
23.9499
 20
-20.7524
 11
23.923
 21
-20.6327
  0
LINE
  8
0
 10
23.923
 20
-20.6327
 11
23.9021
 21
-20.5118
  0
LINE
  8
0
 10
23.9021
 20
-20.5118
 11
23.887
 21
-20.39
  0
LINE
  8
0
 10
23.887
 20
-20.39
 11
23.878
 21
-20.2677
  0
LINE
  8
0
 10
23.878
 20
-20.2677
 11
23.875
 21
-20.145
  0
LINE
  8
0
 10
23.875
 20
-20.145
 11
23.878
 21
-20.0223
  0
LINE
  8
0
 10
23.878
 20
-20.0223
 11
23.887
 21
-19.8999
  0
LINE
  8
0
 10
23.887
 20
-19.8999
 11
23.9021
 21
-19.7782
  0
LINE
  8
0
 10
23.9021
 20
-19.7782
 11
23.923
 21
-19.6573
  0
LINE
  8
0
 10
23.923
 20
-19.6573
 11
23.9499
 21
-19.5375
  0
LINE
  8
0
 10
23.9499
 20
-19.5375
 11
23.9826
 21
-19.4193
  0
LINE
  8
0
 10
23.9826
 20
-19.4193
 11
24.0211
 21
-19.3028
  0
LINE
  8
0
 10
24.0211
 20
-19.3028
 11
24.0653
 21
-19.1883
  0
LINE
  8
0
 10
24.0653
 20
-19.1883
 11
24.115
 21
-19.0761
  0
LINE
  8
0
 10
24.115
 20
-19.0761
 11
24.1702
 21
-18.9665
  0
LINE
  8
0
 10
24.1702
 20
-18.9665
 11
24.2307
 21
-18.8597
  0
LINE
  8
0
 10
24.2307
 20
-18.8597
 11
24.2963
 21
-18.7561
  0
LINE
  8
0
 10
24.2963
 20
-18.7561
 11
24.367
 21
-18.6557
  0
LINE
  8
0
 10
24.367
 20
-18.6557
 11
24.4425
 21
-18.559
  0
LINE
  8
0
 10
24.4425
 20
-18.559
 11
24.5226
 21
-18.4661
  0
LINE
  8
0
 10
24.5226
 20
-18.4661
 11
24.6072
 21
-18.3772
  0
LINE
  8
0
 10
24.6072
 20
-18.3772
 11
24.6961
 21
-18.2926
  0
LINE
  8
0
 10
24.6961
 20
-18.2926
 11
24.789
 21
-18.2125
  0
LINE
  8
0
 10
24.789
 20
-18.2125
 11
24.8857
 21
-18.137
  0
LINE
  8
0
 10
24.8857
 20
-18.137
 11
24.9861
 21
-18.0663
  0
LINE
  8
0
 10
24.9861
 20
-18.0663
 11
25.0897
 21
-18.0007
  0
LINE
  8
0
 10
25.0897
 20
-18.0007
 11
25.1965
 21
-17.9402
  0
LINE
  8
0
 10
25.1965
 20
-17.9402
 11
25.3061
 21
-17.885
  0
LINE
  8
0
 10
25.3061
 20
-17.885
 11
25.4183
 21
-17.8353
  0
LINE
  8
0
 10
25.4183
 20
-17.8353
 11
25.5328
 21
-17.7911
  0
LINE
  8
0
 10
25.5328
 20
-17.7911
 11
25.6493
 21
-17.7526
  0
LINE
  8
0
 10
25.6493
 20
-17.7526
 11
25.7675
 21
-17.7199
  0
LINE
  8
0
 10
25.7675
 20
-17.7199
 11
25.8873
 21
-17.693
  0
LINE
  8
0
 10
25.8873
 20
-17.693
 11
26.0082
 21
-17.6721
  0
LINE
  8
0
 10
26.0082
 20
-17.6721
 11
26.1299
 21
-17.657
  0
LINE
  8
0
 10
26.1299
 20
-17.657
 11
26.2523
 21
-17.648
  0
LINE
  8
0
 10
26.2523
 20
-17.648
 11
26.375
 21
-17.645
  0
LINE
  8
0
 10
26.375
 20
-17.645
 11
26.4977
 21
-17.648
  0
LINE
  8
0
 10
26.4977
 20
-17.648
 11
26.62
 21
-17.657
  0
LINE
  8
0
 10
26.62
 20
-17.657
 11
26.7418
 21
-17.6721
  0
LINE
  8
0
 10
26.7418
 20
-17.6721
 11
26.8627
 21
-17.693
  0
LINE
  8
0
 10
26.8627
 20
-17.693
 11
26.9824
 21
-17.7199
  0
LINE
  8
0
 10
26.9824
 20
-17.7199
 11
27.1007
 21
-17.7526
  0
LINE
  8
0
 10
27.1007
 20
-17.7526
 11
27.2172
 21
-17.7911
  0
LINE
  8
0
 10
27.2172
 20
-17.7911
 11
27.3317
 21
-17.8353
  0
LINE
  8
0
 10
27.3317
 20
-17.8353
 11
27.4439
 21
-17.885
  0
LINE
  8
0
 10
27.4439
 20
-17.885
 11
27.5535
 21
-17.9402
  0
LINE
  8
0
 10
27.5535
 20
-17.9402
 11
27.6602
 21
-18.0007
  0
LINE
  8
0
 10
27.6602
 20
-18.0007
 11
27.7639
 21
-18.0663
  0
LINE
  8
0
 10
27.7639
 20
-18.0663
 11
27.8642
 21
-18.137
  0
LINE
  8
0
 10
27.8642
 20
-18.137
 11
27.961
 21
-18.2125
  0
LINE
  8
0
 10
27.961
 20
-18.2125
 11
28.0539
 21
-18.2926
  0
LINE
  8
0
 10
28.0539
 20
-18.2926
 11
28.1428
 21
-18.3772
  0
LINE
  8
0
 10
28.1428
 20
-18.3772
 11
28.2274
 21
-18.4661
  0
LINE
  8
0
 10
28.2274
 20
-18.4661
 11
28.3075
 21
-18.559
  0
LINE
  8
0
 10
28.3075
 20
-18.559
 11
28.383
 21
-18.6557
  0
LINE
  8
0
 10
28.383
 20
-18.6557
 11
28.4537
 21
-18.7561
  0
LINE
  8
0
 10
28.4537
 20
-18.7561
 11
28.5193
 21
-18.8597
  0
LINE
  8
0
 10
28.5193
 20
-18.8597
 11
28.5798
 21
-18.9665
  0
LINE
  8
0
 10
28.5798
 20
-18.9665
 11
28.635
 21
-19.0761
  0
LINE
  8
0
 10
28.635
 20
-19.0761
 11
28.6847
 21
-19.1883
  0
LINE
  8
0
 10
28.6847
 20
-19.1883
 11
28.7289
 21
-19.3028
  0
LINE
  8
0
 10
28.7289
 20
-19.3028
 11
28.7673
 21
-19.4193
  0
LINE
  8
0
 10
28.7673
 20
-19.4193
 11
28.8001
 21
-19.5375
  0
LINE
  8
0
 10
28.8001
 20
-19.5375
 11
28.827
 21
-19.6573
  0
LINE
  8
0
 10
28.827
 20
-19.6573
 11
28.8479
 21
-19.7782
  0
LINE
  8
0
 10
28.8479
 20
-19.7782
 11
28.863
 21
-19.8999
  0
LINE
  8
0
 10
28.863
 20
-19.8999
 11
28.872
 21
-20.0223
  0
LINE
  8
0
 10
28.872
 20
-20.0223
 11
28.875
 21
-20.145
  0
LINE
  8
0
 10
28.875
 20
-20.145
 11
28.872
 21
-20.2677
  0
LINE
  8
0
 10
28.872
 20
-20.2677
 11
28.863
 21
-20.39
  0
LINE
  8
0
 10
28.863
 20
-20.39
 11
28.8479
 21
-20.5118
  0
LINE
  8
0
 10
28.8479
 20
-20.5118
 11
28.827
 21
-20.6327
  0
LINE
  8
0
 10
28.827
 20
-20.6327
 11
28.8001
 21
-20.7524
  0
LINE
  8
0
 10
28.8001
 20
-20.7524
 11
28.7673
 21
-20.8707
  0
LINE
  8
0
 10
28.7673
 20
-20.8707
 11
28.7289
 21
-20.9872
  0
LINE
  8
0
 10
28.7289
 20
-20.9872
 11
28.6847
 21
-21.1017
  0
LINE
  8
0
 10
28.6847
 20
-21.1017
 11
28.635
 21
-21.2139
  0
LINE
  8
0
 10
28.635
 20
-21.2139
 11
28.5798
 21
-21.3235
  0
LINE
  8
0
 10
28.5798
 20
-21.3235
 11
28.5193
 21
-21.4303
  0
LINE
  8
0
 10
28.5193
 20
-21.4303
 11
28.4537
 21
-21.5339
  0
LINE
  8
0
 10
28.4537
 20
-21.5339
 11
28.383
 21
-21.6342
  0
LINE
  8
0
 10
28.383
 20
-21.6342
 11
28.3075
 21
-21.731
  0
LINE
  8
0
 10
28.3075
 20
-21.731
 11
28.2274
 21
-21.8239
  0
LINE
  8
0
 10
28.2274
 20
-21.8239
 11
28.1428
 21
-21.9128
  0
LINE
  8
0
 10
28.1428
 20
-21.9128
 11
28.0539
 21
-21.9974
  0
LINE
  8
0
 10
28.0539
 20
-21.9974
 11
27.961
 21
-22.0775
  0
LINE
  8
0
 10
27.961
 20
-22.0775
 11
27.8642
 21
-22.153
  0
LINE
  8
0
 10
27.8642
 20
-22.153
 11
27.7639
 21
-22.2237
  0
LINE
  8
0
 10
27.7639
 20
-22.2237
 11
27.6602
 21
-22.2893
  0
LINE
  8
0
 10
27.6602
 20
-22.2893
 11
27.5535
 21
-22.3498
  0
LINE
  8
0
 10
27.5535
 20
-22.3498
 11
27.4439
 21
-22.405
  0
LINE
  8
0
 10
27.4439
 20
-22.405
 11
27.3317
 21
-22.4547
  0
LINE
  8
0
 10
27.3317
 20
-22.4547
 11
27.2172
 21
-22.4989
  0
LINE
  8
0
 10
27.2172
 20
-22.4989
 11
27.1007
 21
-22.5373
  0
LINE
  8
0
 10
27.1007
 20
-22.5373
 11
26.9824
 21
-22.5701
  0
LINE
  8
0
 10
26.9824
 20
-22.5701
 11
26.8627
 21
-22.597
  0
LINE
  8
0
 10
26.8627
 20
-22.597
 11
26.7418
 21
-22.6179
  0
LINE
  8
0
 10
26.7418
 20
-22.6179
 11
26.62
 21
-22.6329
  0
LINE
  8
0
 10
26.62
 20
-22.6329
 11
26.4977
 21
-22.642
  0
LINE
  8
0
 10
26.4977
 20
-22.642
 11
26.375
 21
-22.645
  0
LINE
  8
0
 10
26.375
 20
-22.645
 11
26.2523
 21
-22.642
  0
LINE
  8
0
 10
-11.076
 20
-26.5481
 11
-11.1519
 21
-26.5425
  0
LINE
  8
0
 10
-11.1519
 20
-26.5425
 11
-11.2274
 21
-26.5332
  0
LINE
  8
0
 10
-11.2274
 20
-26.5332
 11
-11.3024
 21
-26.5202
  0
LINE
  8
0
 10
-11.3024
 20
-26.5202
 11
-11.3766
 21
-26.5035
  0
LINE
  8
0
 10
-11.3766
 20
-26.5035
 11
-11.4499
 21
-26.4832
  0
LINE
  8
0
 10
-11.4499
 20
-26.4832
 11
-11.5222
 21
-26.4594
  0
LINE
  8
0
 10
-11.5222
 20
-26.4594
 11
-11.5932
 21
-26.432
  0
LINE
  8
0
 10
-11.5932
 20
-26.432
 11
-11.6627
 21
-26.4012
  0
LINE
  8
0
 10
-11.6627
 20
-26.4012
 11
-11.7307
 21
-26.367
  0
LINE
  8
0
 10
-11.7307
 20
-26.367
 11
-11.7968
 21
-26.3295
  0
LINE
  8
0
 10
-11.7968
 20
-26.3295
 11
-11.8611
 21
-26.2888
  0
LINE
  8
0
 10
-11.8611
 20
-26.2888
 11
-11.9233
 21
-26.245
  0
LINE
  8
0
 10
-11.9233
 20
-26.245
 11
-11.9833
 21
-26.1982
  0
LINE
  8
0
 10
-11.9833
 20
-26.1982
 11
-12.0409
 21
-26.1485
  0
LINE
  8
0
 10
-12.0409
 20
-26.1485
 11
-12.096
 21
-26.096
  0
LINE
  8
0
 10
-12.096
 20
-26.096
 11
-12.1485
 21
-26.0409
  0
LINE
  8
0
 10
-12.1485
 20
-26.0409
 11
-12.1982
 21
-25.9833
  0
LINE
  8
0
 10
-12.1982
 20
-25.9833
 11
-12.245
 21
-25.9233
  0
LINE
  8
0
 10
-12.245
 20
-25.9233
 11
-12.2888
 21
-25.8611
  0
LINE
  8
0
 10
-12.2888
 20
-25.8611
 11
-12.3295
 21
-25.7969
  0
LINE
  8
0
 10
-12.3295
 20
-25.7969
 11
-12.367
 21
-25.7307
  0
LINE
  8
0
 10
-12.367
 20
-25.7307
 11
-12.4012
 21
-25.6627
  0
LINE
  8
0
 10
-12.4012
 20
-25.6627
 11
-12.432
 21
-25.5932
  0
LINE
  8
0
 10
-12.432
 20
-25.5932
 11
-12.4594
 21
-25.5222
  0
LINE
  8
0
 10
-12.4594
 20
-25.5222
 11
-12.4832
 21
-25.4499
  0
LINE
  8
0
 10
-12.4832
 20
-25.4499
 11
-12.5035
 21
-25.3766
  0
LINE
  8
0
 10
-12.5035
 20
-25.3766
 11
-12.5202
 21
-25.3024
  0
LINE
  8
0
 10
-12.5202
 20
-25.3024
 11
-12.5332
 21
-25.2274
  0
LINE
  8
0
 10
-12.5332
 20
-25.2274
 11
-12.5425
 21
-25.1519
  0
LINE
  8
0
 10
-12.5425
 20
-25.1519
 11
-12.5481
 21
-25.076
  0
LINE
  8
0
 10
-12.5481
 20
-25.076
 11
-12.55
 21
-25
  0
LINE
  8
0
 10
-12.55
 20
-25
 11
-12.5481
 21
-24.9239
  0
LINE
  8
0
 10
-12.5481
 20
-24.9239
 11
-12.5425
 21
-24.8481
  0
LINE
  8
0
 10
-12.5425
 20
-24.8481
 11
-12.5332
 21
-24.7726
  0
LINE
  8
0
 10
-12.5332
 20
-24.7726
 11
-12.5202
 21
-24.6976
  0
LINE
  8
0
 10
-12.5202
 20
-24.6976
 11
-12.5035
 21
-24.6234
  0
LINE
  8
0
 10
-12.5035
 20
-24.6234
 11
-12.4832
 21
-24.55
  0
LINE
  8
0
 10
-12.4832
 20
-24.55
 11
-12.4594
 21
-24.4778
  0
LINE
  8
0
 10
-12.4594
 20
-24.4778
 11
-12.432
 21
-24.4068
  0
LINE
  8
0
 10
-12.432
 20
-24.4068
 11
-12.4012
 21
-24.3373
  0
LINE
  8
0
 10
-12.4012
 20
-24.3373
 11
-12.367
 21
-24.2693
  0
LINE
  8
0
 10
-12.367
 20
-24.2693
 11
-12.3295
 21
-24.2031
  0
LINE
  8
0
 10
-12.3295
 20
-24.2031
 11
-12.2888
 21
-24.1389
  0
LINE
  8
0
 10
-12.2888
 20
-24.1389
 11
-12.245
 21
-24.0767
  0
LINE
  8
0
 10
-12.245
 20
-24.0767
 11
-12.1982
 21
-24.0167
  0
LINE
  8
0
 10
-12.1982
 20
-24.0167
 11
-12.1485
 21
-23.9591
  0
LINE
  8
0
 10
-12.1485
 20
-23.9591
 11
-12.096
 21
-23.904
  0
LINE
  8
0
 10
-12.096
 20
-23.904
 11
-12.0409
 21
-23.8515
  0
LINE
  8
0
 10
-12.0409
 20
-23.8515
 11
-11.9833
 21
-23.8018
  0
LINE
  8
0
 10
-11.9833
 20
-23.8018
 11
-11.9233
 21
-23.755
  0
LINE
  8
0
 10
-11.9233
 20
-23.755
 11
-11.8611
 21
-23.7112
  0
LINE
  8
0
 10
-11.8611
 20
-23.7112
 11
-11.7968
 21
-23.6705
  0
LINE
  8
0
 10
-11.7968
 20
-23.6705
 11
-11.7307
 21
-23.633
  0
LINE
  8
0
 10
-11.7307
 20
-23.633
 11
-11.6627
 21
-23.5988
  0
LINE
  8
0
 10
-11.6627
 20
-23.5988
 11
-11.5932
 21
-23.568
  0
LINE
  8
0
 10
-11.5932
 20
-23.568
 11
-11.5222
 21
-23.5406
  0
LINE
  8
0
 10
-11.5222
 20
-23.5406
 11
-11.4499
 21
-23.5167
  0
LINE
  8
0
 10
-11.4499
 20
-23.5167
 11
-11.3766
 21
-23.4964
  0
LINE
  8
0
 10
-11.3766
 20
-23.4964
 11
-11.3024
 21
-23.4798
  0
LINE
  8
0
 10
-11.3024
 20
-23.4798
 11
-11.2274
 21
-23.4668
  0
LINE
  8
0
 10
-11.2274
 20
-23.4668
 11
-11.1519
 21
-23.4575
  0
LINE
  8
0
 10
-11.1519
 20
-23.4575
 11
-11.076
 21
-23.4519
  0
LINE
  8
0
 10
-11.076
 20
-23.4519
 11
-11
 21
-23.45
  0
LINE
  8
0
 10
-11
 20
-23.45
 11
-10.9239
 21
-23.4519
  0
LINE
  8
0
 10
-10.9239
 20
-23.4519
 11
-10.8481
 21
-23.4575
  0
LINE
  8
0
 10
-10.8481
 20
-23.4575
 11
-10.7726
 21
-23.4668
  0
LINE
  8
0
 10
-10.7726
 20
-23.4668
 11
-10.6976
 21
-23.4798
  0
LINE
  8
0
 10
-10.6976
 20
-23.4798
 11
-10.6234
 21
-23.4964
  0
LINE
  8
0
 10
-10.6234
 20
-23.4964
 11
-10.55
 21
-23.5167
  0
LINE
  8
0
 10
-10.55
 20
-23.5167
 11
-10.4778
 21
-23.5406
  0
LINE
  8
0
 10
-10.4778
 20
-23.5406
 11
-10.4068
 21
-23.568
  0
LINE
  8
0
 10
-10.4068
 20
-23.568
 11
-10.3373
 21
-23.5988
  0
LINE
  8
0
 10
-10.3373
 20
-23.5988
 11
-10.2693
 21
-23.633
  0
LINE
  8
0
 10
-10.2693
 20
-23.633
 11
-10.2031
 21
-23.6705
  0
LINE
  8
0
 10
-10.2031
 20
-23.6705
 11
-10.1389
 21
-23.7112
  0
LINE
  8
0
 10
-10.1389
 20
-23.7112
 11
-10.0767
 21
-23.755
  0
LINE
  8
0
 10
-10.0767
 20
-23.755
 11
-10.0167
 21
-23.8018
  0
LINE
  8
0
 10
-10.0167
 20
-23.8018
 11
-9.95908
 21
-23.8515
  0
LINE
  8
0
 10
-9.95908
 20
-23.8515
 11
-9.90398
 21
-23.904
  0
LINE
  8
0
 10
-9.90398
 20
-23.904
 11
-9.85152
 21
-23.9591
  0
LINE
  8
0
 10
-9.85152
 20
-23.9591
 11
-9.80182
 21
-24.0167
  0
LINE
  8
0
 10
-9.80182
 20
-24.0167
 11
-9.75502
 21
-24.0767
  0
LINE
  8
0
 10
-9.75502
 20
-24.0767
 11
-9.71121
 21
-24.1389
  0
LINE
  8
0
 10
-9.71121
 20
-24.1389
 11
-9.67052
 21
-24.2031
  0
LINE
  8
0
 10
-9.67052
 20
-24.2031
 11
-9.63301
 21
-24.2693
  0
LINE
  8
0
 10
-9.63301
 20
-24.2693
 11
-9.59882
 21
-24.3373
  0
LINE
  8
0
 10
-9.59882
 20
-24.3373
 11
-9.56798
 21
-24.4068
  0
LINE
  8
0
 10
-9.56798
 20
-24.4068
 11
-9.5406
 21
-24.4778
  0
LINE
  8
0
 10
-9.5406
 20
-24.4778
 11
-9.51674
 21
-24.55
  0
LINE
  8
0
 10
-9.51674
 20
-24.55
 11
-9.49644
 21
-24.6234
  0
LINE
  8
0
 10
-9.49644
 20
-24.6234
 11
-9.47978
 21
-24.6976
  0
LINE
  8
0
 10
-9.47978
 20
-24.6976
 11
-9.46677
 21
-24.7726
  0
LINE
  8
0
 10
-9.46677
 20
-24.7726
 11
-9.45746
 21
-24.8481
  0
LINE
  8
0
 10
-9.45746
 20
-24.8481
 11
-9.45186
 21
-24.9239
  0
LINE
  8
0
 10
-9.45186
 20
-24.9239
 11
-9.45
 21
-25
  0
LINE
  8
0
 10
-9.45
 20
-25
 11
-9.45186
 21
-25.076
  0
LINE
  8
0
 10
-9.45186
 20
-25.076
 11
-9.45746
 21
-25.1519
  0
LINE
  8
0
 10
-9.45746
 20
-25.1519
 11
-9.46677
 21
-25.2274
  0
LINE
  8
0
 10
-9.46677
 20
-25.2274
 11
-9.47978
 21
-25.3024
  0
LINE
  8
0
 10
-9.47978
 20
-25.3024
 11
-9.49644
 21
-25.3766
  0
LINE
  8
0
 10
-9.49644
 20
-25.3766
 11
-9.51674
 21
-25.4499
  0
LINE
  8
0
 10
-9.51674
 20
-25.4499
 11
-9.5406
 21
-25.5222
  0
LINE
  8
0
 10
-9.5406
 20
-25.5222
 11
-9.56798
 21
-25.5932
  0
LINE
  8
0
 10
-9.56798
 20
-25.5932
 11
-9.59882
 21
-25.6627
  0
LINE
  8
0
 10
-9.59882
 20
-25.6627
 11
-9.63301
 21
-25.7307
  0
LINE
  8
0
 10
-9.63301
 20
-25.7307
 11
-9.67052
 21
-25.7969
  0
LINE
  8
0
 10
-9.67052
 20
-25.7969
 11
-9.71121
 21
-25.8611
  0
LINE
  8
0
 10
-9.71121
 20
-25.8611
 11
-9.75502
 21
-25.9233
  0
LINE
  8
0
 10
-9.75502
 20
-25.9233
 11
-9.80182
 21
-25.9833
  0
LINE
  8
0
 10
-9.80182
 20
-25.9833
 11
-9.85152
 21
-26.0409
  0
LINE
  8
0
 10
-9.85152
 20
-26.0409
 11
-9.90398
 21
-26.096
  0
LINE
  8
0
 10
-9.90398
 20
-26.096
 11
-9.95908
 21
-26.1485
  0
LINE
  8
0
 10
-9.95908
 20
-26.1485
 11
-10.0167
 21
-26.1982
  0
LINE
  8
0
 10
-10.0167
 20
-26.1982
 11
-10.0767
 21
-26.245
  0
LINE
  8
0
 10
-10.0767
 20
-26.245
 11
-10.1389
 21
-26.2888
  0
LINE
  8
0
 10
-10.1389
 20
-26.2888
 11
-10.2031
 21
-26.3295
  0
LINE
  8
0
 10
-10.2031
 20
-26.3295
 11
-10.2693
 21
-26.367
  0
LINE
  8
0
 10
-10.2693
 20
-26.367
 11
-10.3373
 21
-26.4012
  0
LINE
  8
0
 10
-10.3373
 20
-26.4012
 11
-10.4068
 21
-26.432
  0
LINE
  8
0
 10
-10.4068
 20
-26.432
 11
-10.4778
 21
-26.4594
  0
LINE
  8
0
 10
-10.4778
 20
-26.4594
 11
-10.55
 21
-26.4832
  0
LINE
  8
0
 10
-10.55
 20
-26.4832
 11
-10.6234
 21
-26.5035
  0
LINE
  8
0
 10
-10.6234
 20
-26.5035
 11
-10.6976
 21
-26.5202
  0
LINE
  8
0
 10
-10.6976
 20
-26.5202
 11
-10.7726
 21
-26.5332
  0
LINE
  8
0
 10
-10.7726
 20
-26.5332
 11
-10.8481
 21
-26.5425
  0
LINE
  8
0
 10
-10.8481
 20
-26.5425
 11
-10.9239
 21
-26.5481
  0
LINE
  8
0
 10
-10.9239
 20
-26.5481
 11
-11
 21
-26.55
  0
LINE
  8
0
 10
-11
 20
-26.55
 11
-11.076
 21
-26.5481
  0
ENDSEC
  0
SECTION
  2
OBJECTS
  0
DICTIONARY
  0
ENDSEC
  0
EOF
