solid OpenSCAD_Model
  facet normal 0 1 -2.22045e-16
    outer loop
      vertex -18 6.21725e-15 28
      vertex -12.6706 5.75338e-15 25.9109
      vertex -14.4554 5.81036e-15 26.1675
    endloop
  endfacet
  facet normal 0 1 -2.22045e-16
    outer loop
      vertex -6.09562 5.64404e-15 25.4185
      vertex -12.6706 5.75338e-15 25.9109
      vertex -4.45542 5.81036e-15 26.1675
    endloop
  endfacet
  facet normal 0 1 -2.22045e-16
    outer loop
      vertex -6.09562 5.64404e-15 25.4185
      vertex -11.3079 5.49119e-15 24.7301
      vertex -12.6706 5.75338e-15 25.9109
    endloop
  endfacet
  facet normal 0 1 -2.22045e-16
    outer loop
      vertex -7.07047 5.30722e-15 23.9016
      vertex -11.3079 5.49119e-15 24.7301
      vertex -6.09562 5.64404e-15 25.4185
    endloop
  endfacet
  facet normal 0 1 -2.22045e-16
    outer loop
      vertex -7.07047 5.30722e-15 23.9016
      vertex -10.7999 5.10703e-15 23
      vertex -11.3079 5.49119e-15 24.7301
    endloop
  endfacet
  facet normal 0 1 -2.22045e-16
    outer loop
      vertex -7.07047 4.90684e-15 22.0984
      vertex -10.7999 5.10703e-15 23
      vertex -7.07047 5.30722e-15 23.9016
    endloop
  endfacet
  facet normal 0 1 -2.22045e-16
    outer loop
      vertex -7.07047 4.90684e-15 22.0984
      vertex -11.3079 4.72287e-15 21.2699
      vertex -10.7999 5.10703e-15 23
    endloop
  endfacet
  facet normal 0 1 -2.22045e-16
    outer loop
      vertex -6.09562 4.57002e-15 20.5815
      vertex -11.3079 4.72287e-15 21.2699
      vertex -7.07047 4.90684e-15 22.0984
    endloop
  endfacet
  facet normal 0 1 -2.22045e-16
    outer loop
      vertex -6.09562 4.57002e-15 20.5815
      vertex -12.6706 4.46067e-15 20.0891
      vertex -11.3079 4.72287e-15 21.2699
    endloop
  endfacet
  facet normal 0 1 -2.22045e-16
    outer loop
      vertex -4.45542 4.40369e-15 19.8325
      vertex -12.6706 4.46067e-15 20.0891
      vertex -6.09562 4.57002e-15 20.5815
    endloop
  endfacet
  facet normal 0 1 -2.22045e-16
    outer loop
      vertex -18 0 0
      vertex -12.6706 4.46067e-15 20.0891
      vertex -4.45542 4.40369e-15 19.8325
    endloop
  endfacet
  facet normal 0 1 -2.22045e-16
    outer loop
      vertex 0 6.21725e-15 28
      vertex -4.45542 5.81036e-15 26.1675
      vertex -18 6.21725e-15 28
    endloop
  endfacet
  facet normal 0 1 -2.22045e-16
    outer loop
      vertex 0 6.21725e-15 28
      vertex -2.67063 5.75338e-15 25.9109
      vertex -4.45542 5.81036e-15 26.1675
    endloop
  endfacet
  facet normal 0 1 -2.22045e-16
    outer loop
      vertex 0 6.21725e-15 28
      vertex -1.30791 5.49119e-15 24.7301
      vertex -2.67063 5.75338e-15 25.9109
    endloop
  endfacet
  facet normal 0 1 -2.22045e-16
    outer loop
      vertex 0 6.21725e-15 28
      vertex -0.7999 5.10703e-15 23
      vertex -1.30791 5.49119e-15 24.7301
    endloop
  endfacet
  facet normal 0 1 -2.22045e-16
    outer loop
      vertex -18 0 0
      vertex -4.45542 4.40369e-15 19.8325
      vertex 0 0 0
    endloop
  endfacet
  facet normal 0 1 -2.22045e-16
    outer loop
      vertex -2.67063 4.46067e-15 20.0891
      vertex 0 0 0
      vertex -4.45542 4.40369e-15 19.8325
    endloop
  endfacet
  facet normal 0 1 -2.22045e-16
    outer loop
      vertex -1.30791 4.72287e-15 21.2699
      vertex 0 0 0
      vertex -2.67063 4.46067e-15 20.0891
    endloop
  endfacet
  facet normal 0 1 -2.22045e-16
    outer loop
      vertex -0.7999 5.10703e-15 23
      vertex 0 0 0
      vertex -1.30791 4.72287e-15 21.2699
    endloop
  endfacet
  facet normal 0 1 -2.22045e-16
    outer loop
      vertex 0 0 0
      vertex -0.7999 5.10703e-15 23
      vertex 0 6.21725e-15 28
    endloop
  endfacet
  facet normal 0 1 -2.22045e-16
    outer loop
      vertex -12.6706 5.75338e-15 25.9109
      vertex -18 6.21725e-15 28
      vertex -4.45542 5.81036e-15 26.1675
    endloop
  endfacet
  facet normal 0 1 -2.22045e-16
    outer loop
      vertex -16.0956 5.64404e-15 25.4185
      vertex -18 6.21725e-15 28
      vertex -14.4554 5.81036e-15 26.1675
    endloop
  endfacet
  facet normal 0 1 -2.22045e-16
    outer loop
      vertex -17.0705 5.30722e-15 23.9016
      vertex -18 6.21725e-15 28
      vertex -16.0956 5.64404e-15 25.4185
    endloop
  endfacet
  facet normal 0 1 -2.22045e-16
    outer loop
      vertex -17.0705 4.90684e-15 22.0984
      vertex -18 6.21725e-15 28
      vertex -17.0705 5.30722e-15 23.9016
    endloop
  endfacet
  facet normal 0 1 -2.22045e-16
    outer loop
      vertex -12.6706 4.46067e-15 20.0891
      vertex -18 0 0
      vertex -14.4554 4.40369e-15 19.8325
    endloop
  endfacet
  facet normal 0 1 -2.22045e-16
    outer loop
      vertex -17.0705 4.90684e-15 22.0984
      vertex -18 0 0
      vertex -18 6.21725e-15 28
    endloop
  endfacet
  facet normal 0 1 -2.22045e-16
    outer loop
      vertex -16.0956 4.57002e-15 20.5815
      vertex -18 0 0
      vertex -17.0705 4.90684e-15 22.0984
    endloop
  endfacet
  facet normal 0 1 -2.22045e-16
    outer loop
      vertex -14.4554 4.40369e-15 19.8325
      vertex -18 0 0
      vertex -16.0956 4.57002e-15 20.5815
    endloop
  endfacet
  facet normal 0 1 -2.22045e-16
    outer loop
      vertex -12.5099 5.10703e-15 23
      vertex -11.3079 5.49119e-15 24.7301
      vertex -10.7999 5.10703e-15 23
    endloop
  endfacet
  facet normal 0 1 -2.22045e-16
    outer loop
      vertex -11.3079 5.49119e-15 24.7301
      vertex -12.5099 5.10703e-15 23
      vertex -13.5395 5.4217e-15 24.4172
    endloop
  endfacet
  facet normal 0 1 -2.22045e-16
    outer loop
      vertex -11.3079 4.72287e-15 21.2699
      vertex -12.5099 5.10703e-15 23
      vertex -10.7999 5.10703e-15 23
    endloop
  endfacet
  facet normal 0 1 -2.22045e-16
    outer loop
      vertex -12.5099 5.10703e-15 23
      vertex -11.3079 4.72287e-15 21.2699
      vertex -13.5395 4.79235e-15 21.5828
    endloop
  endfacet
  facet normal 0 1 -2.22045e-16
    outer loop
      vertex -13.5395 5.4217e-15 24.4172
      vertex -14.4554 5.81036e-15 26.1675
      vertex -12.6706 5.75338e-15 25.9109
    endloop
  endfacet
  facet normal 0 1 -2.22045e-16
    outer loop
      vertex -13.5395 5.4217e-15 24.4172
      vertex -12.6706 5.75338e-15 25.9109
      vertex -11.3079 5.49119e-15 24.7301
    endloop
  endfacet
  facet normal 0 1 -2.22045e-16
    outer loop
      vertex -15.2055 5.30151e-15 23.8759
      vertex -14.4554 5.81036e-15 26.1675
      vertex -13.5395 5.4217e-15 24.4172
    endloop
  endfacet
  facet normal 0 1 -2.22045e-16
    outer loop
      vertex -14.4554 5.81036e-15 26.1675
      vertex -15.2055 5.30151e-15 23.8759
      vertex -16.0956 5.64404e-15 25.4185
    endloop
  endfacet
  facet normal 0 1 -2.22045e-16
    outer loop
      vertex -16.0956 5.64404e-15 25.4185
      vertex -15.2055 5.30151e-15 23.8759
      vertex -17.0705 5.30722e-15 23.9016
    endloop
  endfacet
  facet normal 0 1 -2.22045e-16
    outer loop
      vertex -15.2055 4.91255e-15 22.1241
      vertex -17.0705 5.30722e-15 23.9016
      vertex -15.2055 5.30151e-15 23.8759
    endloop
  endfacet
  facet normal 0 1 -2.22045e-16
    outer loop
      vertex -15.2055 4.91255e-15 22.1241
      vertex -17.0705 4.90684e-15 22.0984
      vertex -17.0705 5.30722e-15 23.9016
    endloop
  endfacet
  facet normal 0 1 -2.22045e-16
    outer loop
      vertex -14.4554 4.40369e-15 19.8325
      vertex -15.2055 4.91255e-15 22.1241
      vertex -13.5395 4.79235e-15 21.5828
    endloop
  endfacet
  facet normal 0 1 -2.22045e-16
    outer loop
      vertex -15.2055 4.91255e-15 22.1241
      vertex -16.0956 4.57002e-15 20.5815
      vertex -17.0705 4.90684e-15 22.0984
    endloop
  endfacet
  facet normal 0 1 -2.22045e-16
    outer loop
      vertex -12.6706 4.46067e-15 20.0891
      vertex -13.5395 4.79235e-15 21.5828
      vertex -11.3079 4.72287e-15 21.2699
    endloop
  endfacet
  facet normal 0 1 -2.22045e-16
    outer loop
      vertex -14.4554 4.40369e-15 19.8325
      vertex -13.5395 4.79235e-15 21.5828
      vertex -12.6706 4.46067e-15 20.0891
    endloop
  endfacet
  facet normal 0 1 -2.22045e-16
    outer loop
      vertex -15.2055 4.91255e-15 22.1241
      vertex -14.4554 4.40369e-15 19.8325
      vertex -16.0956 4.57002e-15 20.5815
    endloop
  endfacet
  facet normal 0 1 -2.22045e-16
    outer loop
      vertex -2.5099 5.10703e-15 23
      vertex -1.30791 5.49119e-15 24.7301
      vertex -0.7999 5.10703e-15 23
    endloop
  endfacet
  facet normal 0 1 -2.22045e-16
    outer loop
      vertex -1.30791 5.49119e-15 24.7301
      vertex -2.5099 5.10703e-15 23
      vertex -3.53953 5.4217e-15 24.4172
    endloop
  endfacet
  facet normal 0 1 -2.22045e-16
    outer loop
      vertex -1.30791 4.72287e-15 21.2699
      vertex -2.5099 5.10703e-15 23
      vertex -0.7999 5.10703e-15 23
    endloop
  endfacet
  facet normal 0 1 -2.22045e-16
    outer loop
      vertex -2.5099 5.10703e-15 23
      vertex -1.30791 4.72287e-15 21.2699
      vertex -3.53953 4.79235e-15 21.5828
    endloop
  endfacet
  facet normal 0 1 -2.22045e-16
    outer loop
      vertex -3.53953 5.4217e-15 24.4172
      vertex -4.45542 5.81036e-15 26.1675
      vertex -2.67063 5.75338e-15 25.9109
    endloop
  endfacet
  facet normal 0 1 -2.22045e-16
    outer loop
      vertex -3.53953 5.4217e-15 24.4172
      vertex -2.67063 5.75338e-15 25.9109
      vertex -1.30791 5.49119e-15 24.7301
    endloop
  endfacet
  facet normal 0 1 -2.22045e-16
    outer loop
      vertex -5.20552 5.30151e-15 23.8759
      vertex -4.45542 5.81036e-15 26.1675
      vertex -3.53953 5.4217e-15 24.4172
    endloop
  endfacet
  facet normal 0 1 -2.22045e-16
    outer loop
      vertex -4.45542 5.81036e-15 26.1675
      vertex -5.20552 5.30151e-15 23.8759
      vertex -6.09562 5.64404e-15 25.4185
    endloop
  endfacet
  facet normal 0 1 -2.22045e-16
    outer loop
      vertex -6.09562 5.64404e-15 25.4185
      vertex -5.20552 5.30151e-15 23.8759
      vertex -7.07047 5.30722e-15 23.9016
    endloop
  endfacet
  facet normal 0 1 -2.22045e-16
    outer loop
      vertex -5.20552 4.91255e-15 22.1241
      vertex -7.07047 5.30722e-15 23.9016
      vertex -5.20552 5.30151e-15 23.8759
    endloop
  endfacet
  facet normal 0 1 -2.22045e-16
    outer loop
      vertex -5.20552 4.91255e-15 22.1241
      vertex -7.07047 4.90684e-15 22.0984
      vertex -7.07047 5.30722e-15 23.9016
    endloop
  endfacet
  facet normal 0 1 -2.22045e-16
    outer loop
      vertex -4.45542 4.40369e-15 19.8325
      vertex -5.20552 4.91255e-15 22.1241
      vertex -3.53953 4.79235e-15 21.5828
    endloop
  endfacet
  facet normal 0 1 -2.22045e-16
    outer loop
      vertex -5.20552 4.91255e-15 22.1241
      vertex -6.09562 4.57002e-15 20.5815
      vertex -7.07047 4.90684e-15 22.0984
    endloop
  endfacet
  facet normal 0 1 -2.22045e-16
    outer loop
      vertex -2.67063 4.46067e-15 20.0891
      vertex -3.53953 4.79235e-15 21.5828
      vertex -1.30791 4.72287e-15 21.2699
    endloop
  endfacet
  facet normal 0 1 -2.22045e-16
    outer loop
      vertex -4.45542 4.40369e-15 19.8325
      vertex -3.53953 4.79235e-15 21.5828
      vertex -2.67063 4.46067e-15 20.0891
    endloop
  endfacet
  facet normal 0 1 -2.22045e-16
    outer loop
      vertex -5.20552 4.91255e-15 22.1241
      vertex -4.45542 4.40369e-15 19.8325
      vertex -6.09562 4.57002e-15 20.5815
    endloop
  endfacet
  facet normal -0.809016 0 -0.587786
    outer loop
      vertex -2.5099 -4 23
      vertex -3.53953 5.4217e-15 24.4172
      vertex -2.5099 5.10703e-15 23
    endloop
  endfacet
  facet normal -0.809016 -0 -0.587786
    outer loop
      vertex -3.53953 5.4217e-15 24.4172
      vertex -2.5099 -4 23
      vertex -3.53953 -4 24.4172
    endloop
  endfacet
  facet normal 1 -0 0
    outer loop
      vertex -5.20552 -4 23.8759
      vertex -5.20552 4.91255e-15 22.1241
      vertex -5.20552 5.30151e-15 23.8759
    endloop
  endfacet
  facet normal 1 0 0
    outer loop
      vertex -5.20552 4.91255e-15 22.1241
      vertex -5.20552 -4 23.8759
      vertex -5.20552 -4 22.1241
    endloop
  endfacet
  facet normal 0.309017 0 -0.951057
    outer loop
      vertex -5.20552 -4 23.8759
      vertex -3.53953 5.4217e-15 24.4172
      vertex -3.53953 -4 24.4172
    endloop
  endfacet
  facet normal 0.309017 0 -0.951057
    outer loop
      vertex -3.53953 5.4217e-15 24.4172
      vertex -5.20552 -4 23.8759
      vertex -5.20552 5.30151e-15 23.8759
    endloop
  endfacet
  facet normal 0.309017 0 0.951057
    outer loop
      vertex -5.20552 4.91255e-15 22.1241
      vertex -3.53953 -4 21.5828
      vertex -3.53953 4.79235e-15 21.5828
    endloop
  endfacet
  facet normal 0.309017 0 0.951057
    outer loop
      vertex -3.53953 -4 21.5828
      vertex -5.20552 4.91255e-15 22.1241
      vertex -5.20552 -4 22.1241
    endloop
  endfacet
  facet normal -0.809016 0 0.587786
    outer loop
      vertex -3.53953 -4 21.5828
      vertex -2.5099 5.10703e-15 23
      vertex -3.53953 4.79235e-15 21.5828
    endloop
  endfacet
  facet normal -0.809016 0 0.587786
    outer loop
      vertex -2.5099 5.10703e-15 23
      vertex -3.53953 -4 21.5828
      vertex -2.5099 -4 23
    endloop
  endfacet
  facet normal -0.809016 0 -0.587786
    outer loop
      vertex -12.5099 -4 23
      vertex -13.5395 5.4217e-15 24.4172
      vertex -12.5099 5.10703e-15 23
    endloop
  endfacet
  facet normal -0.809016 -0 -0.587786
    outer loop
      vertex -13.5395 5.4217e-15 24.4172
      vertex -12.5099 -4 23
      vertex -13.5395 -4 24.4172
    endloop
  endfacet
  facet normal 1 -0 0
    outer loop
      vertex -15.2055 -4 23.8759
      vertex -15.2055 4.91255e-15 22.1241
      vertex -15.2055 5.30151e-15 23.8759
    endloop
  endfacet
  facet normal 1 0 0
    outer loop
      vertex -15.2055 4.91255e-15 22.1241
      vertex -15.2055 -4 23.8759
      vertex -15.2055 -4 22.1241
    endloop
  endfacet
  facet normal 0.309017 0 -0.951057
    outer loop
      vertex -15.2055 -4 23.8759
      vertex -13.5395 5.4217e-15 24.4172
      vertex -13.5395 -4 24.4172
    endloop
  endfacet
  facet normal 0.309017 0 -0.951057
    outer loop
      vertex -13.5395 5.4217e-15 24.4172
      vertex -15.2055 -4 23.8759
      vertex -15.2055 5.30151e-15 23.8759
    endloop
  endfacet
  facet normal 0.309017 0 0.951057
    outer loop
      vertex -15.2055 4.91255e-15 22.1241
      vertex -13.5395 -4 21.5828
      vertex -13.5395 4.79235e-15 21.5828
    endloop
  endfacet
  facet normal 0.309017 0 0.951057
    outer loop
      vertex -13.5395 -4 21.5828
      vertex -15.2055 4.91255e-15 22.1241
      vertex -15.2055 -4 22.1241
    endloop
  endfacet
  facet normal -0.809016 0 0.587786
    outer loop
      vertex -13.5395 -4 21.5828
      vertex -12.5099 5.10703e-15 23
      vertex -13.5395 4.79235e-15 21.5828
    endloop
  endfacet
  facet normal -0.809016 0 0.587786
    outer loop
      vertex -12.5099 5.10703e-15 23
      vertex -13.5395 -4 21.5828
      vertex -12.5099 -4 23
    endloop
  endfacet
  facet normal -0.866025 0 -0.5
    outer loop
      vertex -0.799899 -5 23
      vertex -2.39995 -4 25.7714
      vertex -0.799899 -4 23
    endloop
  endfacet
  facet normal -0.866025 -0 -0.5
    outer loop
      vertex -2.39995 -4 25.7714
      vertex -0.799899 -5 23
      vertex -2.39995 -5 25.7714
    endloop
  endfacet
  facet normal 0.866025 -0 0.5
    outer loop
      vertex -7.2001 -5 23
      vertex -5.60005 -4 20.2286
      vertex -7.2001 -4 23
    endloop
  endfacet
  facet normal 0.866025 0 0.5
    outer loop
      vertex -5.60005 -4 20.2286
      vertex -7.2001 -5 23
      vertex -5.60005 -5 20.2286
    endloop
  endfacet
  facet normal 0 0 -1
    outer loop
      vertex -5.60005 -5 25.7714
      vertex -2.39995 -4 25.7714
      vertex -2.39995 -5 25.7714
    endloop
  endfacet
  facet normal -0 0 -1
    outer loop
      vertex -2.39995 -4 25.7714
      vertex -5.60005 -5 25.7714
      vertex -5.60005 -4 25.7714
    endloop
  endfacet
  facet normal -0 0 1
    outer loop
      vertex -5.60005 -4 20.2286
      vertex -2.39995 -5 20.2286
      vertex -2.39995 -4 20.2286
    endloop
  endfacet
  facet normal 0 0 1
    outer loop
      vertex -2.39995 -5 20.2286
      vertex -5.60005 -4 20.2286
      vertex -5.60005 -5 20.2286
    endloop
  endfacet
  facet normal 0.866025 0 -0.5
    outer loop
      vertex -5.60005 -5 25.7714
      vertex -7.2001 -4 23
      vertex -5.60005 -4 25.7714
    endloop
  endfacet
  facet normal 0.866025 0 -0.5
    outer loop
      vertex -7.2001 -4 23
      vertex -5.60005 -5 25.7714
      vertex -7.2001 -5 23
    endloop
  endfacet
  facet normal 0 -1 0
    outer loop
      vertex -5.60005 -4 25.7714
      vertex -3.53953 -4 24.4172
      vertex -2.39995 -4 25.7714
    endloop
  endfacet
  facet normal 0 -1 0
    outer loop
      vertex -5.60005 -4 25.7714
      vertex -5.20552 -4 23.8759
      vertex -3.53953 -4 24.4172
    endloop
  endfacet
  facet normal 0 -1 0
    outer loop
      vertex -7.2001 -4 23
      vertex -5.20552 -4 23.8759
      vertex -5.60005 -4 25.7714
    endloop
  endfacet
  facet normal 0 -1 0
    outer loop
      vertex -7.2001 -4 23
      vertex -5.20552 -4 22.1241
      vertex -5.20552 -4 23.8759
    endloop
  endfacet
  facet normal 0 -1 -0
    outer loop
      vertex -5.20552 -4 22.1241
      vertex -5.60005 -4 20.2286
      vertex -3.53953 -4 21.5828
    endloop
  endfacet
  facet normal 0 -1 0
    outer loop
      vertex -5.60005 -4 20.2286
      vertex -5.20552 -4 22.1241
      vertex -7.2001 -4 23
    endloop
  endfacet
  facet normal 0 -1 0
    outer loop
      vertex -2.5099 -4 23
      vertex -2.39995 -4 25.7714
      vertex -3.53953 -4 24.4172
    endloop
  endfacet
  facet normal 0 -1 0
    outer loop
      vertex -2.5099 -4 23
      vertex -0.799899 -4 23
      vertex -2.39995 -4 25.7714
    endloop
  endfacet
  facet normal 0 -1 0
    outer loop
      vertex -2.39995 -4 20.2286
      vertex -2.5099 -4 23
      vertex -3.53953 -4 21.5828
    endloop
  endfacet
  facet normal 0 -1 0
    outer loop
      vertex -2.39995 -4 20.2286
      vertex -3.53953 -4 21.5828
      vertex -5.60005 -4 20.2286
    endloop
  endfacet
  facet normal 0 -1 0
    outer loop
      vertex -2.5099 -4 23
      vertex -2.39995 -4 20.2286
      vertex -0.799899 -4 23
    endloop
  endfacet
  facet normal -0.866025 0 0.5
    outer loop
      vertex -2.39995 -5 20.2286
      vertex -0.799899 -4 23
      vertex -2.39995 -4 20.2286
    endloop
  endfacet
  facet normal -0.866025 0 0.5
    outer loop
      vertex -0.799899 -4 23
      vertex -2.39995 -5 20.2286
      vertex -0.799899 -5 23
    endloop
  endfacet
  facet normal -0.866025 0 -0.5
    outer loop
      vertex -10.7999 -5 23
      vertex -12.3999 -4 25.7714
      vertex -10.7999 -4 23
    endloop
  endfacet
  facet normal -0.866025 -0 -0.5
    outer loop
      vertex -12.3999 -4 25.7714
      vertex -10.7999 -5 23
      vertex -12.3999 -5 25.7714
    endloop
  endfacet
  facet normal 0.866025 -0 0.5
    outer loop
      vertex -17.2001 -5 23
      vertex -15.6 -4 20.2286
      vertex -17.2001 -4 23
    endloop
  endfacet
  facet normal 0.866025 0 0.5
    outer loop
      vertex -15.6 -4 20.2286
      vertex -17.2001 -5 23
      vertex -15.6 -5 20.2286
    endloop
  endfacet
  facet normal 0 0 -1
    outer loop
      vertex -15.6 -5 25.7714
      vertex -12.3999 -4 25.7714
      vertex -12.3999 -5 25.7714
    endloop
  endfacet
  facet normal -0 0 -1
    outer loop
      vertex -12.3999 -4 25.7714
      vertex -15.6 -5 25.7714
      vertex -15.6 -4 25.7714
    endloop
  endfacet
  facet normal -0 0 1
    outer loop
      vertex -15.6 -4 20.2286
      vertex -12.3999 -5 20.2286
      vertex -12.3999 -4 20.2286
    endloop
  endfacet
  facet normal 0 0 1
    outer loop
      vertex -12.3999 -5 20.2286
      vertex -15.6 -4 20.2286
      vertex -15.6 -5 20.2286
    endloop
  endfacet
  facet normal 0.866025 0 -0.5
    outer loop
      vertex -15.6 -5 25.7714
      vertex -17.2001 -4 23
      vertex -15.6 -4 25.7714
    endloop
  endfacet
  facet normal 0.866025 0 -0.5
    outer loop
      vertex -17.2001 -4 23
      vertex -15.6 -5 25.7714
      vertex -17.2001 -5 23
    endloop
  endfacet
  facet normal 0 -1 0
    outer loop
      vertex -15.6 -4 25.7714
      vertex -13.5395 -4 24.4172
      vertex -12.3999 -4 25.7714
    endloop
  endfacet
  facet normal 0 -1 0
    outer loop
      vertex -15.6 -4 25.7714
      vertex -15.2055 -4 23.8759
      vertex -13.5395 -4 24.4172
    endloop
  endfacet
  facet normal 0 -1 0
    outer loop
      vertex -17.2001 -4 23
      vertex -15.2055 -4 23.8759
      vertex -15.6 -4 25.7714
    endloop
  endfacet
  facet normal 0 -1 0
    outer loop
      vertex -17.2001 -4 23
      vertex -15.2055 -4 22.1241
      vertex -15.2055 -4 23.8759
    endloop
  endfacet
  facet normal 0 -1 -0
    outer loop
      vertex -15.2055 -4 22.1241
      vertex -15.6 -4 20.2286
      vertex -13.5395 -4 21.5828
    endloop
  endfacet
  facet normal 0 -1 0
    outer loop
      vertex -15.6 -4 20.2286
      vertex -15.2055 -4 22.1241
      vertex -17.2001 -4 23
    endloop
  endfacet
  facet normal 0 -1 0
    outer loop
      vertex -12.5099 -4 23
      vertex -12.3999 -4 25.7714
      vertex -13.5395 -4 24.4172
    endloop
  endfacet
  facet normal 0 -1 0
    outer loop
      vertex -12.5099 -4 23
      vertex -10.7999 -4 23
      vertex -12.3999 -4 25.7714
    endloop
  endfacet
  facet normal 0 -1 0
    outer loop
      vertex -12.3999 -4 20.2286
      vertex -12.5099 -4 23
      vertex -13.5395 -4 21.5828
    endloop
  endfacet
  facet normal 0 -1 0
    outer loop
      vertex -12.3999 -4 20.2286
      vertex -13.5395 -4 21.5828
      vertex -15.6 -4 20.2286
    endloop
  endfacet
  facet normal 0 -1 0
    outer loop
      vertex -12.5099 -4 23
      vertex -12.3999 -4 20.2286
      vertex -10.7999 -4 23
    endloop
  endfacet
  facet normal -0.866025 0 0.5
    outer loop
      vertex -12.3999 -5 20.2286
      vertex -10.7999 -4 23
      vertex -12.3999 -4 20.2286
    endloop
  endfacet
  facet normal -0.866025 0 0.5
    outer loop
      vertex -10.7999 -4 23
      vertex -12.3999 -5 20.2286
      vertex -10.7999 -5 23
    endloop
  endfacet
  facet normal 1 -1.22465e-16 0
    outer loop
      vertex 0 -33 9.8
      vertex 3.06162e-15 -8 -0.0999996
      vertex 3.06162e-15 -8 9.8
    endloop
  endfacet
  facet normal 1 -1.22465e-16 -5.09971e-32
    outer loop
      vertex 3.06162e-15 -8 -0.0999996
      vertex 0 -33 9.8
      vertex -2.44054e-31 -33 -0.0999996
    endloop
  endfacet
  facet normal 0 0 -1
    outer loop
      vertex -2.44054e-31 -33 -0.0999996
      vertex -16.45 -30.4 -0.0999996
      vertex -1.55 -30.4 -0.0999996
    endloop
  endfacet
  facet normal -0 0 -1
    outer loop
      vertex -16.45 -30.4 -0.0999996
      vertex -18 -33 -0.0999996
      vertex -16.45 -14.15 -0.0999996
    endloop
  endfacet
  facet normal 0 0 -1
    outer loop
      vertex -18 -33 -0.0999996
      vertex -16.45 -30.4 -0.0999996
      vertex -2.44054e-31 -33 -0.0999996
    endloop
  endfacet
  facet normal 0 0 -1
    outer loop
      vertex -1.55 -14.15 -0.0999996
      vertex -2.44054e-31 -33 -0.0999996
      vertex -1.55 -30.4 -0.0999996
    endloop
  endfacet
  facet normal 0 0 -1
    outer loop
      vertex -2.44054e-31 -33 -0.0999996
      vertex -1.55 -14.15 -0.0999996
      vertex 3.06162e-15 -8 -0.0999996
    endloop
  endfacet
  facet normal 0 0 -1
    outer loop
      vertex -16.45 -14.15 -0.0999996
      vertex 3.06162e-15 -8 -0.0999996
      vertex -1.55 -14.15 -0.0999996
    endloop
  endfacet
  facet normal 0 0 -1
    outer loop
      vertex -16.45 -14.15 -0.0999996
      vertex -18 -8 -0.0999996
      vertex 3.06162e-15 -8 -0.0999996
    endloop
  endfacet
  facet normal 0 0 -1
    outer loop
      vertex -18 -8 -0.0999996
      vertex -16.45 -14.15 -0.0999996
      vertex -18 -33 -0.0999996
    endloop
  endfacet
  facet normal -1 0 0
    outer loop
      vertex -18 -33 -0.0999996
      vertex -18 -8 1.77636e-15
      vertex -18 -8 -0.0999996
    endloop
  endfacet
  facet normal -1 -0 0
    outer loop
      vertex -18 -8 1.77636e-15
      vertex -18 -33 -0.0999996
      vertex -18 -8 9.8
    endloop
  endfacet
  facet normal -1 -0 0
    outer loop
      vertex -18 -8 9.8
      vertex -18 -33 -0.0999996
      vertex -18 -33 9.8
    endloop
  endfacet
  facet normal 0 0 1
    outer loop
      vertex -1.55 -10.96 9.8
      vertex 3.06162e-15 -8 9.8
      vertex 0 -8 9.8
    endloop
  endfacet
  facet normal 0 0 1
    outer loop
      vertex 3.06162e-15 -8 9.8
      vertex -1.55 -10.96 9.8
      vertex 0 -33 9.8
    endloop
  endfacet
  facet normal 0 0 1
    outer loop
      vertex 0 -8 9.8
      vertex -16.45 -10.96 9.8
      vertex -1.55 -10.96 9.8
    endloop
  endfacet
  facet normal 0 0 1
    outer loop
      vertex -18 -33 9.8
      vertex -16.45 -10.96 9.8
      vertex -18 -8 9.8
    endloop
  endfacet
  facet normal -0 0 1
    outer loop
      vertex -18 -8 9.8
      vertex -16.45 -10.96 9.8
      vertex 0 -8 9.8
    endloop
  endfacet
  facet normal -0 0 1
    outer loop
      vertex -1.55 -30.4 9.8
      vertex 0 -33 9.8
      vertex -1.55 -10.96 9.8
    endloop
  endfacet
  facet normal -0 0 1
    outer loop
      vertex -16.45 -30.4 9.8
      vertex 0 -33 9.8
      vertex -1.55 -30.4 9.8
    endloop
  endfacet
  facet normal 0 0 1
    outer loop
      vertex -16.45 -30.4 9.8
      vertex -18 -33 9.8
      vertex 0 -33 9.8
    endloop
  endfacet
  facet normal 0 0 1
    outer loop
      vertex -16.45 -10.96 9.8
      vertex -18 -33 9.8
      vertex -16.45 -30.4 9.8
    endloop
  endfacet
  facet normal 0 -1 0
    outer loop
      vertex -18 -33 -0.0999996
      vertex 0 -33 9.8
      vertex -18 -33 9.8
    endloop
  endfacet
  facet normal 0 -1 0
    outer loop
      vertex 0 -33 9.8
      vertex -18 -33 -0.0999996
      vertex -2.44054e-31 -33 -0.0999996
    endloop
  endfacet
  facet normal 0 1 -0
    outer loop
      vertex 3.06162e-15 -8 -0.0999996
      vertex 0 -8 9.8
      vertex 3.06162e-15 -8 9.8
    endloop
  endfacet
  facet normal 0 1 0
    outer loop
      vertex 0 -8 9.8
      vertex 3.06162e-15 -8 -0.0999996
      vertex -17.7687 -8 1.77636e-15
    endloop
  endfacet
  facet normal 0 1 0
    outer loop
      vertex -18 -8 -0.0999996
      vertex -17.7687 -8 1.77636e-15
      vertex 3.06162e-15 -8 -0.0999996
    endloop
  endfacet
  facet normal 0 1 0
    outer loop
      vertex -17.7687 -8 1.77636e-15
      vertex -18 -8 -0.0999996
      vertex -18 -8 1.77636e-15
    endloop
  endfacet
  facet normal -1 0 0
    outer loop
      vertex -1.55 -30.4 -0.0999996
      vertex -1.55 -14.15 -0.0534374
      vertex -1.55 -14.15 -0.0999996
    endloop
  endfacet
  facet normal -1 -0 0
    outer loop
      vertex -1.55 -14.15 -0.0534374
      vertex -1.55 -30.4 -0.0999996
      vertex -1.55 -30.4 1.65
    endloop
  endfacet
  facet normal -1 0 0
    outer loop
      vertex -1.55 -14.15 -0.0534374
      vertex -1.55 -30.4 1.65
      vertex -1.55 -30.4 8.45
    endloop
  endfacet
  facet normal -1 0 0
    outer loop
      vertex -1.55 -31.57 1.65
      vertex -1.55 -30.4 8.45
      vertex -1.55 -30.4 1.65
    endloop
  endfacet
  facet normal -1 -0 0
    outer loop
      vertex -1.55 -30.4 8.45
      vertex -1.55 -31.57 1.65
      vertex -1.55 -31.57 8.45
    endloop
  endfacet
  facet normal -1 -0 0
    outer loop
      vertex -1.55 -11.0639 1.53942
      vertex -1.55 -14.15 -0.0534374
      vertex -1.55 -11.121 1.65
    endloop
  endfacet
  facet normal -1 0 0
    outer loop
      vertex -1.55 -9.43 1.65
      vertex -1.55 -10.96 8.45
      vertex -1.55 -9.43 8.45
    endloop
  endfacet
  facet normal -1 0 0
    outer loop
      vertex -1.55 -11.121 1.65
      vertex -1.55 -10.96 8.45
      vertex -1.55 -9.43 1.65
    endloop
  endfacet
  facet normal -1 0 0
    outer loop
      vertex -1.55 -14.15 -0.0534374
      vertex -1.55 -10.96 8.45
      vertex -1.55 -11.121 1.65
    endloop
  endfacet
  facet normal -1 0 0
    outer loop
      vertex -1.55 -30.4 8.45
      vertex -1.55 -10.96 8.45
      vertex -1.55 -14.15 -0.0534374
    endloop
  endfacet
  facet normal -1 0 0
    outer loop
      vertex -1.55 -10.96 8.45
      vertex -1.55 -30.4 8.45
      vertex -1.55 -10.96 9.8
    endloop
  endfacet
  facet normal -1 -0 0
    outer loop
      vertex -1.55 -10.96 9.8
      vertex -1.55 -30.4 8.45
      vertex -1.55 -30.4 9.8
    endloop
  endfacet
  facet normal 1 -0 0
    outer loop
      vertex -16.45 -31.57 8.45
      vertex -16.45 -30.4 1.65
      vertex -16.45 -30.4 8.45
    endloop
  endfacet
  facet normal 1 0 0
    outer loop
      vertex -16.45 -30.4 1.65
      vertex -16.45 -31.57 8.45
      vertex -16.45 -31.57 1.65
    endloop
  endfacet
  facet normal 1 0 0
    outer loop
      vertex -16.45 -30.4 8.45
      vertex -16.45 -10.96 8.45
      vertex -16.45 -10.96 9.8
    endloop
  endfacet
  facet normal 1 0 0
    outer loop
      vertex -16.45 -10.96 8.45
      vertex -16.45 -14.15 -0.0534374
      vertex -16.45 -11.121 1.65
    endloop
  endfacet
  facet normal 1 0 0
    outer loop
      vertex -16.45 -30.4 8.45
      vertex -16.45 -10.96 9.8
      vertex -16.45 -30.4 9.8
    endloop
  endfacet
  facet normal 1 0 0
    outer loop
      vertex -16.45 -10.96 8.45
      vertex -16.45 -30.4 8.45
      vertex -16.45 -14.15 -0.0534374
    endloop
  endfacet
  facet normal 1 -0 0
    outer loop
      vertex -16.45 -30.4 1.65
      vertex -16.45 -14.15 -0.0534374
      vertex -16.45 -30.4 8.45
    endloop
  endfacet
  facet normal 1 0 0
    outer loop
      vertex -16.45 -30.4 -0.0999996
      vertex -16.45 -14.15 -0.0534374
      vertex -16.45 -30.4 1.65
    endloop
  endfacet
  facet normal 1 0 0
    outer loop
      vertex -16.45 -14.15 -0.0534374
      vertex -16.45 -30.4 -0.0999996
      vertex -16.45 -14.15 -0.0999996
    endloop
  endfacet
  facet normal 1 -0 0
    outer loop
      vertex -16.45 -10.96 8.45
      vertex -16.45 -9.43 1.65
      vertex -16.45 -9.43 8.45
    endloop
  endfacet
  facet normal 1 0 0
    outer loop
      vertex -16.45 -9.43 1.65
      vertex -16.45 -10.96 8.45
      vertex -16.45 -11.121 1.65
    endloop
  endfacet
  facet normal 1 0 0
    outer loop
      vertex -16.45 -11.0639 1.53942
      vertex -16.45 -11.121 1.65
      vertex -16.45 -14.15 -0.0534374
    endloop
  endfacet
  facet normal 0 1 -0
    outer loop
      vertex -1.55 -30.4 8.45
      vertex -16.45 -30.4 9.8
      vertex -1.55 -30.4 9.8
    endloop
  endfacet
  facet normal 0 1 0
    outer loop
      vertex -16.45 -30.4 9.8
      vertex -1.55 -30.4 8.45
      vertex -16.45 -30.4 8.45
    endloop
  endfacet
  facet normal 1.2801e-07 1 -0
    outer loop
      vertex -1.55 -30.4 -0.0999996
      vertex -16.45 -30.4 1.65
      vertex -1.55 -30.4 1.65
    endloop
  endfacet
  facet normal 0 1 -1.08991e-06
    outer loop
      vertex -16.45 -30.4 1.65
      vertex -1.55 -30.4 -0.0999996
      vertex -16.45 -30.4 -0.0999996
    endloop
  endfacet
  facet normal 0 -1 0
    outer loop
      vertex -16.45 -10.96 8.45
      vertex -1.55 -10.96 9.8
      vertex -16.45 -10.96 9.8
    endloop
  endfacet
  facet normal 0 -1 -0
    outer loop
      vertex -1.55 -10.96 9.8
      vertex -16.45 -10.96 8.45
      vertex -1.55 -10.96 8.45
    endloop
  endfacet
  facet normal 0 -1 0
    outer loop
      vertex -16.45 -14.15 -0.0999996
      vertex -1.55 -14.15 -0.0534374
      vertex -16.45 -14.15 -0.0534374
    endloop
  endfacet
  facet normal 0 -1 -0
    outer loop
      vertex -1.55 -14.15 -0.0534374
      vertex -16.45 -14.15 -0.0999996
      vertex -1.55 -14.15 -0.0999996
    endloop
  endfacet
  facet normal 0 -0.458649 0.888617
    outer loop
      vertex -16.45 -11.0639 1.53942
      vertex -1.55 -14.15 -0.0534374
      vertex -1.55 -11.0639 1.53942
    endloop
  endfacet
  facet normal 0 -0.458649 0.888617
    outer loop
      vertex -1.55 -14.15 -0.0534374
      vertex -16.45 -11.0639 1.53942
      vertex -16.45 -14.15 -0.0534374
    endloop
  endfacet
  facet normal 0 -0.888618 -0.458648
    outer loop
      vertex -16.45 -11.0639 1.53942
      vertex -1.55 -11.121 1.65
      vertex -16.45 -11.121 1.65
    endloop
  endfacet
  facet normal 0 -0.888618 -0.458648
    outer loop
      vertex -1.55 -11.121 1.65
      vertex -16.45 -11.0639 1.53942
      vertex -1.55 -11.0639 1.53942
    endloop
  endfacet
  facet normal 0 0 1
    outer loop
      vertex -16.45 -30.4 1.65
      vertex -1.55 -31.57 1.65
      vertex -1.55 -30.4 1.65
    endloop
  endfacet
  facet normal 0 0 1
    outer loop
      vertex -1.55 -31.57 1.65
      vertex -16.45 -30.4 1.65
      vertex -16.45 -31.57 1.65
    endloop
  endfacet
  facet normal -0 0 1
    outer loop
      vertex -16.45 -9.43 1.65
      vertex -1.55 -11.121 1.65
      vertex -1.55 -9.43 1.65
    endloop
  endfacet
  facet normal 0 0 1
    outer loop
      vertex -1.55 -11.121 1.65
      vertex -16.45 -9.43 1.65
      vertex -16.45 -11.121 1.65
    endloop
  endfacet
  facet normal 0 0 -1
    outer loop
      vertex -16.45 -10.96 8.45
      vertex -1.55 -9.43 8.45
      vertex -1.55 -10.96 8.45
    endloop
  endfacet
  facet normal -0 0 -1
    outer loop
      vertex -1.55 -9.43 8.45
      vertex -16.45 -10.96 8.45
      vertex -16.45 -9.43 8.45
    endloop
  endfacet
  facet normal 0 0 -1
    outer loop
      vertex -16.45 -31.57 8.45
      vertex -1.55 -30.4 8.45
      vertex -1.55 -31.57 8.45
    endloop
  endfacet
  facet normal -0 0 -1
    outer loop
      vertex -1.55 -30.4 8.45
      vertex -16.45 -31.57 8.45
      vertex -16.45 -30.4 8.45
    endloop
  endfacet
  facet normal 0 1 -0
    outer loop
      vertex -1.55 -31.57 1.65
      vertex -16.45 -31.57 8.45
      vertex -1.55 -31.57 8.45
    endloop
  endfacet
  facet normal 0 1 0
    outer loop
      vertex -16.45 -31.57 8.45
      vertex -1.55 -31.57 1.65
      vertex -16.45 -31.57 1.65
    endloop
  endfacet
  facet normal 0 -1 0
    outer loop
      vertex -16.45 -9.43 1.65
      vertex -1.55 -9.43 8.45
      vertex -16.45 -9.43 8.45
    endloop
  endfacet
  facet normal 0 -1 -0
    outer loop
      vertex -1.55 -9.43 8.45
      vertex -16.45 -9.43 1.65
      vertex -1.55 -9.43 1.65
    endloop
  endfacet
  facet normal 1 -1.22465e-16 0
    outer loop
      vertex 2.89629e-15 -9.35 11.1238
      vertex 3.06162e-15 -8 11.15
      vertex 2.89629e-15 -9.35 11.15
    endloop
  endfacet
  facet normal 1 -1.22465e-16 0
    outer loop
      vertex 3.06162e-15 -8 11.15
      vertex 2.89629e-15 -9.35 11.1238
      vertex 3.06162e-15 -8 9.8
    endloop
  endfacet
  facet normal 1 -1.2247e-16 -4.14203e-20
    outer loop
      vertex 2.87886e-15 -9.49234 11.1449
      vertex 2.89629e-15 -9.35 11.1238
      vertex 2.89316e-15 -9.37558 11.1295
    endloop
  endfacet
  facet normal 1 -1.22464e-16 -5.22857e-22
    outer loop
      vertex 2.89629e-15 -9.35 11.1238
      vertex 2.87886e-15 -9.49234 11.1449
      vertex 2.69912e-15 -10.96 9.8
    endloop
  endfacet
  facet normal 1 -1.22465e-16 3.26242e-22
    outer loop
      vertex 2.69912e-15 -10.96 9.8
      vertex 2.87886e-15 -9.49234 11.1449
      vertex 2.86445e-15 -9.61 11.15
    endloop
  endfacet
  facet normal 1 -1.22465e-16 3.56026e-22
    outer loop
      vertex 2.69912e-15 -10.96 9.8
      vertex 2.86445e-15 -9.61 11.15
      vertex 2.85004e-15 -9.72766 11.1449
    endloop
  endfacet
  facet normal 1 -1.22464e-16 -6.66756e-22
    outer loop
      vertex 2.69912e-15 -10.96 9.8
      vertex 2.85004e-15 -9.72766 11.1449
      vertex 2.83574e-15 -9.84443 11.1295
    endloop
  endfacet
  facet normal 1 -1.22465e-16 -4.67717e-23
    outer loop
      vertex 2.69912e-15 -10.96 9.8
      vertex 2.83574e-15 -9.84443 11.1295
      vertex 2.82166e-15 -9.95941 11.104
    endloop
  endfacet
  facet normal 1 -1.22464e-16 -6.78941e-22
    outer loop
      vertex 2.69912e-15 -10.96 9.8
      vertex 2.82166e-15 -9.95941 11.104
      vertex 2.8079e-15 -10.0717 11.0686
    endloop
  endfacet
  facet normal 1 -1.22465e-16 -6.36978e-24
    outer loop
      vertex 2.69912e-15 -10.96 9.8
      vertex 2.8079e-15 -10.0717 11.0686
      vertex 2.79458e-15 -10.1805 11.0235
    endloop
  endfacet
  facet normal 1 -1.22464e-16 -2.0489e-21
    outer loop
      vertex 2.76962e-15 -10.3843 10.9059
      vertex 2.79458e-15 -10.1805 11.0235
      vertex 2.78179e-15 -10.285 10.9691
    endloop
  endfacet
  facet normal 1 -1.22465e-16 1.51738e-22
    outer loop
      vertex 2.75818e-15 -10.4778 10.8342
      vertex 2.79458e-15 -10.1805 11.0235
      vertex 2.76962e-15 -10.3843 10.9059
    endloop
  endfacet
  facet normal 1 -1.22466e-16 7.2536e-22
    outer loop
      vertex 2.74754e-15 -10.5646 10.7546
      vertex 2.79458e-15 -10.1805 11.0235
      vertex 2.75818e-15 -10.4778 10.8342
    endloop
  endfacet
  facet normal 1 -1.2247e-16 7.00991e-21
    outer loop
      vertex 2.7378e-15 -10.6442 10.6678
      vertex 2.79458e-15 -10.1805 11.0235
      vertex 2.74754e-15 -10.5646 10.7546
    endloop
  endfacet
  facet normal 1 -1.22461e-16 -5.17528e-21
    outer loop
      vertex 2.72902e-15 -10.7159 10.5743
      vertex 2.79458e-15 -10.1805 11.0235
      vertex 2.7378e-15 -10.6442 10.6678
    endloop
  endfacet
  facet normal 1 -1.22469e-16 4.13831e-21
    outer loop
      vertex 2.72127e-15 -10.7791 10.475
      vertex 2.79458e-15 -10.1805 11.0235
      vertex 2.72902e-15 -10.7159 10.5743
    endloop
  endfacet
  facet normal 1 -1.22465e-16 5.29942e-23
    outer loop
      vertex 2.71461e-15 -10.8335 10.3705
      vertex 2.79458e-15 -10.1805 11.0235
      vertex 2.72127e-15 -10.7791 10.475
    endloop
  endfacet
  facet normal 1 -1.22464e-16 -4.86651e-22
    outer loop
      vertex 2.70909e-15 -10.8786 10.2617
      vertex 2.79458e-15 -10.1805 11.0235
      vertex 2.71461e-15 -10.8335 10.3705
    endloop
  endfacet
  facet normal 1 -1.22465e-16 4.32289e-22
    outer loop
      vertex 2.70475e-15 -10.914 10.1494
      vertex 2.79458e-15 -10.1805 11.0235
      vertex 2.70909e-15 -10.8786 10.2617
    endloop
  endfacet
  facet normal 1 -1.22464e-16 -2.49058e-22
    outer loop
      vertex 2.70163e-15 -10.9395 10.0344
      vertex 2.79458e-15 -10.1805 11.0235
      vertex 2.70475e-15 -10.914 10.1494
    endloop
  endfacet
  facet normal 1 -1.22465e-16 3.22527e-22
    outer loop
      vertex 2.69975e-15 -10.9549 9.91766
      vertex 2.79458e-15 -10.1805 11.0235
      vertex 2.70163e-15 -10.9395 10.0344
    endloop
  endfacet
  facet normal 1 -1.22463e-16 -8.61076e-22
    outer loop
      vertex 2.69912e-15 -10.96 9.8
      vertex 2.79458e-15 -10.1805 11.0235
      vertex 2.69975e-15 -10.9549 9.91766
    endloop
  endfacet
  facet normal 1 -1.22465e-16 1.21448e-23
    outer loop
      vertex 2.89629e-15 -9.35 11.1238
      vertex 2.69912e-15 -10.96 9.8
      vertex 3.06162e-15 -8 9.8
    endloop
  endfacet
  facet normal 0 0 -1
    outer loop
      vertex -18 -10.96 9.8
      vertex 3.06162e-15 -8 9.8
      vertex 2.69912e-15 -10.96 9.8
    endloop
  endfacet
  facet normal -0 0 -1
    outer loop
      vertex 3.06162e-15 -8 9.8
      vertex -18 -10.96 9.8
      vertex -18 -8 9.8
    endloop
  endfacet
  facet normal -0 0 1
    outer loop
      vertex -18 -8 11.15
      vertex 2.89629e-15 -9.35 11.15
      vertex 3.06162e-15 -8 11.15
    endloop
  endfacet
  facet normal 0 0 1
    outer loop
      vertex 2.89629e-15 -9.35 11.15
      vertex -18 -8 11.15
      vertex -18 -9.35 11.15
    endloop
  endfacet
  facet normal 0 -1 0
    outer loop
      vertex -18 -9.35 11.1238
      vertex 2.89629e-15 -9.35 11.15
      vertex -18 -9.35 11.15
    endloop
  endfacet
  facet normal 0 -1 -0
    outer loop
      vertex 2.89629e-15 -9.35 11.15
      vertex -18 -9.35 11.1238
      vertex 2.89629e-15 -9.35 11.1238
    endloop
  endfacet
  facet normal -0 0.0436136 0.999048
    outer loop
      vertex -18 -9.49234 11.1449
      vertex 2.86445e-15 -9.61 11.15
      vertex 2.87886e-15 -9.49234 11.1449
    endloop
  endfacet
  facet normal 0 0.0436136 0.999048
    outer loop
      vertex 2.86445e-15 -9.61 11.15
      vertex -18 -9.49234 11.1449
      vertex -18 -9.61 11.15
    endloop
  endfacet
  facet normal 0 -0.999048 0.0436136
    outer loop
      vertex -18 -10.96 9.8
      vertex 2.69975e-15 -10.9549 9.91766
      vertex -18 -10.9549 9.91766
    endloop
  endfacet
  facet normal 0 -0.999048 0.0436136
    outer loop
      vertex 2.69975e-15 -10.9549 9.91766
      vertex -18 -10.96 9.8
      vertex 2.69912e-15 -10.96 9.8
    endloop
  endfacet
  facet normal 0 -0.537301 0.843391
    outer loop
      vertex -18 -10.285 10.9691
      vertex 2.76962e-15 -10.3843 10.9059
      vertex 2.78179e-15 -10.285 10.9691
    endloop
  endfacet
  facet normal 0 -0.537301 0.843391
    outer loop
      vertex 2.76962e-15 -10.3843 10.9059
      vertex -18 -10.285 10.9691
      vertex -18 -10.3843 10.9059
    endloop
  endfacet
  facet normal 0 -0.991445 0.130526
    outer loop
      vertex -18 -10.9549 9.91766
      vertex 2.70163e-15 -10.9395 10.0344
      vertex -18 -10.9395 10.0344
    endloop
  endfacet
  facet normal 0 -0.991445 0.130526
    outer loop
      vertex 2.70163e-15 -10.9395 10.0344
      vertex -18 -10.9549 9.91766
      vertex 2.69975e-15 -10.9549 9.91766
    endloop
  endfacet
  facet normal 0 -0.923879 0.382684
    outer loop
      vertex -18 -10.8786 10.2617
      vertex 2.71461e-15 -10.8335 10.3705
      vertex -18 -10.8335 10.3705
    endloop
  endfacet
  facet normal 0 -0.923879 0.382684
    outer loop
      vertex 2.71461e-15 -10.8335 10.3705
      vertex -18 -10.8786 10.2617
      vertex 2.70909e-15 -10.8786 10.2617
    endloop
  endfacet
  facet normal -0 0.130525 0.991445
    outer loop
      vertex -18 -9.37558 11.1295
      vertex 2.87886e-15 -9.49234 11.1449
      vertex 2.89316e-15 -9.37558 11.1295
    endloop
  endfacet
  facet normal 0 0.130525 0.991445
    outer loop
      vertex 2.87886e-15 -9.49234 11.1449
      vertex -18 -9.37558 11.1295
      vertex -18 -9.49234 11.1449
    endloop
  endfacet
  facet normal 0 -0.887011 0.461749
    outer loop
      vertex -18 -10.8335 10.3705
      vertex 2.72127e-15 -10.7791 10.475
      vertex -18 -10.7791 10.475
    endloop
  endfacet
  facet normal 0 -0.887011 0.461749
    outer loop
      vertex 2.72127e-15 -10.7791 10.475
      vertex -18 -10.8335 10.3705
      vertex 2.71461e-15 -10.8335 10.3705
    endloop
  endfacet
  facet normal -0 0.216433 0.976297
    outer loop
      vertex -18 -9.35 11.1238
      vertex 2.89316e-15 -9.37558 11.1295
      vertex 2.89629e-15 -9.35 11.1238
    endloop
  endfacet
  facet normal 0 0.216433 0.976297
    outer loop
      vertex 2.89316e-15 -9.37558 11.1295
      vertex -18 -9.35 11.1238
      vertex -18 -9.37558 11.1295
    endloop
  endfacet
  facet normal 0 -0.130526 0.991445
    outer loop
      vertex -18 -9.72766 11.1449
      vertex 2.83574e-15 -9.84443 11.1295
      vertex 2.85004e-15 -9.72766 11.1449
    endloop
  endfacet
  facet normal 0 -0.130526 0.991445
    outer loop
      vertex 2.83574e-15 -9.84443 11.1295
      vertex -18 -9.72766 11.1449
      vertex -18 -9.84443 11.1295
    endloop
  endfacet
  facet normal 0 -0.0436136 0.999048
    outer loop
      vertex -18 -9.61 11.15
      vertex 2.85004e-15 -9.72766 11.1449
      vertex 2.86445e-15 -9.61 11.15
    endloop
  endfacet
  facet normal 0 -0.0436136 0.999048
    outer loop
      vertex 2.85004e-15 -9.72766 11.1449
      vertex -18 -9.61 11.15
      vertex -18 -9.72766 11.1449
    endloop
  endfacet
  facet normal 0 -0.461749 0.887011
    outer loop
      vertex -18 -10.1805 11.0235
      vertex 2.78179e-15 -10.285 10.9691
      vertex 2.79458e-15 -10.1805 11.0235
    endloop
  endfacet
  facet normal 0 -0.461749 0.887011
    outer loop
      vertex 2.78179e-15 -10.285 10.9691
      vertex -18 -10.1805 11.0235
      vertex -18 -10.285 10.9691
    endloop
  endfacet
  facet normal 0 -0.608761 0.793354
    outer loop
      vertex -18 -10.3843 10.9059
      vertex 2.75818e-15 -10.4778 10.8342
      vertex 2.76962e-15 -10.3843 10.9059
    endloop
  endfacet
  facet normal 0 -0.608761 0.793354
    outer loop
      vertex 2.75818e-15 -10.4778 10.8342
      vertex -18 -10.3843 10.9059
      vertex -18 -10.4778 10.8342
    endloop
  endfacet
  facet normal 0 -0.976296 0.216441
    outer loop
      vertex -18 -10.9395 10.0344
      vertex 2.70475e-15 -10.914 10.1494
      vertex -18 -10.914 10.1494
    endloop
  endfacet
  facet normal 0 -0.976296 0.216441
    outer loop
      vertex 2.70475e-15 -10.914 10.1494
      vertex -18 -10.9395 10.0344
      vertex 2.70163e-15 -10.9395 10.0344
    endloop
  endfacet
  facet normal 0 -0.953718 0.300704
    outer loop
      vertex -18 -10.914 10.1494
      vertex 2.70909e-15 -10.8786 10.2617
      vertex -18 -10.8786 10.2617
    endloop
  endfacet
  facet normal 0 -0.953718 0.300704
    outer loop
      vertex 2.70909e-15 -10.8786 10.2617
      vertex -18 -10.914 10.1494
      vertex 2.70475e-15 -10.914 10.1494
    endloop
  endfacet
  facet normal 0 -0.737274 0.675594
    outer loop
      vertex -18 -10.6442 10.6678
      vertex 2.74754e-15 -10.5646 10.7546
      vertex -18 -10.5646 10.7546
    endloop
  endfacet
  facet normal 0 -0.737274 0.675594
    outer loop
      vertex 2.74754e-15 -10.5646 10.7546
      vertex -18 -10.6442 10.6678
      vertex 2.7378e-15 -10.6442 10.6678
    endloop
  endfacet
  facet normal 0 -0.675594 0.737274
    outer loop
      vertex -18 -10.4778 10.8342
      vertex 2.74754e-15 -10.5646 10.7546
      vertex 2.75818e-15 -10.4778 10.8342
    endloop
  endfacet
  facet normal 0 -0.675594 0.737274
    outer loop
      vertex 2.74754e-15 -10.5646 10.7546
      vertex -18 -10.4778 10.8342
      vertex -18 -10.5646 10.7546
    endloop
  endfacet
  facet normal 0 -0.793354 0.608761
    outer loop
      vertex -18 -10.7159 10.5743
      vertex 2.7378e-15 -10.6442 10.6678
      vertex -18 -10.6442 10.6678
    endloop
  endfacet
  facet normal 0 -0.793354 0.608761
    outer loop
      vertex 2.7378e-15 -10.6442 10.6678
      vertex -18 -10.7159 10.5743
      vertex 2.72902e-15 -10.7159 10.5743
    endloop
  endfacet
  facet normal 0 -0.843391 0.537301
    outer loop
      vertex -18 -10.7791 10.475
      vertex 2.72902e-15 -10.7159 10.5743
      vertex -18 -10.7159 10.5743
    endloop
  endfacet
  facet normal 0 -0.843391 0.537301
    outer loop
      vertex 2.72902e-15 -10.7159 10.5743
      vertex -18 -10.7791 10.475
      vertex 2.72127e-15 -10.7791 10.475
    endloop
  endfacet
  facet normal 0 -0.382684 0.923879
    outer loop
      vertex -18 -10.0717 11.0686
      vertex 2.79458e-15 -10.1805 11.0235
      vertex 2.8079e-15 -10.0717 11.0686
    endloop
  endfacet
  facet normal 0 -0.382684 0.923879
    outer loop
      vertex 2.79458e-15 -10.1805 11.0235
      vertex -18 -10.0717 11.0686
      vertex -18 -10.1805 11.0235
    endloop
  endfacet
  facet normal 0 -0.216441 0.976296
    outer loop
      vertex -18 -9.84443 11.1295
      vertex 2.82166e-15 -9.95941 11.104
      vertex 2.83574e-15 -9.84443 11.1295
    endloop
  endfacet
  facet normal 0 -0.216441 0.976296
    outer loop
      vertex 2.82166e-15 -9.95941 11.104
      vertex -18 -9.84443 11.1295
      vertex -18 -9.95941 11.104
    endloop
  endfacet
  facet normal 0 -0.300704 0.953718
    outer loop
      vertex -18 -9.95941 11.104
      vertex 2.8079e-15 -10.0717 11.0686
      vertex 2.82166e-15 -9.95941 11.104
    endloop
  endfacet
  facet normal 0 -0.300704 0.953718
    outer loop
      vertex 2.8079e-15 -10.0717 11.0686
      vertex -18 -9.95941 11.104
      vertex -18 -10.0717 11.0686
    endloop
  endfacet
  facet normal -1 0 0
    outer loop
      vertex -18 -8 9.8
      vertex -18 -9.35 11.1238
      vertex -18 -8 11.15
    endloop
  endfacet
  facet normal -1 0 0
    outer loop
      vertex -18 -10.96 9.8
      vertex -18 -9.35 11.1238
      vertex -18 -8 9.8
    endloop
  endfacet
  facet normal -1 0 -0
    outer loop
      vertex -18 -9.49234 11.1449
      vertex -18 -9.35 11.1238
      vertex -18 -10.96 9.8
    endloop
  endfacet
  facet normal -1 0 0
    outer loop
      vertex -18 -9.35 11.1238
      vertex -18 -9.49234 11.1449
      vertex -18 -9.37558 11.1295
    endloop
  endfacet
  facet normal -1 -0 0
    outer loop
      vertex -18 -9.49234 11.1449
      vertex -18 -10.96 9.8
      vertex -18 -9.61 11.15
    endloop
  endfacet
  facet normal -1 0 0
    outer loop
      vertex -18 -9.61 11.15
      vertex -18 -10.96 9.8
      vertex -18 -9.72766 11.1449
    endloop
  endfacet
  facet normal -1 0 0
    outer loop
      vertex -18 -9.72766 11.1449
      vertex -18 -10.96 9.8
      vertex -18 -9.84443 11.1295
    endloop
  endfacet
  facet normal -1 0 0
    outer loop
      vertex -18 -9.84443 11.1295
      vertex -18 -10.96 9.8
      vertex -18 -9.95941 11.104
    endloop
  endfacet
  facet normal -1 0 0
    outer loop
      vertex -18 -9.95941 11.104
      vertex -18 -10.96 9.8
      vertex -18 -10.0717 11.0686
    endloop
  endfacet
  facet normal -1 0 0
    outer loop
      vertex -18 -10.0717 11.0686
      vertex -18 -10.96 9.8
      vertex -18 -10.1805 11.0235
    endloop
  endfacet
  facet normal -1 0 0
    outer loop
      vertex -18 -10.1805 11.0235
      vertex -18 -10.3843 10.9059
      vertex -18 -10.285 10.9691
    endloop
  endfacet
  facet normal -1 0 0
    outer loop
      vertex -18 -10.1805 11.0235
      vertex -18 -10.4778 10.8342
      vertex -18 -10.3843 10.9059
    endloop
  endfacet
  facet normal -1 0 0
    outer loop
      vertex -18 -10.1805 11.0235
      vertex -18 -10.5646 10.7546
      vertex -18 -10.4778 10.8342
    endloop
  endfacet
  facet normal -1 0 0
    outer loop
      vertex -18 -10.1805 11.0235
      vertex -18 -10.6442 10.6678
      vertex -18 -10.5646 10.7546
    endloop
  endfacet
  facet normal -1 0 0
    outer loop
      vertex -18 -10.1805 11.0235
      vertex -18 -10.7159 10.5743
      vertex -18 -10.6442 10.6678
    endloop
  endfacet
  facet normal -1 0 0
    outer loop
      vertex -18 -10.1805 11.0235
      vertex -18 -10.7791 10.475
      vertex -18 -10.7159 10.5743
    endloop
  endfacet
  facet normal -1 0 0
    outer loop
      vertex -18 -10.1805 11.0235
      vertex -18 -10.8335 10.3705
      vertex -18 -10.7791 10.475
    endloop
  endfacet
  facet normal -1 0 0
    outer loop
      vertex -18 -10.1805 11.0235
      vertex -18 -10.8786 10.2617
      vertex -18 -10.8335 10.3705
    endloop
  endfacet
  facet normal -1 0 0
    outer loop
      vertex -18 -10.1805 11.0235
      vertex -18 -10.914 10.1494
      vertex -18 -10.8786 10.2617
    endloop
  endfacet
  facet normal -1 0 0
    outer loop
      vertex -18 -10.1805 11.0235
      vertex -18 -10.9395 10.0344
      vertex -18 -10.914 10.1494
    endloop
  endfacet
  facet normal -1 0 0
    outer loop
      vertex -18 -10.1805 11.0235
      vertex -18 -10.9549 9.91766
      vertex -18 -10.9395 10.0344
    endloop
  endfacet
  facet normal -1 0 0
    outer loop
      vertex -18 -10.1805 11.0235
      vertex -18 -10.96 9.8
      vertex -18 -10.9549 9.91766
    endloop
  endfacet
  facet normal -1 -0 0
    outer loop
      vertex -18 -8 11.15
      vertex -18 -9.35 11.1238
      vertex -18 -9.35 11.15
    endloop
  endfacet
  facet normal 0 1 -0
    outer loop
      vertex 3.06162e-15 -8 9.8
      vertex -18 -8 11.15
      vertex 3.06162e-15 -8 11.15
    endloop
  endfacet
  facet normal 0 1 0
    outer loop
      vertex -18 -8 11.15
      vertex 3.06162e-15 -8 9.8
      vertex -18 -8 9.8
    endloop
  endfacet
  facet normal 1 -1.22487e-16 -1.90496e-21
    outer loop
      vertex 3.15896e-16 -30.4205 10.0344
      vertex 3.18408e-16 -30.4 9.8
      vertex 3.17779e-16 -30.4051 9.91766
    endloop
  endfacet
  facet normal 1 -1.22457e-16 6.94925e-22
    outer loop
      vertex 3.12775e-16 -30.446 10.1494
      vertex 3.18408e-16 -30.4 9.8
      vertex 3.15896e-16 -30.4205 10.0344
    endloop
  endfacet
  facet normal 1 -1.22472e-16 -1.31988e-21
    outer loop
      vertex 3.08438e-16 -30.4814 10.2617
      vertex 3.18408e-16 -30.4 9.8
      vertex 3.12775e-16 -30.446 10.1494
    endloop
  endfacet
  facet normal 1 -1.22465e-16 -1.38688e-22
    outer loop
      vertex 3.02918e-16 -30.5265 10.3705
      vertex 3.18408e-16 -30.4 9.8
      vertex 3.08438e-16 -30.4814 10.2617
    endloop
  endfacet
  facet normal 1 -1.22464e-16 -9.79942e-22
    outer loop
      vertex 1.41059e-38 -33 9.8
      vertex 3.02918e-16 -30.5265 10.3705
      vertex 2.96258e-16 -30.5809 10.475
    endloop
  endfacet
  facet normal 1 -1.22465e-16 9.17777e-22
    outer loop
      vertex 1.41059e-38 -33 9.8
      vertex 2.96258e-16 -30.5809 10.475
      vertex 2.88509e-16 -30.6441 10.5743
    endloop
  endfacet
  facet normal 1 -1.22465e-16 1.39578e-22
    outer loop
      vertex 1.41059e-38 -33 9.8
      vertex 2.88509e-16 -30.6441 10.5743
      vertex 2.79729e-16 -30.7158 10.6678
    endloop
  endfacet
  facet normal 1 -1.22464e-16 -1.15342e-21
    outer loop
      vertex 1.41059e-38 -33 9.8
      vertex 2.79729e-16 -30.7158 10.6678
      vertex 2.69985e-16 -30.7954 10.7546
    endloop
  endfacet
  facet normal 1 -1.22465e-16 1.12479e-21
    outer loop
      vertex 1.41059e-38 -33 9.8
      vertex 2.69985e-16 -30.7954 10.7546
      vertex 2.59351e-16 -30.8822 10.8342
    endloop
  endfacet
  facet normal 1 -1.22465e-16 -1.84806e-23
    outer loop
      vertex 1.41059e-38 -33 9.8
      vertex 2.59351e-16 -30.8822 10.8342
      vertex 2.47909e-16 -30.9757 10.9059
    endloop
  endfacet
  facet normal 1 -1.22464e-16 -8.57972e-22
    outer loop
      vertex 1.41059e-38 -33 9.8
      vertex 2.47909e-16 -30.9757 10.9059
      vertex 2.35744e-16 -31.075 10.9691
    endloop
  endfacet
  facet normal 1 -1.22465e-16 -9.25228e-23
    outer loop
      vertex 1.41059e-38 -33 9.8
      vertex 2.35744e-16 -31.075 10.9691
      vertex 2.22951e-16 -31.1795 11.0235
    endloop
  endfacet
  facet normal 1 -1.22465e-16 -4.74703e-24
    outer loop
      vertex 1.41059e-38 -33 9.8
      vertex 2.22951e-16 -31.1795 11.0235
      vertex 2.09626e-16 -31.2883 11.0686
    endloop
  endfacet
  facet normal 1 -1.22465e-16 9.02824e-23
    outer loop
      vertex 1.41059e-38 -33 9.8
      vertex 2.09626e-16 -31.2883 11.0686
      vertex 1.95871e-16 -31.4006 11.104
    endloop
  endfacet
  facet normal 1 -1.22465e-16 1.47089e-23
    outer loop
      vertex 1.41059e-38 -33 9.8
      vertex 1.95871e-16 -31.4006 11.104
      vertex 1.8179e-16 -31.5156 11.1295
    endloop
  endfacet
  facet normal 1 -1.22465e-16 9.16828e-22
    outer loop
      vertex 1.41059e-38 -33 9.8
      vertex 1.8179e-16 -31.5156 11.1295
      vertex 1.6749e-16 -31.6323 11.1449
    endloop
  endfacet
  facet normal 1 -1.22464e-16 -8.77878e-22
    outer loop
      vertex 1.41059e-38 -33 9.8
      vertex 1.6749e-16 -31.6323 11.1449
      vertex 1.53081e-16 -31.75 11.15
    endloop
  endfacet
  facet normal 1 -1.22465e-16 -2.46519e-32
    outer loop
      vertex 1.41059e-38 -33 9.8
      vertex 1.53081e-16 -31.75 11.15
      vertex 3.32801e-32 -33 11.15
    endloop
  endfacet
  facet normal 1 -1.22465e-16 2.95801e-23
    outer loop
      vertex 3.02918e-16 -30.5265 10.3705
      vertex 1.41059e-38 -33 9.8
      vertex 3.18408e-16 -30.4 9.8
    endloop
  endfacet
  facet normal -0 0 1
    outer loop
      vertex -18 -31.75 11.15
      vertex 3.32801e-32 -33 11.15
      vertex 1.53081e-16 -31.75 11.15
    endloop
  endfacet
  facet normal 0 0 1
    outer loop
      vertex 3.32801e-32 -33 11.15
      vertex -18 -31.75 11.15
      vertex -18 -33 11.15
    endloop
  endfacet
  facet normal 0 -1 0
    outer loop
      vertex -18 -33 9.8
      vertex 3.32801e-32 -33 11.15
      vertex -18 -33 11.15
    endloop
  endfacet
  facet normal 0 -1 0
    outer loop
      vertex 3.32801e-32 -33 11.15
      vertex -18 -33 9.8
      vertex 1.41059e-38 -33 9.8
    endloop
  endfacet
  facet normal 0 0.793354 0.608761
    outer loop
      vertex 2.88509e-16 -30.6441 10.5743
      vertex -18 -30.7158 10.6678
      vertex 2.79729e-16 -30.7158 10.6678
    endloop
  endfacet
  facet normal 0 0.793354 0.608761
    outer loop
      vertex -18 -30.7158 10.6678
      vertex 2.88509e-16 -30.6441 10.5743
      vertex -18 -30.6441 10.5743
    endloop
  endfacet
  facet normal -0 0.300704 0.953718
    outer loop
      vertex -18 -31.2883 11.0686
      vertex 1.95871e-16 -31.4006 11.104
      vertex 2.09626e-16 -31.2883 11.0686
    endloop
  endfacet
  facet normal 0 0.300704 0.953718
    outer loop
      vertex 1.95871e-16 -31.4006 11.104
      vertex -18 -31.2883 11.0686
      vertex -18 -31.4006 11.104
    endloop
  endfacet
  facet normal -0 0.608761 0.793354
    outer loop
      vertex -18 -30.8822 10.8342
      vertex 2.47909e-16 -30.9757 10.9059
      vertex 2.59351e-16 -30.8822 10.8342
    endloop
  endfacet
  facet normal 0 0.608761 0.793354
    outer loop
      vertex 2.47909e-16 -30.9757 10.9059
      vertex -18 -30.8822 10.8342
      vertex -18 -30.9757 10.9059
    endloop
  endfacet
  facet normal 0 0.887007 0.461756
    outer loop
      vertex 3.02918e-16 -30.5265 10.3705
      vertex -18 -30.5809 10.475
      vertex 2.96258e-16 -30.5809 10.475
    endloop
  endfacet
  facet normal 0 0.887007 0.461756
    outer loop
      vertex -18 -30.5809 10.475
      vertex 3.02918e-16 -30.5265 10.3705
      vertex -18 -30.5265 10.3705
    endloop
  endfacet
  facet normal 0 0.999048 0.0436298
    outer loop
      vertex 3.18408e-16 -30.4 9.8
      vertex -18 -30.4051 9.91766
      vertex 3.17779e-16 -30.4051 9.91766
    endloop
  endfacet
  facet normal 0 0.999048 0.0436298
    outer loop
      vertex -18 -30.4051 9.91766
      vertex 3.18408e-16 -30.4 9.8
      vertex -18 -30.4 9.8
    endloop
  endfacet
  facet normal -0 0.130526 0.991445
    outer loop
      vertex -18 -31.5156 11.1295
      vertex 1.6749e-16 -31.6323 11.1449
      vertex 1.8179e-16 -31.5156 11.1295
    endloop
  endfacet
  facet normal 0 0.130526 0.991445
    outer loop
      vertex 1.6749e-16 -31.6323 11.1449
      vertex -18 -31.5156 11.1295
      vertex -18 -31.6323 11.1449
    endloop
  endfacet
  facet normal -0 0.216441 0.976296
    outer loop
      vertex -18 -31.4006 11.104
      vertex 1.8179e-16 -31.5156 11.1295
      vertex 1.95871e-16 -31.4006 11.104
    endloop
  endfacet
  facet normal 0 0.216441 0.976296
    outer loop
      vertex 1.8179e-16 -31.5156 11.1295
      vertex -18 -31.4006 11.104
      vertex -18 -31.5156 11.1295
    endloop
  endfacet
  facet normal -0 0.461749 0.887011
    outer loop
      vertex -18 -31.075 10.9691
      vertex 2.22951e-16 -31.1795 11.0235
      vertex 2.35744e-16 -31.075 10.9691
    endloop
  endfacet
  facet normal 0 0.461749 0.887011
    outer loop
      vertex 2.22951e-16 -31.1795 11.0235
      vertex -18 -31.075 10.9691
      vertex -18 -31.1795 11.0235
    endloop
  endfacet
  facet normal 0 0.976294 0.216449
    outer loop
      vertex 3.15896e-16 -30.4205 10.0344
      vertex -18 -30.446 10.1494
      vertex 3.12775e-16 -30.446 10.1494
    endloop
  endfacet
  facet normal 0 0.976294 0.216449
    outer loop
      vertex -18 -30.446 10.1494
      vertex 3.15896e-16 -30.4205 10.0344
      vertex -18 -30.4205 10.0344
    endloop
  endfacet
  facet normal 0 0.843394 0.537295
    outer loop
      vertex 2.96258e-16 -30.5809 10.475
      vertex -18 -30.6441 10.5743
      vertex 2.88509e-16 -30.6441 10.5743
    endloop
  endfacet
  facet normal 0 0.843394 0.537295
    outer loop
      vertex -18 -30.6441 10.5743
      vertex 2.96258e-16 -30.5809 10.475
      vertex -18 -30.5809 10.475
    endloop
  endfacet
  facet normal 0 0.95372 0.300697
    outer loop
      vertex 3.12775e-16 -30.446 10.1494
      vertex -18 -30.4814 10.2617
      vertex 3.08438e-16 -30.4814 10.2617
    endloop
  endfacet
  facet normal 0 0.95372 0.300697
    outer loop
      vertex -18 -30.4814 10.2617
      vertex 3.12775e-16 -30.446 10.1494
      vertex -18 -30.446 10.1494
    endloop
  endfacet
  facet normal 0 0.991446 0.130518
    outer loop
      vertex 3.17779e-16 -30.4051 9.91766
      vertex -18 -30.4205 10.0344
      vertex 3.15896e-16 -30.4205 10.0344
    endloop
  endfacet
  facet normal 0 0.991446 0.130518
    outer loop
      vertex -18 -30.4205 10.0344
      vertex 3.17779e-16 -30.4051 9.91766
      vertex -18 -30.4051 9.91766
    endloop
  endfacet
  facet normal -0 0.382687 0.923878
    outer loop
      vertex -18 -31.1795 11.0235
      vertex 2.09626e-16 -31.2883 11.0686
      vertex 2.22951e-16 -31.1795 11.0235
    endloop
  endfacet
  facet normal 0 0.382687 0.923878
    outer loop
      vertex 2.09626e-16 -31.2883 11.0686
      vertex -18 -31.1795 11.0235
      vertex -18 -31.2883 11.0686
    endloop
  endfacet
  facet normal -0 0.537297 0.843393
    outer loop
      vertex -18 -30.9757 10.9059
      vertex 2.35744e-16 -31.075 10.9691
      vertex 2.47909e-16 -30.9757 10.9059
    endloop
  endfacet
  facet normal 0 0.537297 0.843393
    outer loop
      vertex 2.35744e-16 -31.075 10.9691
      vertex -18 -30.9757 10.9059
      vertex -18 -31.075 10.9691
    endloop
  endfacet
  facet normal -0 0.675594 0.737274
    outer loop
      vertex -18 -30.7954 10.7546
      vertex 2.59351e-16 -30.8822 10.8342
      vertex 2.69985e-16 -30.7954 10.7546
    endloop
  endfacet
  facet normal 0 0.675594 0.737274
    outer loop
      vertex 2.59351e-16 -30.8822 10.8342
      vertex -18 -30.7954 10.7546
      vertex -18 -30.8822 10.8342
    endloop
  endfacet
  facet normal 0 0.73727 0.675598
    outer loop
      vertex 2.79729e-16 -30.7158 10.6678
      vertex -18 -30.7954 10.7546
      vertex 2.69985e-16 -30.7954 10.7546
    endloop
  endfacet
  facet normal 0 0.73727 0.675598
    outer loop
      vertex -18 -30.7954 10.7546
      vertex 2.79729e-16 -30.7158 10.6678
      vertex -18 -30.7158 10.6678
    endloop
  endfacet
  facet normal 0 0.923882 0.382677
    outer loop
      vertex 3.08438e-16 -30.4814 10.2617
      vertex -18 -30.5265 10.3705
      vertex 3.02918e-16 -30.5265 10.3705
    endloop
  endfacet
  facet normal 0 0.923882 0.382677
    outer loop
      vertex -18 -30.5265 10.3705
      vertex 3.08438e-16 -30.4814 10.2617
      vertex -18 -30.4814 10.2617
    endloop
  endfacet
  facet normal -0 0.0436136 0.999048
    outer loop
      vertex -18 -31.6323 11.1449
      vertex 1.53081e-16 -31.75 11.15
      vertex 1.6749e-16 -31.6323 11.1449
    endloop
  endfacet
  facet normal 0 0.0436136 0.999048
    outer loop
      vertex 1.53081e-16 -31.75 11.15
      vertex -18 -31.6323 11.1449
      vertex -18 -31.75 11.15
    endloop
  endfacet
  facet normal 0 0 -1
    outer loop
      vertex -18 -33 9.8
      vertex 3.18408e-16 -30.4 9.8
      vertex 1.41059e-38 -33 9.8
    endloop
  endfacet
  facet normal -0 0 -1
    outer loop
      vertex 3.18408e-16 -30.4 9.8
      vertex -18 -33 9.8
      vertex -18 -30.4 9.8
    endloop
  endfacet
  facet normal -1 0 0
    outer loop
      vertex -18 -30.4 9.8
      vertex -18 -30.4205 10.0344
      vertex -18 -30.4051 9.91766
    endloop
  endfacet
  facet normal -1 0 0
    outer loop
      vertex -18 -30.4 9.8
      vertex -18 -30.446 10.1494
      vertex -18 -30.4205 10.0344
    endloop
  endfacet
  facet normal -1 0 0
    outer loop
      vertex -18 -30.4 9.8
      vertex -18 -30.4814 10.2617
      vertex -18 -30.446 10.1494
    endloop
  endfacet
  facet normal -1 0 0
    outer loop
      vertex -18 -30.4 9.8
      vertex -18 -30.5265 10.3705
      vertex -18 -30.4814 10.2617
    endloop
  endfacet
  facet normal -1 0 0
    outer loop
      vertex -18 -33 9.8
      vertex -18 -30.5265 10.3705
      vertex -18 -30.4 9.8
    endloop
  endfacet
  facet normal -1 -0 0
    outer loop
      vertex -18 -30.5265 10.3705
      vertex -18 -33 9.8
      vertex -18 -30.5809 10.475
    endloop
  endfacet
  facet normal -1 -0 0
    outer loop
      vertex -18 -30.5809 10.475
      vertex -18 -33 9.8
      vertex -18 -30.6441 10.5743
    endloop
  endfacet
  facet normal -1 -0 0
    outer loop
      vertex -18 -30.6441 10.5743
      vertex -18 -33 9.8
      vertex -18 -30.7158 10.6678
    endloop
  endfacet
  facet normal -1 -0 0
    outer loop
      vertex -18 -30.7158 10.6678
      vertex -18 -33 9.8
      vertex -18 -30.7954 10.7546
    endloop
  endfacet
  facet normal -1 -0 0
    outer loop
      vertex -18 -30.7954 10.7546
      vertex -18 -33 9.8
      vertex -18 -30.8822 10.8342
    endloop
  endfacet
  facet normal -1 -0 0
    outer loop
      vertex -18 -30.8822 10.8342
      vertex -18 -33 9.8
      vertex -18 -30.9757 10.9059
    endloop
  endfacet
  facet normal -1 -0 0
    outer loop
      vertex -18 -30.9757 10.9059
      vertex -18 -33 9.8
      vertex -18 -31.075 10.9691
    endloop
  endfacet
  facet normal -1 -0 0
    outer loop
      vertex -18 -31.075 10.9691
      vertex -18 -33 9.8
      vertex -18 -31.1795 11.0235
    endloop
  endfacet
  facet normal -1 -0 0
    outer loop
      vertex -18 -31.1795 11.0235
      vertex -18 -33 9.8
      vertex -18 -31.2883 11.0686
    endloop
  endfacet
  facet normal -1 -0 0
    outer loop
      vertex -18 -31.2883 11.0686
      vertex -18 -33 9.8
      vertex -18 -31.4006 11.104
    endloop
  endfacet
  facet normal -1 -0 0
    outer loop
      vertex -18 -31.4006 11.104
      vertex -18 -33 9.8
      vertex -18 -31.5156 11.1295
    endloop
  endfacet
  facet normal -1 -0 0
    outer loop
      vertex -18 -31.5156 11.1295
      vertex -18 -33 9.8
      vertex -18 -31.6323 11.1449
    endloop
  endfacet
  facet normal -1 -0 0
    outer loop
      vertex -18 -31.6323 11.1449
      vertex -18 -33 9.8
      vertex -18 -31.75 11.15
    endloop
  endfacet
  facet normal -1 -0 0
    outer loop
      vertex -18 -31.75 11.15
      vertex -18 -33 9.8
      vertex -18 -33 11.15
    endloop
  endfacet
  facet normal -1 0 0
    outer loop
      vertex -18 -8 1.77636e-15
      vertex -18 -5 11
      vertex -18 0 0
    endloop
  endfacet
  facet normal -1 -0 0
    outer loop
      vertex -18 -5 11
      vertex -18 -8 1.77636e-15
      vertex -18 -8 11
    endloop
  endfacet
  facet normal -1 0 0
    outer loop
      vertex -18 -5 11
      vertex -18 6.21725e-15 28
      vertex -18 0 0
    endloop
  endfacet
  facet normal -1 -0 0
    outer loop
      vertex -18 6.21725e-15 28
      vertex -18 -5 11
      vertex -18 -5 28
    endloop
  endfacet
  facet normal 0 -1 0
    outer loop
      vertex -10.7999 -5 23
      vertex -5.60005 -5 25.7714
      vertex -12.3999 -5 25.7714
    endloop
  endfacet
  facet normal 0 -1 0
    outer loop
      vertex -10.7999 -5 23
      vertex -7.2001 -5 23
      vertex -5.60005 -5 25.7714
    endloop
  endfacet
  facet normal 0 -1 0
    outer loop
      vertex -12.3999 -5 20.2286
      vertex -7.2001 -5 23
      vertex -10.7999 -5 23
    endloop
  endfacet
  facet normal 0 -1 -0
    outer loop
      vertex -7.2001 -5 23
      vertex -12.3999 -5 20.2286
      vertex -5.60005 -5 20.2286
    endloop
  endfacet
  facet normal 0 -1 0
    outer loop
      vertex -12.3999 -5 25.7714
      vertex -18 -5 28
      vertex -15.6 -5 25.7714
    endloop
  endfacet
  facet normal 0 -1 0
    outer loop
      vertex -18 -5 28
      vertex -17.2001 -5 23
      vertex -15.6 -5 25.7714
    endloop
  endfacet
  facet normal 0 -1 0
    outer loop
      vertex -18 -5 11
      vertex -12.3999 -5 20.2286
      vertex -15.6 -5 20.2286
    endloop
  endfacet
  facet normal 0 -1 -0
    outer loop
      vertex -12.3999 -5 20.2286
      vertex -18 -5 11
      vertex -5.60005 -5 20.2286
    endloop
  endfacet
  facet normal 0 -1 0
    outer loop
      vertex 0 -5 11
      vertex -5.60005 -5 20.2286
      vertex -18 -5 11
    endloop
  endfacet
  facet normal 0 -1 -0
    outer loop
      vertex -17.2001 -5 23
      vertex -18 -5 11
      vertex -15.6 -5 20.2286
    endloop
  endfacet
  facet normal 0 -1 0
    outer loop
      vertex -18 -5 11
      vertex -17.2001 -5 23
      vertex -18 -5 28
    endloop
  endfacet
  facet normal 0 -1 0
    outer loop
      vertex -18 -5 28
      vertex -12.3999 -5 25.7714
      vertex 0 -5 28
    endloop
  endfacet
  facet normal 0 -1 0
    outer loop
      vertex -5.60005 -5 25.7714
      vertex 0 -5 28
      vertex -12.3999 -5 25.7714
    endloop
  endfacet
  facet normal 0 -1 0
    outer loop
      vertex -2.39995 -5 25.7714
      vertex 0 -5 28
      vertex -5.60005 -5 25.7714
    endloop
  endfacet
  facet normal 0 -1 0
    outer loop
      vertex -0.799899 -5 23
      vertex 0 -5 28
      vertex -2.39995 -5 25.7714
    endloop
  endfacet
  facet normal 0 -1 0
    outer loop
      vertex -0.799899 -5 23
      vertex 0 -5 11
      vertex 0 -5 28
    endloop
  endfacet
  facet normal 0 -1 0
    outer loop
      vertex -2.39995 -5 20.2286
      vertex 0 -5 11
      vertex -0.799899 -5 23
    endloop
  endfacet
  facet normal 0 -1 0
    outer loop
      vertex -5.60005 -5 20.2286
      vertex 0 -5 11
      vertex -2.39995 -5 20.2286
    endloop
  endfacet
  facet normal 1 0 0
    outer loop
      vertex 0 -5 11
      vertex 0 6.21725e-15 28
      vertex 0 -5 28
    endloop
  endfacet
  facet normal 1 0 0
    outer loop
      vertex 0 6.21725e-15 28
      vertex 0 -5 11
      vertex 0 0 0
    endloop
  endfacet
  facet normal 1 0 0
    outer loop
      vertex 0 -8 9.8
      vertex 0 -5 11
      vertex 0 -8 11
    endloop
  endfacet
  facet normal 1 0 0
    outer loop
      vertex 0 -8 1.77636e-15
      vertex 0 -5 11
      vertex 0 -8 9.8
    endloop
  endfacet
  facet normal 1 0 0
    outer loop
      vertex 0 -5 11
      vertex 0 -8 1.77636e-15
      vertex 0 0 0
    endloop
  endfacet
  facet normal -0 0 1
    outer loop
      vertex -18 6.21725e-15 28
      vertex 0 -5 28
      vertex 0 6.21725e-15 28
    endloop
  endfacet
  facet normal 0 0 1
    outer loop
      vertex 0 -5 28
      vertex -18 6.21725e-15 28
      vertex -18 -5 28
    endloop
  endfacet
  facet normal 0 -2.22045e-16 -1
    outer loop
      vertex -17.7687 -8 1.77636e-15
      vertex 0 0 0
      vertex 0 -8 1.77636e-15
    endloop
  endfacet
  facet normal 0 -2.22045e-16 -1
    outer loop
      vertex -18 0 0
      vertex -17.7687 -8 1.77636e-15
      vertex -18 -8 1.77636e-15
    endloop
  endfacet
  facet normal 0 -2.22045e-16 -1
    outer loop
      vertex -17.7687 -8 1.77636e-15
      vertex -18 0 0
      vertex 0 0 0
    endloop
  endfacet
  facet normal 0 -1 0
    outer loop
      vertex -18 -8 9.8
      vertex 0 -8 11
      vertex -18 -8 11
    endloop
  endfacet
  facet normal 0 -1 -0
    outer loop
      vertex 0 -8 11
      vertex -18 -8 9.8
      vertex 0 -8 9.8
    endloop
  endfacet
  facet normal 0 0 0
    outer loop
      vertex -18 -8 11
      vertex -18 -8 1.77636e-15
      vertex -18 -8 9.8
    endloop
  endfacet
  facet normal 0 -1 -0
    outer loop
      vertex 0 -8 9.8
      vertex -17.7687 -8 1.77636e-15
      vertex 0 -8 1.77636e-15
    endloop
  endfacet
  facet normal -0 0 1
    outer loop
      vertex -18 -5 11
      vertex 0 -8 11
      vertex 0 -5 11
    endloop
  endfacet
  facet normal 0 0 1
    outer loop
      vertex 0 -8 11
      vertex -18 -5 11
      vertex -18 -8 11
    endloop
  endfacet
endsolid OpenSCAD_Model
